Typefesse_Pleine.ufo
<glyph name="exclam" format="1">
  <advance width="275"/>
  <unicode hex="0021"/>
  <outline>
    <contour>
      <point x="117" y="695" type="line" name="hr00"/>
      <point x="160" y="695" type="line"/>
      <point x="160" y="207" type="line"/>
      <point x="117" y="207" type="line"/>
    </contour>
    <contour>
      <point x="183" y="75" type="curve" smooth="yes"/>
      <point x="183" y="50"/>
      <point x="165" y="30"/>
      <point x="139" y="30" type="curve" smooth="yes"/>
      <point x="114" y="30"/>
      <point x="94" y="50"/>
      <point x="94" y="75" type="curve" smooth="yes"/>
      <point x="94" y="101"/>
      <point x="114" y="119"/>
      <point x="139" y="119" type="curve" smooth="yes"/>
      <point x="165" y="119"/>
      <point x="183" y="101"/>
    </contour>
  </outline>
</glyph>
<glyph name="numbersign" format="1">
  <advance width="615"/>
  <unicode hex="0023"/>
  <outline>
    <contour>
      <point x="358" y="226" type="line"/>
      <point x="385" y="432" type="line"/>
      <point x="246" y="432" type="line"/>
      <point x="218" y="226" type="line"/>
    </contour>
    <contour>
      <point x="353" y="183" type="line"/>
      <point x="214" y="183" type="line"/>
      <point x="190" y="1" type="line"/>
      <point x="147" y="6" type="line"/>
      <point x="170" y="183" type="line"/>
      <point x="67" y="183" type="line"/>
      <point x="67" y="226" type="line"/>
      <point x="176" y="226" type="line"/>
      <point x="202" y="432" type="line"/>
      <point x="67" y="432" type="line"/>
      <point x="67" y="475" type="line"/>
      <point x="207" y="475" type="line"/>
      <point x="231" y="655" type="line"/>
      <point x="274" y="650" type="line"/>
      <point x="251" y="475" type="line"/>
      <point x="390" y="475" type="line"/>
      <point x="414" y="655" type="line"/>
      <point x="456" y="650" type="line"/>
      <point x="433" y="475" type="line"/>
      <point x="548" y="475" type="line"/>
      <point x="548" y="432" type="line"/>
      <point x="428" y="432" type="line"/>
      <point x="428" y="432"/>
      <point x="402" y="226"/>
      <point x="402" y="226" type="curve"/>
      <point x="548" y="226" type="line"/>
      <point x="548" y="183" type="line"/>
      <point x="396" y="183" type="line"/>
      <point x="372" y="1" type="line"/>
      <point x="329" y="6" type="line"/>
    </contour>
  </outline>
</glyph>
<glyph name="percent" format="1">
  <advance width="641"/>
  <unicode hex="0025"/>
  <outline>
    <contour>
      <point x="476" y="676" type="line" name="hr00"/>
      <point x="523" y="676" type="line"/>
      <point x="166" y="21" type="line"/>
      <point x="117" y="21" type="line"/>
    </contour>
    <contour>
      <point x="579" y="123" type="curve" smooth="yes"/>
      <point x="579" y="66"/>
      <point x="533" y="19"/>
      <point x="475" y="19" type="curve" smooth="yes"/>
      <point x="418" y="19"/>
      <point x="371" y="66"/>
      <point x="371" y="123" type="curve" smooth="yes"/>
      <point x="371" y="181"/>
      <point x="418" y="227"/>
      <point x="475" y="227" type="curve" smooth="yes"/>
      <point x="533" y="227"/>
      <point x="579" y="181"/>
    </contour>
    <contour>
      <point x="540" y="123" type="curve" smooth="yes"/>
      <point x="540" y="159"/>
      <point x="511" y="188"/>
      <point x="475" y="188" type="curve" smooth="yes"/>
      <point x="440" y="188"/>
      <point x="411" y="159"/>
      <point x="411" y="123" type="curve" smooth="yes"/>
      <point x="411" y="88"/>
      <point x="440" y="59"/>
      <point x="475" y="59" type="curve" smooth="yes"/>
      <point x="511" y="59"/>
      <point x="540" y="88"/>
    </contour>
    <contour>
      <point x="270" y="573" type="curve" smooth="yes"/>
      <point x="270" y="516"/>
      <point x="224" y="469"/>
      <point x="166" y="469" type="curve" smooth="yes"/>
      <point x="109" y="469"/>
      <point x="62" y="516"/>
      <point x="62" y="573" type="curve" smooth="yes"/>
      <point x="62" y="631"/>
      <point x="109" y="677"/>
      <point x="166" y="677" type="curve" smooth="yes"/>
      <point x="224" y="677"/>
      <point x="270" y="631"/>
    </contour>
    <contour>
      <point x="231" y="573" type="curve" smooth="yes"/>
      <point x="231" y="609"/>
      <point x="202" y="638"/>
      <point x="166" y="638" type="curve" smooth="yes"/>
      <point x="131" y="638"/>
      <point x="102" y="609"/>
      <point x="102" y="573" type="curve" smooth="yes"/>
      <point x="102" y="538"/>
      <point x="131" y="509"/>
      <point x="166" y="509" type="curve" smooth="yes"/>
      <point x="202" y="509"/>
      <point x="231" y="538"/>
    </contour>
  </outline>
</glyph>
<glyph name="ampersand" format="1">
  <advance width="943"/>
  <unicode hex="0026"/>
  <outline>
    <contour>
      <point x="661" y="-152" type="curve" smooth="yes" name="hr08"/>
      <point x="652" y="-154"/>
      <point x="637" y="-144"/>
      <point x="633" y="-123" type="curve" smooth="yes"/>
      <point x="624" y="-78"/>
      <point x="620" y="-62"/>
      <point x="618" y="-60" type="curve"/>
      <point x="601" y="-72" type="line"/>
      <point x="601" y="-72"/>
      <point x="608" y="-84"/>
      <point x="613" y="-129" type="curve" smooth="yes"/>
      <point x="615" y="-142"/>
      <point x="613" y="-156"/>
      <point x="605" y="-157" type="curve" smooth="yes"/>
      <point x="595" y="-158"/>
      <point x="579" y="-147"/>
      <point x="575" y="-125" type="curve" smooth="yes"/>
      <point x="574" y="-118"/>
      <point x="573" y="-110"/>
      <point x="571" y="-102" type="curve" smooth="yes"/>
      <point x="565" y="-66"/>
      <point x="562" y="-42"/>
      <point x="548" y="-16" type="curve"/>
      <point x="535" y="-18"/>
      <point x="529" y="-18"/>
      <point x="523" y="-18" type="curve" smooth="yes"/>
      <point x="478" y="-18"/>
      <point x="430" y="7"/>
      <point x="430" y="55" type="curve" smooth="yes"/>
      <point x="430" y="73"/>
      <point x="437" y="91"/>
      <point x="456" y="98" type="curve"/>
      <point x="449" y="123"/>
      <point x="446" y="141"/>
      <point x="446" y="158" type="curve" smooth="yes"/>
      <point x="446" y="164"/>
      <point x="446" y="170"/>
      <point x="447" y="176" type="curve"/>
      <point x="426" y="178" type="line"/>
      <point x="425" y="170"/>
      <point x="425" y="163"/>
      <point x="425" y="156" type="curve" smooth="yes"/>
      <point x="425" y="142"/>
      <point x="426" y="128"/>
      <point x="431" y="111" type="curve"/>
      <point x="416" y="94"/>
      <point x="409" y="74"/>
      <point x="409" y="55" type="curve" smooth="yes"/>
      <point x="409" y="34"/>
      <point x="417" y="16"/>
      <point x="428" y="1" type="curve" name="hr09"/>
      <point x="354" y="-2"/>
      <point x="265" y="8"/>
      <point x="218" y="76" type="curve" smooth="yes"/>
      <point x="195" y="110"/>
      <point x="183" y="149"/>
      <point x="183" y="189" type="curve" smooth="yes"/>
      <point x="183" y="249"/>
      <point x="209" y="310"/>
      <point x="257" y="355" type="curve" smooth="yes"/>
      <point x="262" y="360" type="line"/>
      <point x="206" y="545" type="line"/>
      <point x="186" y="539" type="line"/>
      <point x="238" y="366" type="line"/>
      <point x="188" y="317"/>
      <point x="163" y="252"/>
      <point x="163" y="189" type="curve" smooth="yes"/>
      <point x="163" y="145"/>
      <point x="175" y="101"/>
      <point x="201" y="64" type="curve" smooth="yes"/>
      <point x="216" y="42"/>
      <point x="235" y="26"/>
      <point x="256" y="13" type="curve"/>
      <point x="221" y="16"/>
      <point x="177" y="29"/>
      <point x="142" y="56" type="curve" smooth="yes"/>
      <point x="96" y="92"/>
      <point x="76" y="145"/>
      <point x="76" y="198" type="curve" smooth="yes" name="hr10"/>
      <point x="76" y="268"/>
      <point x="108" y="323"/>
      <point x="142" y="353" type="curve" smooth="yes"/>
      <point x="149" y="359" type="line"/>
      <point x="143" y="367" type="line" smooth="yes"/>
      <point x="110" y="414"/>
      <point x="92" y="461"/>
      <point x="92" y="507" type="curve" smooth="yes"/>
      <point x="92" y="643"/>
      <point x="203" y="712"/>
      <point x="313" y="712" type="curve" smooth="yes"/>
      <point x="405" y="712"/>
      <point x="481" y="671"/>
      <point x="523" y="603" type="curve" smooth="yes"/>
      <point x="544" y="568"/>
      <point x="556" y="529"/>
      <point x="556" y="489" type="curve" smooth="yes"/>
      <point x="556" y="471"/>
      <point x="554" y="453"/>
      <point x="549" y="435" type="curve"/>
      <point x="460" y="437" type="line"/>
      <point x="460" y="416" type="line"/>
      <point x="554" y="414" type="line"/>
      <point x="601" y="372"/>
      <point x="645" y="318"/>
      <point x="683" y="252" type="curve" smooth="yes"/>
      <point x="734" y="162"/>
      <point x="768" y="10"/>
      <point x="780" y="-75" type="curve" smooth="yes"/>
      <point x="783" y="-96" type="line" smooth="yes"/>
      <point x="786" y="-112"/>
      <point x="780" y="-121"/>
      <point x="772" y="-123" type="curve" smooth="yes"/>
      <point x="765" y="-124"/>
      <point x="753" y="-119"/>
      <point x="748" y="-100" type="curve" smooth="yes"/>
      <point x="741" y="-68"/>
      <point x="737" y="-48"/>
      <point x="732" y="-42" type="curve"/>
      <point x="716" y="-57" type="line"/>
      <point x="718" y="-60"/>
      <point x="723" y="-72"/>
      <point x="728" y="-105" type="curve" smooth="yes"/>
      <point x="731" y="-125"/>
      <point x="725" y="-136"/>
      <point x="719" y="-138" type="curve" smooth="yes"/>
      <point x="711" y="-140"/>
      <point x="698" y="-131"/>
      <point x="693" y="-111" type="curve" smooth="yes"/>
      <point x="682" y="-68"/>
      <point x="677" y="-54"/>
      <point x="676" y="-53" type="curve"/>
      <point x="659" y="-64" type="line"/>
      <point x="659" y="-64"/>
      <point x="666" y="-77"/>
      <point x="672" y="-117" type="curve" smooth="yes"/>
      <point x="676" y="-138"/>
      <point x="669" y="-150"/>
    </contour>
    <contour>
      <point x="746" y="455" type="line"/>
      <point x="783" y="518" type="line" smooth="yes"/>
      <point x="788" y="526"/>
      <point x="797" y="531"/>
      <point x="804" y="531" type="curve" smooth="yes"/>
      <point x="809" y="531"/>
      <point x="813" y="529"/>
      <point x="815" y="525" type="curve" smooth="yes"/>
      <point x="819" y="517"/>
      <point x="817" y="506"/>
      <point x="809" y="493" type="curve" smooth="yes"/>
      <point x="772" y="428" type="line"/>
      <point x="789" y="417" type="line"/>
      <point x="828" y="483" type="line" smooth="yes"/>
      <point x="838" y="500"/>
      <point x="852" y="506"/>
      <point x="863" y="501" type="curve" smooth="yes"/>
      <point x="872" y="497"/>
      <point x="875" y="486"/>
      <point x="870" y="472" type="curve" smooth="yes"/>
      <point x="802" y="301" type="line"/>
      <point x="814" y="299"/>
      <point x="845" y="293"/>
      <point x="869" y="268" type="curve" smooth="yes"/>
      <point x="881" y="256"/>
      <point x="887" y="240"/>
      <point x="887" y="221" type="curve" smooth="yes"/>
      <point x="887" y="154"/>
      <point x="824" y="102"/>
      <point x="766" y="89" type="curve"/>
      <point x="744" y="173"/>
      <point x="734" y="207"/>
      <point x="701" y="263" type="curve" smooth="yes"/>
      <point x="684" y="291"/>
      <point x="667" y="318"/>
      <point x="650" y="342" type="curve"/>
      <point x="651" y="434"/>
      <point x="695" y="503"/>
      <point x="720" y="538" type="curve" smooth="yes"/>
      <point x="727" y="548" type="line" smooth="yes"/>
      <point x="736" y="561"/>
      <point x="750" y="563"/>
      <point x="759" y="558" type="curve" smooth="yes"/>
      <point x="769" y="552"/>
      <point x="771" y="539"/>
      <point x="762" y="524" type="curve" smooth="yes"/>
      <point x="728" y="466" type="line"/>
    </contour>
  </outline>
</glyph>
<glyph name="parenleft" format="1">
  <advance width="449"/>
  <unicode hex="0028"/>
  <outline>
    <contour>
      <point x="398" y="-64" type="line" name="hr00"/>
      <point x="205" y="-61"/>
      <point x="66" y="135"/>
      <point x="66" y="327" type="curve" smooth="yes"/>
      <point x="66" y="483"/>
      <point x="130" y="589"/>
      <point x="184" y="638" type="curve" smooth="yes"/>
      <point x="253" y="702"/>
      <point x="344" y="723"/>
      <point x="397" y="723" type="curve"/>
      <point x="397" y="679" type="line"/>
      <point x="352" y="679"/>
      <point x="273" y="663"/>
      <point x="212" y="607" type="curve" smooth="yes"/>
      <point x="164" y="563"/>
      <point x="108" y="468"/>
      <point x="108" y="327" type="curve" smooth="yes"/>
      <point x="108" y="120"/>
      <point x="253" y="-20"/>
      <point x="398" y="-20" type="curve"/>
    </contour>
  </outline>
</glyph>
<glyph name="asterisk" format="1">
  <advance width="394"/>
  <unicode hex="002A"/>
  <outline>
    <contour>
      <point x="172" y="463" type="line"/>
      <point x="172" y="543" type="line"/>
      <point x="115" y="486" type="line"/>
      <point x="84" y="517" type="line"/>
      <point x="143" y="576" type="line"/>
      <point x="60" y="576" type="line"/>
      <point x="60" y="620" type="line"/>
      <point x="141" y="620" type="line"/>
      <point x="85" y="676" type="line"/>
      <point x="116" y="707" type="line"/>
      <point x="172" y="651" type="line"/>
      <point x="172" y="730" type="line"/>
      <point x="216" y="730" type="line"/>
      <point x="216" y="649" type="line"/>
      <point x="273" y="706" type="line"/>
      <point x="304" y="674" type="line"/>
      <point x="249" y="620" type="line"/>
      <point x="327" y="620" type="line"/>
      <point x="327" y="576" type="line"/>
      <point x="247" y="576" type="line"/>
      <point x="305" y="518" type="line"/>
      <point x="274" y="487" type="line"/>
      <point x="216" y="545" type="line"/>
      <point x="216" y="463" type="line"/>
    </contour>
  </outline>
</glyph>
<glyph name="plus" format="1">
  <advance width="388"/>
  <unicode hex="002B"/>
  <outline>
    <contour>
      <point x="216" y="306" type="line"/>
      <point x="216" y="193" type="line"/>
      <point x="172" y="193" type="line"/>
      <point x="172" y="306" type="line"/>
      <point x="60" y="306" type="line"/>
      <point x="60" y="350" type="line"/>
      <point x="172" y="350" type="line"/>
      <point x="172" y="460" type="line"/>
      <point x="216" y="460" type="line"/>
      <point x="216" y="350" type="line"/>
      <point x="327" y="350" type="line"/>
      <point x="327" y="306" type="line"/>
    </contour>
  </outline>
</glyph>
<glyph name="comma" format="1">
  <advance width="267"/>
  <unicode hex="002C"/>
  <outline>
    <contour>
      <point x="90" y="-76" type="line"/>
      <point x="139" y="-44"/>
      <point x="157" y="0"/>
      <point x="157" y="27" type="curve" smooth="yes"/>
      <point x="157" y="34" type="line"/>
      <point x="152" y="31"/>
      <point x="145" y="30"/>
      <point x="138" y="30" type="curve" smooth="yes"/>
      <point x="113" y="30"/>
      <point x="93" y="50"/>
      <point x="93" y="75" type="curve" smooth="yes"/>
      <point x="93" y="101"/>
      <point x="113" y="119"/>
      <point x="138" y="119" type="curve" smooth="yes"/>
      <point x="153" y="119"/>
      <point x="169" y="111"/>
      <point x="178" y="95" type="curve" smooth="yes"/>
      <point x="185" y="83"/>
      <point x="189" y="66"/>
      <point x="189" y="48" type="curve" smooth="yes"/>
      <point x="189" y="-17"/>
      <point x="161" y="-69"/>
      <point x="105" y="-104" type="curve"/>
    </contour>
  </outline>
</glyph>
<glyph name="hyphen" format="1">
  <advance width="403"/>
  <unicode hex="002D"/>
  <outline>
    <contour>
      <point x="306" y="349" type="line" name="hr00"/>
      <point x="306" y="306" type="line"/>
      <point x="97" y="306" type="line"/>
      <point x="97" y="349" type="line"/>
    </contour>
  </outline>
</glyph>
<glyph name="period" format="1">
  <advance width="263"/>
  <unicode hex="002E"/>
  <outline>
    <contour>
      <point x="182" y="75" type="curve" smooth="yes"/>
      <point x="182" y="50"/>
      <point x="164" y="30"/>
      <point x="138" y="30" type="curve" smooth="yes"/>
      <point x="113" y="30"/>
      <point x="93" y="50"/>
      <point x="93" y="75" type="curve" smooth="yes"/>
      <point x="93" y="101"/>
      <point x="113" y="119"/>
      <point x="138" y="119" type="curve" smooth="yes"/>
      <point x="164" y="119"/>
      <point x="182" y="101"/>
    </contour>
  </outline>
</glyph>
<glyph name="slash" format="1">
  <advance width="487"/>
  <unicode hex="002F"/>
  <outline>
    <contour>
      <point x="37" y="-9" type="line" name="hr00"/>
      <point x="86" y="-9" type="line"/>
      <point x="454" y="726" type="line"/>
      <point x="407" y="726" type="line"/>
    </contour>
  </outline>
</glyph>
<glyph name="one" format="1">
  <advance width="584"/>
  <unicode hex="0031"/>
  <outline>
    <contour>
      <point x="97" y="514" type="line"/>
      <point x="100" y="530" type="line"/>
      <point x="71" y="536" type="line" smooth="yes"/>
      <point x="59" y="539"/>
      <point x="56" y="544"/>
      <point x="56" y="548" type="curve" smooth="yes"/>
      <point x="56" y="554"/>
      <point x="66" y="555"/>
      <point x="74" y="553" type="curve" smooth="yes"/>
      <point x="103" y="547" type="line"/>
      <point x="106" y="563" type="line"/>
      <point x="77" y="569" type="line" smooth="yes"/>
      <point x="60" y="573"/>
      <point x="60" y="577"/>
      <point x="60" y="581" type="curve" smooth="yes"/>
      <point x="60" y="584"/>
      <point x="64" y="587"/>
      <point x="68" y="587" type="curve" smooth="yes"/>
      <point x="72" y="587"/>
      <point x="78" y="586"/>
      <point x="84" y="585" type="curve" smooth="yes"/>
      <point x="109" y="580" type="line"/>
      <point x="112" y="596" type="line"/>
      <point x="88" y="601" type="line" smooth="yes"/>
      <point x="74" y="604"/>
      <point x="67" y="605"/>
      <point x="67" y="610" type="curve" smooth="yes" name="hr05"/>
      <point x="67" y="615"/>
      <point x="74" y="618"/>
      <point x="89" y="622" type="curve" smooth="yes"/>
      <point x="390" y="701" type="line" smooth="yes"/>
      <point x="396" y="703"/>
      <point x="401" y="703"/>
      <point x="406" y="703" type="curve" smooth="yes"/>
      <point x="430" y="703"/>
      <point x="435" y="679"/>
      <point x="435" y="662" type="curve" smooth="yes"/>
      <point x="435" y="444" type="line"/>
      <point x="484" y="413"/>
      <point x="513" y="365"/>
      <point x="513" y="311" type="curve" smooth="yes"/>
      <point x="513" y="245"/>
      <point x="490" y="214"/>
      <point x="464" y="190" type="curve"/>
      <point x="431" y="190" type="line"/>
      <point x="431" y="169" type="line"/>
      <point x="456" y="169" type="line"/>
      <point x="456" y="21" type="line"/>
      <point x="377" y="21" type="line"/>
      <point x="377" y="158" type="line"/>
      <point x="411" y="180"/>
      <point x="442" y="230"/>
      <point x="442" y="286" type="curve" smooth="yes"/>
      <point x="442" y="357"/>
      <point x="389" y="418"/>
      <point x="325" y="435" type="curve"/>
      <point x="319" y="415" type="line"/>
      <point x="378" y="397"/>
      <point x="421" y="346"/>
      <point x="421" y="286" type="curve" smooth="yes"/>
      <point x="421" y="236"/>
      <point x="392" y="190"/>
      <point x="356" y="170" type="curve"/>
      <point x="356" y="21" type="line"/>
      <point x="197" y="21" type="line"/>
      <point x="197" y="454" type="line"/>
      <point x="70" y="503" type="line" smooth="yes"/>
      <point x="52" y="510"/>
      <point x="51" y="515"/>
      <point x="51" y="517" type="curve" smooth="yes" name="hr06"/>
      <point x="51" y="523"/>
      <point x="64" y="522"/>
      <point x="68" y="521" type="curve" smooth="yes"/>
    </contour>
  </outline>
</glyph>
<glyph name="three" format="1">
  <advance width="700"/>
  <unicode hex="0033"/>
  <outline>
    <contour>
      <point x="216" y="481" type="curve" smooth="yes"/>
      <point x="253" y="483"/>
      <point x="290" y="502"/>
      <point x="303" y="536" type="curve"/>
      <point x="476" y="604" type="line"/>
      <point x="468" y="624" type="line"/>
      <point x="310" y="561" type="line"/>
      <point x="310" y="611"/>
      <point x="295" y="626"/>
      <point x="292" y="629" type="curve"/>
      <point x="279" y="612" type="line"/>
      <point x="280" y="611"/>
      <point x="289" y="600"/>
      <point x="289" y="569" type="curve" smooth="yes"/>
      <point x="289" y="530"/>
      <point x="252" y="501"/>
      <point x="217" y="501" type="curve" smooth="yes"/>
      <point x="212" y="501"/>
      <point x="206" y="501"/>
      <point x="201" y="502" type="curve"/>
      <point x="199" y="569" type="line"/>
      <point x="183" y="569" type="line"/>
      <point x="183" y="472" type="line" smooth="yes"/>
      <point x="183" y="461"/>
      <point x="179" y="455"/>
      <point x="171" y="455" type="curve" smooth="yes"/>
      <point x="166" y="455"/>
      <point x="157" y="458"/>
      <point x="157" y="472" type="curve" smooth="yes"/>
      <point x="157" y="569" type="line"/>
      <point x="141" y="569" type="line"/>
      <point x="141" y="472" type="line" smooth="yes"/>
      <point x="141" y="460"/>
      <point x="137" y="455"/>
      <point x="129" y="455" type="curve" smooth="yes"/>
      <point x="124" y="455"/>
      <point x="115" y="458"/>
      <point x="115" y="472" type="curve" smooth="yes"/>
      <point x="115" y="569" type="line"/>
      <point x="99" y="569" type="line"/>
      <point x="99" y="472" type="line" smooth="yes"/>
      <point x="99" y="458"/>
      <point x="91" y="455"/>
      <point x="86" y="455" type="curve" smooth="yes"/>
      <point x="79" y="455"/>
      <point x="76" y="462"/>
      <point x="76" y="472" type="curve" smooth="yes" name="hr03"/>
      <point x="76" y="631" type="line" smooth="yes"/>
      <point x="76" y="665"/>
      <point x="90" y="680"/>
      <point x="121" y="680" type="curve" smooth="yes"/>
      <point x="532" y="680" type="line" smooth="yes"/>
      <point x="566" y="680"/>
      <point x="592" y="652"/>
      <point x="592" y="622" type="curve" smooth="yes"/>
      <point x="592" y="600"/>
      <point x="582" y="577"/>
      <point x="554" y="553" type="curve" smooth="yes"/>
      <point x="367" y="394" type="line"/>
      <point x="381" y="378" type="line"/>
      <point x="445" y="434" type="line"/>
      <point x="521" y="432"/>
      <point x="624" y="362"/>
      <point x="624" y="228" type="curve" smooth="yes"/>
      <point x="624" y="173"/>
      <point x="584" y="0"/>
      <point x="406" y="0" type="curve" smooth="yes"/>
      <point x="366" y="0"/>
      <point x="303" y="12"/>
      <point x="225" y="76" type="curve" smooth="yes"/>
      <point x="217" y="82" type="line"/>
      <point x="185" y="47" type="line" smooth="yes"/>
      <point x="181" y="43"/>
      <point x="177" y="42"/>
      <point x="174" y="42" type="curve" smooth="yes"/>
      <point x="168" y="42"/>
      <point x="164" y="46"/>
      <point x="164" y="50" type="curve" smooth="yes"/>
      <point x="164" y="51"/>
      <point x="164" y="56"/>
      <point x="168" y="60" type="curve" smooth="yes"/>
      <point x="186" y="81" type="line"/>
      <point x="173" y="91" type="line"/>
      <point x="157" y="72" type="line" smooth="yes"/>
      <point x="151" y="65"/>
      <point x="147" y="64"/>
      <point x="143" y="64" type="curve" smooth="yes"/>
      <point x="137" y="64"/>
      <point x="135" y="69"/>
      <point x="135" y="72" type="curve" smooth="yes"/>
      <point x="135" y="75"/>
      <point x="137" y="79"/>
      <point x="141" y="84" type="curve" smooth="yes"/>
      <point x="157" y="105" type="line"/>
      <point x="144" y="115" type="line"/>
      <point x="129" y="98" type="line" smooth="yes"/>
      <point x="122" y="90"/>
      <point x="119" y="88"/>
      <point x="116" y="88" type="curve" smooth="yes"/>
      <point x="111" y="88"/>
      <point x="107" y="93"/>
      <point x="107" y="96" type="curve" smooth="yes"/>
      <point x="107" y="98"/>
      <point x="107" y="100"/>
      <point x="110" y="104" type="curve" smooth="yes"/>
      <point x="129" y="128" type="line"/>
      <point x="117" y="138" type="line"/>
      <point x="100" y="120" type="line" smooth="yes"/>
      <point x="97" y="116"/>
      <point x="92" y="111"/>
      <point x="88" y="111" type="curve" smooth="yes"/>
      <point x="84" y="111"/>
      <point x="81" y="115"/>
      <point x="81" y="118" type="curve" smooth="yes" name="hr04"/>
      <point x="81" y="121"/>
      <point x="81" y="125"/>
      <point x="86" y="132" type="curve" smooth="yes"/>
      <point x="207" y="310" type="line" smooth="yes"/>
      <point x="216" y="324"/>
      <point x="229" y="332"/>
      <point x="244" y="332" type="curve" smooth="yes"/>
      <point x="258" y="332"/>
      <point x="274" y="325"/>
      <point x="290" y="314" type="curve" smooth="yes"/>
      <point x="488" y="182" type="line"/>
      <point x="500" y="199" type="line"/>
      <point x="303" y="330" type="line" smooth="yes"/>
      <point x="285" y="342"/>
      <point x="264" y="350"/>
      <point x="245" y="350" type="curve" smooth="yes"/>
      <point x="224" y="350"/>
      <point x="204" y="341"/>
      <point x="190" y="321" type="curve" smooth="yes"/>
      <point x="173" y="297" type="line"/>
      <point x="133" y="304"/>
      <point x="92" y="330"/>
      <point x="92" y="375" type="curve" smooth="yes" name="hr05"/>
      <point x="92" y="403"/>
      <point x="105" y="427"/>
      <point x="114" y="438" type="curve"/>
      <point x="119" y="435"/>
      <point x="124" y="434"/>
      <point x="129" y="434" type="curve" smooth="yes"/>
      <point x="137" y="434"/>
      <point x="145" y="437"/>
      <point x="150" y="443" type="curve"/>
      <point x="156" y="437"/>
      <point x="163" y="434"/>
      <point x="171" y="434" type="curve" smooth="yes"/>
      <point x="180" y="434"/>
      <point x="188" y="438"/>
      <point x="193" y="445" type="curve" smooth="yes"/>
      <point x="199" y="452"/>
      <point x="201" y="462"/>
      <point x="201" y="474" type="curve" smooth="yes"/>
      <point x="201" y="482" type="line"/>
      <point x="205" y="481"/>
      <point x="211" y="481"/>
    </contour>
  </outline>
</glyph>
<glyph name="four" format="1">
  <advance width="691"/>
  <unicode hex="0034"/>
  <outline>
    <contour>
      <point x="348" y="79" type="line"/>
      <point x="348" y="95" type="line"/>
      <point x="313" y="95" type="line" smooth="yes"/>
      <point x="301" y="95"/>
      <point x="296" y="100"/>
      <point x="296" y="106" type="curve" smooth="yes"/>
      <point x="296" y="112"/>
      <point x="301" y="117"/>
      <point x="311" y="117" type="curve" smooth="yes"/>
      <point x="348" y="117" type="line"/>
      <point x="348" y="133" type="line"/>
      <point x="313" y="133" type="line" smooth="yes"/>
      <point x="303" y="133"/>
      <point x="300" y="140"/>
      <point x="300" y="144" type="curve" smooth="yes" name="hr04"/>
      <point x="300" y="148"/>
      <point x="303" y="154"/>
      <point x="312" y="154" type="curve" smooth="yes"/>
      <point x="358" y="154" type="line"/>
      <point x="358" y="197" type="line"/>
      <point x="374" y="197" type="line" smooth="yes"/>
      <point x="453" y="197"/>
      <point x="511" y="252"/>
      <point x="511" y="328" type="curve" smooth="yes"/>
      <point x="511" y="359"/>
      <point x="502" y="392"/>
      <point x="486" y="427" type="curve"/>
      <point x="467" y="418" type="line"/>
      <point x="482" y="386"/>
      <point x="491" y="356"/>
      <point x="491" y="328" type="curve" smooth="yes"/>
      <point x="491" y="259"/>
      <point x="439" y="218"/>
      <point x="370" y="218" type="curve" smooth="yes"/>
      <point x="131" y="218" type="line" smooth="yes"/>
      <point x="93" y="218"/>
      <point x="61" y="248"/>
      <point x="61" y="284" type="curve" smooth="yes"/>
      <point x="61" y="298"/>
      <point x="65" y="313"/>
      <point x="71" y="328" type="curve" smooth="yes"/>
      <point x="105" y="404"/>
      <point x="202" y="572"/>
      <point x="203" y="572" type="curve"/>
      <point x="165" y="606" type="line" smooth="yes"/>
      <point x="161" y="610"/>
      <point x="161" y="613"/>
      <point x="161" y="615" type="curve" smooth="yes"/>
      <point x="161" y="618"/>
      <point x="164" y="619"/>
      <point x="166" y="619" type="curve" smooth="yes"/>
      <point x="169" y="619"/>
      <point x="174" y="618"/>
      <point x="182" y="614" type="curve" smooth="yes"/>
      <point x="229" y="588" type="line"/>
      <point x="237" y="603" type="line"/>
      <point x="187" y="632" type="line" smooth="yes"/>
      <point x="180" y="636"/>
      <point x="177" y="642"/>
      <point x="177" y="646" type="curve" smooth="yes" name="hr05"/>
      <point x="177" y="651"/>
      <point x="183" y="651"/>
      <point x="186" y="651" type="curve" smooth="yes"/>
      <point x="189" y="651"/>
      <point x="193" y="650"/>
      <point x="198" y="648" type="curve" smooth="yes"/>
      <point x="250" y="624" type="line"/>
      <point x="258" y="639" type="line"/>
      <point x="211" y="666" type="line" smooth="yes"/>
      <point x="205" y="669"/>
      <point x="203" y="674"/>
      <point x="203" y="677" type="curve" smooth="yes"/>
      <point x="203" y="681"/>
      <point x="206" y="685"/>
      <point x="212" y="685" type="curve" smooth="yes"/>
      <point x="217" y="685"/>
      <point x="218" y="684"/>
      <point x="223" y="682" type="curve" smooth="yes"/>
      <point x="270" y="660" type="line"/>
      <point x="278" y="675" type="line"/>
      <point x="228" y="699" type="line" smooth="yes"/>
      <point x="221" y="702"/>
      <point x="220" y="706"/>
      <point x="220" y="708" type="curve" smooth="yes"/>
      <point x="220" y="711"/>
      <point x="223" y="714"/>
      <point x="229" y="714" type="curve" smooth="yes"/>
      <point x="234" y="714"/>
      <point x="242" y="711"/>
      <point x="251" y="708" type="curve" smooth="yes"/>
      <point x="439" y="653" type="line" smooth="yes"/>
      <point x="458" y="648"/>
      <point x="469" y="631"/>
      <point x="469" y="614" type="curve" smooth="yes"/>
      <point x="469" y="603"/>
      <point x="465" y="591"/>
      <point x="457" y="582" type="curve" smooth="yes"/>
      <point x="406" y="518"/>
      <point x="230" y="383"/>
      <point x="228" y="380" type="curve"/>
      <point x="243" y="365" type="line"/>
      <point x="249" y="370"/>
      <point x="359" y="458"/>
      <point x="429" y="521" type="curve"/>
      <point x="444" y="521" type="line" smooth="yes"/>
      <point x="541" y="521"/>
      <point x="610" y="466"/>
      <point x="610" y="356" type="curve" smooth="yes"/>
      <point x="610" y="296"/>
      <point x="588" y="235"/>
      <point x="521" y="235" type="curve" smooth="yes"/>
      <point x="511" y="235"/>
      <point x="507" y="236"/>
      <point x="501" y="237" type="curve"/>
      <point x="497" y="217" type="line"/>
      <point x="505" y="215"/>
      <point x="511" y="214"/>
      <point x="520" y="214" type="curve" smooth="yes"/>
      <point x="544" y="214"/>
      <point x="565" y="220"/>
      <point x="583" y="234" type="curve"/>
      <point x="583" y="21" type="line"/>
      <point x="311" y="21" type="line" smooth="yes"/>
      <point x="302" y="21"/>
      <point x="298" y="26"/>
      <point x="298" y="30" type="curve" smooth="yes"/>
      <point x="298" y="34"/>
      <point x="301" y="41"/>
      <point x="311" y="41" type="curve" smooth="yes"/>
      <point x="349" y="41" type="line"/>
      <point x="349" y="57" type="line"/>
      <point x="314" y="57" type="line" smooth="yes"/>
      <point x="302" y="57"/>
      <point x="296" y="62"/>
      <point x="296" y="68" type="curve" smooth="yes"/>
      <point x="296" y="74"/>
      <point x="302" y="79"/>
      <point x="312" y="79" type="curve" smooth="yes"/>
    </contour>
  </outline>
</glyph>
<glyph name="six" format="1">
  <advance width="659"/>
  <unicode hex="0036"/>
  <outline>
    <contour>
      <point x="218" y="195" type="curve" smooth="yes"/>
      <point x="272" y="195"/>
      <point x="315" y="228"/>
      <point x="339" y="271" type="curve" smooth="yes"/>
      <point x="342" y="277" type="line" smooth="yes"/>
      <point x="363" y="311"/>
      <point x="403" y="330"/>
      <point x="441" y="330" type="curve" smooth="yes"/>
      <point x="464" y="330"/>
      <point x="493" y="323"/>
      <point x="523" y="302" type="curve"/>
      <point x="535" y="320" type="line"/>
      <point x="501" y="343"/>
      <point x="469" y="351"/>
      <point x="442" y="351" type="curve" smooth="yes"/>
      <point x="414" y="351"/>
      <point x="387" y="343"/>
      <point x="367" y="330" type="curve"/>
      <point x="431" y="464" type="line"/>
      <point x="532" y="428"/>
      <point x="589" y="352"/>
      <point x="589" y="247" type="curve" smooth="yes"/>
      <point x="589" y="99"/>
      <point x="483" y="0"/>
      <point x="326" y="0" type="curve" smooth="yes"/>
      <point x="240" y="0"/>
      <point x="156" y="41"/>
      <point x="107" y="108" type="curve" smooth="yes"/>
      <point x="76" y="149"/>
      <point x="61" y="197"/>
      <point x="61" y="248" type="curve" smooth="yes"/>
      <point x="61" y="308"/>
      <point x="81" y="349"/>
      <point x="91" y="375" type="curve" smooth="yes"/>
      <point x="207" y="660" type="line" smooth="yes"/>
      <point x="220" y="693"/>
      <point x="229" y="701"/>
      <point x="279" y="701" type="curve" smooth="yes"/>
      <point x="532" y="701" type="line" smooth="yes"/>
      <point x="541" y="701"/>
      <point x="551" y="699"/>
      <point x="551" y="691" type="curve" smooth="yes"/>
      <point x="551" y="688"/>
      <point x="547" y="682"/>
      <point x="535" y="682" type="curve" smooth="yes"/>
      <point x="497" y="682" type="line"/>
      <point x="497" y="666" type="line"/>
      <point x="535" y="666" type="line" smooth="yes"/>
      <point x="545" y="666"/>
      <point x="551" y="661"/>
      <point x="551" y="654" type="curve" smooth="yes"/>
      <point x="551" y="647"/>
      <point x="543" y="642"/>
      <point x="535" y="642" type="curve" smooth="yes"/>
      <point x="497" y="642" type="line"/>
      <point x="497" y="626" type="line"/>
      <point x="535" y="626" type="line" smooth="yes"/>
      <point x="545" y="626"/>
      <point x="552" y="622"/>
      <point x="552" y="615" type="curve" smooth="yes"/>
      <point x="552" y="609"/>
      <point x="546" y="604"/>
      <point x="535" y="604" type="curve" smooth="yes"/>
      <point x="497" y="604" type="line"/>
      <point x="497" y="588" type="line"/>
      <point x="534" y="588" type="line" smooth="yes"/>
      <point x="547" y="587"/>
      <point x="553" y="583"/>
      <point x="553" y="579" type="curve" smooth="yes"/>
      <point x="553" y="576"/>
      <point x="549" y="571"/>
      <point x="532" y="565" type="curve" smooth="yes"/>
      <point x="441" y="534" type="line"/>
      <point x="318" y="278" type="line"/>
      <point x="299" y="244"/>
      <point x="264" y="216"/>
      <point x="218" y="216" type="curve" smooth="yes"/>
      <point x="197" y="216"/>
      <point x="173" y="222"/>
      <point x="147" y="236" type="curve"/>
      <point x="136" y="218" type="line"/>
      <point x="165" y="202"/>
      <point x="193" y="195"/>
    </contour>
  </outline>
</glyph>
<glyph name="seven" format="1">
  <advance width="655"/>
  <unicode hex="0037"/>
  <outline>
    <contour>
      <point x="408" y="68" type="line"/>
      <point x="400" y="54" type="line"/>
      <point x="422" y="42" type="line" smooth="yes"/>
      <point x="433" y="36"/>
      <point x="441" y="33"/>
      <point x="441" y="28" type="curve" smooth="yes"/>
      <point x="441" y="21"/>
      <point x="433" y="21"/>
      <point x="416" y="21" type="curve" smooth="yes"/>
      <point x="160" y="21" type="line" smooth="yes"/>
      <point x="133" y="21"/>
      <point x="104" y="39"/>
      <point x="104" y="64" type="curve" smooth="yes"/>
      <point x="104" y="79"/>
      <point x="107" y="90"/>
      <point x="125" y="124" type="curve" smooth="yes"/>
      <point x="257" y="362" type="line"/>
      <point x="467" y="506" type="line"/>
      <point x="455" y="524" type="line"/>
      <point x="247" y="381" type="line"/>
      <point x="161" y="412"/>
      <point x="152" y="482"/>
      <point x="152" y="513" type="curve" smooth="yes"/>
      <point x="152" y="546"/>
      <point x="166" y="572"/>
      <point x="193" y="600" type="curve"/>
      <point x="178" y="615" type="line"/>
      <point x="147" y="583"/>
      <point x="131" y="551"/>
      <point x="131" y="513" type="curve" smooth="yes"/>
      <point x="131" y="444"/>
      <point x="169" y="389"/>
      <point x="233" y="364" type="curve"/>
      <point x="208" y="319" type="line"/>
      <point x="145" y="329"/>
      <point x="61" y="399"/>
      <point x="61" y="507" type="curve" smooth="yes"/>
      <point x="61" y="566"/>
      <point x="81" y="609"/>
      <point x="120" y="640" type="curve" smooth="yes"/>
      <point x="158" y="670"/>
      <point x="212" y="685"/>
      <point x="282" y="685" type="curve" smooth="yes"/>
      <point x="499" y="685" type="line" smooth="yes"/>
      <point x="578" y="685"/>
      <point x="609" y="650"/>
      <point x="609" y="598" type="curve" smooth="yes"/>
      <point x="609" y="568"/>
      <point x="590" y="535"/>
      <point x="554" y="472" type="curve" smooth="yes"/>
      <point x="458" y="305"/>
      <point x="433" y="272"/>
      <point x="389" y="195" type="curve"/>
      <point x="464" y="138" type="line" smooth="yes"/>
      <point x="474" y="131"/>
      <point x="487" y="123"/>
      <point x="487" y="116" type="curve" smooth="yes"/>
      <point x="487" y="106"/>
      <point x="469" y="114"/>
      <point x="467" y="115" type="curve" smooth="yes"/>
      <point x="443" y="126" type="line"/>
      <point x="435" y="112" type="line"/>
      <point x="459" y="99" type="line" smooth="yes"/>
      <point x="468" y="94"/>
      <point x="476" y="89"/>
      <point x="476" y="84" type="curve" smooth="yes"/>
      <point x="476" y="72"/>
      <point x="458" y="81"/>
      <point x="453" y="84" type="curve" smooth="yes"/>
      <point x="425" y="99" type="line"/>
      <point x="417" y="85" type="line"/>
      <point x="443" y="70" type="line" smooth="yes"/>
      <point x="453" y="64"/>
      <point x="456" y="58"/>
      <point x="456" y="55" type="curve" smooth="yes"/>
      <point x="456" y="48"/>
      <point x="444" y="50"/>
      <point x="438" y="53" type="curve" smooth="yes"/>
    </contour>
  </outline>
</glyph>
<glyph name="eight" format="1">
  <advance width="661"/>
  <unicode hex="0038"/>
  <outline>
    <contour>
      <point x="273" y="380" type="line"/>
      <point x="323" y="388"/>
      <point x="364" y="410"/>
      <point x="390" y="438" type="curve"/>
      <point x="510" y="278" type="line"/>
      <point x="263" y="129" type="line" smooth="yes"/>
      <point x="260" y="127"/>
      <point x="258" y="127"/>
      <point x="256" y="127" type="curve" smooth="yes"/>
      <point x="252" y="127"/>
      <point x="248" y="130"/>
      <point x="248" y="134" type="curve" smooth="yes"/>
      <point x="248" y="137"/>
      <point x="250" y="141"/>
      <point x="253" y="143" type="curve" smooth="yes"/>
      <point x="286" y="168" type="line"/>
      <point x="276" y="179" type="line"/>
      <point x="244" y="157" type="line" smooth="yes"/>
      <point x="241" y="155"/>
      <point x="239" y="155"/>
      <point x="237" y="155" type="curve" smooth="yes"/>
      <point x="234" y="155"/>
      <point x="231" y="158"/>
      <point x="231" y="162" type="curve" smooth="yes"/>
      <point x="231" y="164"/>
      <point x="231" y="165"/>
      <point x="235" y="169" type="curve" smooth="yes"/>
      <point x="265" y="194" type="line"/>
      <point x="255" y="205" type="line"/>
      <point x="224" y="181" type="line" smooth="yes"/>
      <point x="219" y="177"/>
      <point x="216" y="177"/>
      <point x="213" y="177" type="curve" smooth="yes"/>
      <point x="210" y="177"/>
      <point x="207" y="179"/>
      <point x="207" y="183" type="curve" smooth="yes"/>
      <point x="207" y="187"/>
      <point x="211" y="191"/>
      <point x="214" y="193" type="curve" smooth="yes"/>
      <point x="246" y="217" type="line"/>
      <point x="237" y="229" type="line"/>
      <point x="199" y="202" type="line" smooth="yes"/>
      <point x="197" y="201"/>
      <point x="195" y="200"/>
      <point x="193" y="200" type="curve" smooth="yes"/>
      <point x="189" y="200"/>
      <point x="185" y="202"/>
      <point x="185" y="207" type="curve" smooth="yes"/>
      <point x="185" y="210"/>
      <point x="188" y="213"/>
      <point x="189" y="214" type="curve" smooth="yes"/>
      <point x="232" y="248" type="line"/>
      <point x="224" y="256" type="line" smooth="yes"/>
      <point x="128" y="352"/>
      <point x="86" y="408"/>
      <point x="86" y="488" type="curve" smooth="yes" name="hr02"/>
      <point x="86" y="689"/>
      <point x="273" y="705"/>
      <point x="330" y="705" type="curve" smooth="yes"/>
      <point x="441" y="705"/>
      <point x="560" y="644"/>
      <point x="560" y="509" type="curve" smooth="yes"/>
      <point x="560" y="459"/>
      <point x="529" y="405"/>
      <point x="475" y="359" type="curve"/>
      <point x="404" y="455" type="line"/>
      <point x="411" y="466"/>
      <point x="417" y="477"/>
      <point x="420" y="490" type="curve"/>
      <point x="457" y="493"/>
      <point x="510" y="518"/>
      <point x="520" y="578" type="curve"/>
      <point x="499" y="581" type="line"/>
      <point x="491" y="532"/>
      <point x="449" y="516"/>
      <point x="425" y="512" type="curve"/>
      <point x="425" y="516"/>
      <point x="426" y="521"/>
      <point x="426" y="526" type="curve" smooth="yes"/>
      <point x="426" y="596"/>
      <point x="364" y="644"/>
      <point x="323" y="660" type="curve"/>
      <point x="315" y="640" type="line"/>
      <point x="350" y="627"/>
      <point x="405" y="585"/>
      <point x="405" y="526" type="curve" smooth="yes"/>
      <point x="405" y="464"/>
      <point x="352" y="415"/>
      <point x="269" y="401" type="curve"/>
    </contour>
    <contour>
      <point x="434" y="103" type="line"/>
      <point x="381" y="174" type="line"/>
      <point x="450" y="216"/>
      <point x="525" y="263"/>
      <point x="531" y="267" type="curve" smooth="yes"/>
      <point x="540" y="273" type="line"/>
      <point x="487" y="343" type="line"/>
      <point x="496" y="351"/>
      <point x="506" y="360"/>
      <point x="516" y="370" type="curve"/>
      <point x="555" y="337"/>
      <point x="590" y="285"/>
      <point x="590" y="205" type="curve" smooth="yes"/>
      <point x="590" y="107"/>
      <point x="489" y="0"/>
      <point x="324" y="0" type="curve" smooth="yes"/>
      <point x="146" y="0"/>
      <point x="66" y="119"/>
      <point x="66" y="206" type="curve" smooth="yes" name="hr03"/>
      <point x="66" y="260"/>
      <point x="83" y="310"/>
      <point x="114" y="348" type="curve"/>
      <point x="135" y="318"/>
      <point x="164" y="286"/>
      <point x="201" y="249" type="curve"/>
      <point x="178" y="231" type="line" smooth="yes"/>
      <point x="169" y="224"/>
      <point x="164" y="213"/>
      <point x="164" y="204" type="curve" smooth="yes"/>
      <point x="164" y="192"/>
      <point x="172" y="182"/>
      <point x="186" y="182" type="curve"/>
      <point x="187" y="169"/>
      <point x="196" y="161"/>
      <point x="207" y="159" type="curve"/>
      <point x="208" y="155"/>
      <point x="209" y="152"/>
      <point x="211" y="149" type="curve" smooth="yes"/>
      <point x="215" y="143"/>
      <point x="222" y="140"/>
      <point x="228" y="138" type="curve"/>
      <point x="225" y="122"/>
      <point x="239" y="106"/>
      <point x="256" y="106" type="curve" smooth="yes"/>
      <point x="260" y="106"/>
      <point x="269" y="108"/>
      <point x="274" y="111" type="curve" smooth="yes"/>
      <point x="364" y="163" type="line"/>
      <point x="417" y="107" type="line"/>
    </contour>
  </outline>
</glyph>
<glyph name="nine" format="1">
  <advance width="672"/>
  <unicode hex="0039"/>
  <outline>
    <contour>
      <point x="382" y="149" type="line"/>
      <point x="371" y="169"/>
      <point x="356" y="196"/>
      <point x="329" y="211" type="curve"/>
      <point x="329" y="288" type="line"/>
      <point x="347" y="282"/>
      <point x="367" y="279"/>
      <point x="389" y="279" type="curve" smooth="yes"/>
      <point x="476" y="279"/>
      <point x="516" y="335"/>
      <point x="526" y="349" type="curve"/>
      <point x="509" y="362" type="line"/>
      <point x="508" y="360"/>
      <point x="473" y="300"/>
      <point x="389" y="300" type="curve" smooth="yes"/>
      <point x="290" y="300"/>
      <point x="237" y="371"/>
      <point x="237" y="438" type="curve" smooth="yes"/>
      <point x="237" y="513"/>
      <point x="277" y="549"/>
      <point x="301" y="563" type="curve"/>
      <point x="290" y="581" type="line"/>
      <point x="262" y="564"/>
      <point x="216" y="523"/>
      <point x="216" y="438" type="curve" smooth="yes"/>
      <point x="216" y="395"/>
      <point x="235" y="352"/>
      <point x="270" y="321" type="curve"/>
      <point x="257" y="312"/>
      <point x="233" y="303"/>
      <point x="206" y="303" type="curve" smooth="yes" name="hr02"/>
      <point x="117" y="303"/>
      <point x="61" y="371"/>
      <point x="61" y="481" type="curve" smooth="yes"/>
      <point x="61" y="593"/>
      <point x="149" y="705"/>
      <point x="316" y="705" type="curve" smooth="yes"/>
      <point x="487" y="705"/>
      <point x="606" y="570"/>
      <point x="606" y="378" type="curve" smooth="yes"/>
      <point x="606" y="195"/>
      <point x="517" y="0"/>
      <point x="267" y="0" type="curve" smooth="yes"/>
      <point x="189" y="0"/>
      <point x="123" y="44"/>
      <point x="72" y="129" type="curve" smooth="yes"/>
      <point x="68" y="136"/>
      <point x="68" y="138"/>
      <point x="68" y="140" type="curve" smooth="yes" name="hr03"/>
      <point x="68" y="145"/>
      <point x="72" y="149"/>
      <point x="76" y="149" type="curve" smooth="yes"/>
      <point x="83" y="149"/>
      <point x="91" y="138"/>
      <point x="93" y="135" type="curve" smooth="yes"/>
      <point x="131" y="90" type="line"/>
      <point x="143" y="100" type="line"/>
      <point x="107" y="148" type="line" smooth="yes"/>
      <point x="102" y="154"/>
      <point x="101" y="160"/>
      <point x="101" y="164" type="curve" smooth="yes"/>
      <point x="101" y="169"/>
      <point x="106" y="172"/>
      <point x="108" y="172" type="curve" smooth="yes"/>
      <point x="114" y="172"/>
      <point x="119" y="167"/>
      <point x="121" y="164" type="curve" smooth="yes"/>
      <point x="164" y="115" type="line"/>
      <point x="176" y="125" type="line"/>
      <point x="143" y="168" type="line" smooth="yes"/>
      <point x="137" y="176"/>
      <point x="131" y="184"/>
      <point x="131" y="192" type="curve" smooth="yes"/>
      <point x="131" y="197"/>
      <point x="133" y="202"/>
      <point x="139" y="202" type="curve" smooth="yes"/>
      <point x="144" y="202"/>
      <point x="151" y="198"/>
      <point x="156" y="191" type="curve" smooth="yes"/>
      <point x="199" y="135" type="line"/>
      <point x="213" y="146" type="line"/>
      <point x="213" y="146"/>
      <point x="208" y="153"/>
      <point x="202" y="162" type="curve"/>
      <point x="209" y="176"/>
      <point x="230" y="203"/>
      <point x="283" y="203" type="curve" smooth="yes"/>
      <point x="329" y="203"/>
      <point x="349" y="166"/>
      <point x="364" y="139" type="curve"/>
    </contour>
  </outline>
</glyph>
<glyph name="semicolon" format="1">
  <advance width="257"/>
  <unicode hex="003B"/>
  <outline>
    <contour>
      <point x="182" y="75" type="curve" smooth="yes"/>
      <point x="182" y="50"/>
      <point x="164" y="30"/>
      <point x="138" y="30" type="curve" smooth="yes"/>
      <point x="113" y="30"/>
      <point x="93" y="50"/>
      <point x="93" y="75" type="curve" smooth="yes"/>
      <point x="93" y="101"/>
      <point x="113" y="119"/>
      <point x="138" y="119" type="curve" smooth="yes"/>
      <point x="164" y="119"/>
      <point x="182" y="101"/>
    </contour>
    <contour>
      <point x="182" y="325" type="curve" smooth="yes"/>
      <point x="182" y="300"/>
      <point x="164" y="280"/>
      <point x="138" y="280" type="curve" smooth="yes"/>
      <point x="113" y="280"/>
      <point x="93" y="300"/>
      <point x="93" y="325" type="curve" smooth="yes"/>
      <point x="93" y="351"/>
      <point x="113" y="369"/>
      <point x="138" y="369" type="curve" smooth="yes"/>
      <point x="164" y="369"/>
      <point x="182" y="351"/>
    </contour>
  </outline>
</glyph>
<glyph name="less" format="1">
  <advance width="437"/>
  <unicode hex="003C"/>
  <outline>
    <contour>
      <point x="362" y="206" type="line"/>
      <point x="362" y="149" type="line"/>
      <point x="79" y="329" type="line"/>
      <point x="362" y="512" type="line"/>
      <point x="362" y="455" type="line"/>
      <point x="168" y="329" type="line"/>
    </contour>
  </outline>
</glyph>
<glyph name="equal" format="1">
  <advance width="425"/>
  <unicode hex="003D"/>
  <outline>
    <contour>
      <point x="84" y="373" type="line"/>
      <point x="84" y="417" type="line"/>
      <point x="351" y="417" type="line"/>
      <point x="351" y="373" type="line"/>
    </contour>
    <contour>
      <point x="84" y="241" type="line"/>
      <point x="84" y="285" type="line"/>
      <point x="351" y="285" type="line"/>
      <point x="351" y="241" type="line"/>
    </contour>
  </outline>
</glyph>
<glyph name="question" format="1">
  <advance width="405"/>
  <unicode hex="003F"/>
  <outline>
    <contour>
      <point x="230" y="75" type="curve" smooth="yes"/>
      <point x="230" y="50"/>
      <point x="212" y="30"/>
      <point x="186" y="30" type="curve" smooth="yes"/>
      <point x="161" y="30"/>
      <point x="141" y="50"/>
      <point x="141" y="75" type="curve" smooth="yes"/>
      <point x="141" y="101"/>
      <point x="161" y="119"/>
      <point x="186" y="119" type="curve" smooth="yes"/>
      <point x="212" y="119"/>
      <point x="230" y="101"/>
    </contour>
    <contour>
      <point x="87" y="734" type="line"/>
      <point x="226" y="734"/>
      <point x="290" y="690"/>
      <point x="318" y="653" type="curve" smooth="yes"/>
      <point x="337" y="629"/>
      <point x="347" y="600"/>
      <point x="347" y="569" type="curve" smooth="yes"/>
      <point x="347" y="557"/>
      <point x="345" y="544"/>
      <point x="342" y="531" type="curve"/>
      <point x="357" y="508"/>
      <point x="365" y="480"/>
      <point x="365" y="449" type="curve" smooth="yes"/>
      <point x="365" y="375"/>
      <point x="327" y="333"/>
      <point x="296" y="311" type="curve" smooth="yes"/>
      <point x="268" y="291"/>
      <point x="234" y="281"/>
      <point x="209" y="277" type="curve"/>
      <point x="209" y="207" type="line"/>
      <point x="167" y="207" type="line"/>
      <point x="167" y="318" type="line"/>
      <point x="187" y="318" type="line" smooth="yes" name="hr01"/>
      <point x="222" y="318"/>
      <point x="323" y="342"/>
      <point x="323" y="449" type="curve" smooth="yes"/>
      <point x="323" y="559"/>
      <point x="195" y="583"/>
      <point x="87" y="583" type="curve"/>
      <point x="87" y="625" type="line"/>
      <point x="179" y="625"/>
      <point x="252" y="613"/>
      <point x="295" y="579" type="curve" smooth="yes"/>
      <point x="304" y="572" type="line"/>
      <point x="303" y="590"/>
      <point x="298" y="610"/>
      <point x="284" y="628" type="curve" smooth="yes"/>
      <point x="252" y="670"/>
      <point x="183" y="692"/>
      <point x="87" y="692" type="curve"/>
    </contour>
  </outline>
</glyph>
<glyph name="at" format="1">
  <advance width="784"/>
  <unicode hex="0040"/>
  <outline>
    <contour>
      <point x="371" y="677" type="curve" smooth="yes"/>
      <point x="573" y="677"/>
      <point x="647" y="508"/>
      <point x="647" y="394" type="curve" smooth="yes"/>
      <point x="647" y="325"/>
      <point x="607" y="223"/>
      <point x="521" y="223" type="curve" smooth="yes"/>
      <point x="464" y="223"/>
      <point x="435" y="247"/>
      <point x="420" y="277" type="curve"/>
      <point x="405" y="240"/>
      <point x="354" y="219"/>
      <point x="318" y="219" type="curve" smooth="yes"/>
      <point x="239" y="219"/>
      <point x="190" y="290"/>
      <point x="190" y="356" type="curve" smooth="yes"/>
      <point x="190" y="432"/>
      <point x="243" y="497"/>
      <point x="295" y="522" type="curve"/>
      <point x="313" y="484" type="line"/>
      <point x="273" y="465"/>
      <point x="232" y="412"/>
      <point x="232" y="356" type="curve" smooth="yes"/>
      <point x="232" y="317"/>
      <point x="259" y="261"/>
      <point x="318" y="261" type="curve" smooth="yes"/>
      <point x="377" y="261"/>
      <point x="405" y="316"/>
      <point x="405" y="369" type="curve" smooth="yes"/>
      <point x="405" y="447" type="line"/>
      <point x="447" y="447" type="line"/>
      <point x="447" y="367" type="line" smooth="yes"/>
      <point x="447" y="289"/>
      <point x="465" y="265"/>
      <point x="521" y="265" type="curve" smooth="yes"/>
      <point x="575" y="265"/>
      <point x="605" y="341"/>
      <point x="605" y="394" type="curve" smooth="yes"/>
      <point x="605" y="477"/>
      <point x="556" y="634"/>
      <point x="371" y="634" type="curve" smooth="yes"/>
      <point x="221" y="634"/>
      <point x="95" y="502"/>
      <point x="95" y="346" type="curve" smooth="yes"/>
      <point x="95" y="186"/>
      <point x="218" y="60"/>
      <point x="374" y="60" type="curve" smooth="yes"/>
      <point x="530" y="60"/>
      <point x="647" y="136"/>
      <point x="711" y="278" type="curve"/>
      <point x="750" y="261" type="line"/>
      <point x="715" y="185"/>
      <point x="667" y="126"/>
      <point x="606" y="85" type="curve" smooth="yes"/>
      <point x="540" y="41"/>
      <point x="463" y="19"/>
      <point x="374" y="19" type="curve" smooth="yes"/>
      <point x="286" y="19"/>
      <point x="205" y="53"/>
      <point x="144" y="116" type="curve" smooth="yes"/>
      <point x="85" y="177"/>
      <point x="53" y="259"/>
      <point x="53" y="346" type="curve" smooth="yes"/>
      <point x="53" y="430"/>
      <point x="87" y="515"/>
      <point x="145" y="577" type="curve" smooth="yes"/>
      <point x="206" y="641"/>
      <point x="286" y="677"/>
    </contour>
  </outline>
</glyph>
<glyph name="B" format="1">
  <advance width="760"/>
  <unicode hex="0042"/>
  <outline>
    <contour>
      <point x="130" y="76" type="line"/>
      <point x="130" y="92" type="line"/>
      <point x="102" y="92" type="line" smooth="yes"/>
      <point x="94" y="92"/>
      <point x="92" y="98"/>
      <point x="92" y="102" type="curve" smooth="yes"/>
      <point x="92" y="107"/>
      <point x="97" y="112"/>
      <point x="102" y="112" type="curve" smooth="yes"/>
      <point x="130" y="112" type="line"/>
      <point x="130" y="128" type="line"/>
      <point x="103" y="128" type="line" smooth="yes"/>
      <point x="94" y="128"/>
      <point x="91" y="134"/>
      <point x="91" y="138" type="curve" smooth="yes"/>
      <point x="91" y="141"/>
      <point x="93" y="147"/>
      <point x="102" y="147" type="curve" smooth="yes"/>
      <point x="146" y="147" type="line"/>
      <point x="294" y="532" type="line" smooth="yes"/>
      <point x="310" y="574"/>
      <point x="330" y="588"/>
      <point x="355" y="588" type="curve" smooth="yes"/>
      <point x="385" y="588"/>
      <point x="404" y="571"/>
      <point x="448" y="532" type="curve" smooth="yes"/>
      <point x="633" y="365" type="line" smooth="yes"/>
      <point x="709" y="297"/>
      <point x="709" y="235"/>
      <point x="709" y="191" type="curve" smooth="yes"/>
      <point x="709" y="114"/>
      <point x="654" y="21"/>
      <point x="537" y="21" type="curve" smooth="yes"/>
      <point x="441" y="21"/>
      <point x="407" y="62"/>
      <point x="403" y="69" type="curve"/>
      <point x="403" y="412" type="line"/>
      <point x="382" y="412" type="line"/>
      <point x="382" y="53" type="line" smooth="yes"/>
      <point x="382" y="21"/>
      <point x="370" y="21"/>
      <point x="340" y="21" type="curve" smooth="yes"/>
      <point x="105" y="21" type="line" smooth="yes"/>
      <point x="95" y="21"/>
      <point x="92" y="26"/>
      <point x="92" y="30" type="curve" smooth="yes"/>
      <point x="92" y="36"/>
      <point x="97" y="40"/>
      <point x="103" y="40" type="curve" smooth="yes"/>
      <point x="130" y="40" type="line"/>
      <point x="130" y="56" type="line"/>
      <point x="103" y="56" type="line" smooth="yes"/>
      <point x="97" y="56"/>
      <point x="92" y="61"/>
      <point x="92" y="66" type="curve" smooth="yes"/>
      <point x="92" y="71"/>
      <point x="96" y="76"/>
      <point x="104" y="76" type="curve" smooth="yes"/>
    </contour>
    <contour>
      <point x="140" y="190" type="curve"/>
      <point x="140" y="669" type="line"/>
      <point x="152" y="672"/>
      <point x="165" y="674"/>
      <point x="176" y="674" type="curve" smooth="yes"/>
      <point x="232" y="674"/>
      <point x="277" y="646"/>
      <point x="297" y="590" type="curve"/>
      <point x="293" y="584"/>
      <point x="289" y="577"/>
    </contour>
  </outline>
</glyph>
<glyph name="C" format="1">
  <advance width="635"/>
  <unicode hex="0043"/>
  <outline>
    <contour>
      <point x="529" y="22" type="line"/>
      <point x="406" y="36"/>
      <point x="254" y="138"/>
      <point x="254" y="310" type="curve" smooth="yes"/>
      <point x="254" y="427"/>
      <point x="324" y="510"/>
      <point x="350" y="527" type="curve"/>
      <point x="338" y="545" type="line"/>
      <point x="312" y="527"/>
      <point x="262" y="468"/>
      <point x="242" y="383" type="curve"/>
      <point x="192" y="409"/>
      <point x="163" y="457"/>
      <point x="163" y="508" type="curve" smooth="yes"/>
      <point x="163" y="529"/>
      <point x="169" y="553"/>
      <point x="182" y="580" type="curve"/>
      <point x="239" y="629"/>
      <point x="338" y="677"/>
      <point x="529" y="677" type="curve"/>
      <point x="529" y="356" type="line"/>
      <point x="468" y="356" type="line"/>
      <point x="468" y="335" type="line"/>
      <point x="529" y="335" type="line"/>
    </contour>
  </outline>
</glyph>
<glyph name="D" format="1">
  <advance width="735"/>
  <unicode hex="0044"/>
  <outline>
    <contour>
      <point x="221" y="201" type="line"/>
      <point x="221" y="574" type="line" smooth="yes"/>
      <point x="221" y="641"/>
      <point x="258" y="675"/>
      <point x="316" y="675" type="curve" smooth="yes"/>
      <point x="456" y="675"/>
      <point x="575" y="553"/>
      <point x="595" y="446" type="curve"/>
      <point x="615" y="450" type="line"/>
      <point x="606" y="499"/>
      <point x="578" y="550"/>
      <point x="537" y="593" type="curve"/>
      <point x="649" y="554"/>
      <point x="699" y="443"/>
      <point x="699" y="341" type="curve" smooth="yes"/>
      <point x="699" y="243"/>
      <point x="642" y="122"/>
      <point x="534" y="122" type="curve" smooth="yes"/>
      <point x="528" y="122"/>
      <point x="523" y="123"/>
      <point x="519" y="123" type="curve"/>
      <point x="562" y="170"/>
      <point x="580" y="219"/>
      <point x="585" y="239" type="curve"/>
      <point x="565" y="245" type="line"/>
      <point x="557" y="216"/>
      <point x="518" y="115"/>
      <point x="422" y="80" type="curve"/>
      <point x="422" y="454" type="line"/>
      <point x="401" y="454" type="line"/>
      <point x="401" y="81" type="line" smooth="yes"/>
      <point x="401" y="51"/>
      <point x="391" y="21"/>
      <point x="311" y="21" type="curve" smooth="yes"/>
      <point x="68" y="21" type="line" smooth="yes"/>
      <point x="60" y="21"/>
      <point x="58" y="27"/>
      <point x="58" y="29" type="curve"/>
      <point x="58" y="31"/>
      <point x="60" y="37"/>
      <point x="66" y="38" type="curve" smooth="yes"/>
      <point x="97" y="40" type="line"/>
      <point x="97" y="56" type="line"/>
      <point x="69" y="57" type="line"/>
      <point x="61" y="57"/>
      <point x="56" y="61"/>
      <point x="56" y="66" type="curve" smooth="yes"/>
      <point x="56" y="71"/>
      <point x="59" y="76"/>
      <point x="66" y="76" type="curve"/>
      <point x="97" y="77" type="line"/>
      <point x="97" y="93" type="line"/>
      <point x="68" y="94" type="line"/>
      <point x="59" y="94"/>
      <point x="56" y="98"/>
      <point x="56" y="103" type="curve" smooth="yes"/>
      <point x="56" y="108"/>
      <point x="61" y="111"/>
      <point x="67" y="111" type="curve"/>
      <point x="97" y="112" type="line"/>
      <point x="97" y="128" type="line"/>
      <point x="65" y="129" type="line"/>
      <point x="58" y="129"/>
      <point x="55" y="133"/>
      <point x="55" y="137" type="curve" smooth="yes"/>
      <point x="55" y="142"/>
      <point x="57" y="145"/>
      <point x="65" y="148" type="curve" smooth="yes"/>
    </contour>
  </outline>
</glyph>
<glyph name="E" format="1">
  <advance width="677"/>
  <unicode hex="0045"/>
  <outline>
    <contour>
      <point x="181" y="129" type="line"/>
      <point x="243" y="129"/>
      <point x="294" y="156"/>
      <point x="325" y="207" type="curve"/>
      <point x="331" y="202"/>
      <point x="339" y="200"/>
      <point x="347" y="200" type="curve" smooth="yes"/>
      <point x="354" y="200"/>
      <point x="361" y="202"/>
      <point x="366" y="206" type="curve"/>
      <point x="372" y="202"/>
      <point x="380" y="199"/>
      <point x="388" y="199" type="curve" smooth="yes"/>
      <point x="396" y="199"/>
      <point x="404" y="201"/>
      <point x="410" y="207" type="curve"/>
      <point x="416" y="202"/>
      <point x="423" y="199"/>
      <point x="432" y="199" type="curve" smooth="yes"/>
      <point x="439" y="199"/>
      <point x="447" y="201"/>
      <point x="453" y="207" type="curve"/>
      <point x="459" y="201"/>
      <point x="467" y="199"/>
      <point x="475" y="199" type="curve" smooth="yes"/>
      <point x="491" y="199"/>
      <point x="507" y="210"/>
      <point x="507" y="231" type="curve" smooth="yes" name="hr03"/>
      <point x="507" y="254" type="line"/>
      <point x="596" y="254" type="line" smooth="yes"/>
      <point x="616" y="254"/>
      <point x="619" y="248"/>
      <point x="619" y="231" type="curve" smooth="yes"/>
      <point x="619" y="32" type="line" smooth="yes"/>
      <point x="619" y="24"/>
      <point x="615" y="20"/>
      <point x="610" y="20" type="curve" smooth="yes"/>
      <point x="604" y="20"/>
      <point x="597" y="25"/>
      <point x="597" y="32" type="curve" smooth="yes"/>
      <point x="597" y="79" type="line"/>
      <point x="581" y="79" type="line"/>
      <point x="581" y="31" type="line" smooth="yes"/>
      <point x="581" y="23"/>
      <point x="575" y="20"/>
      <point x="571" y="20" type="curve" smooth="yes"/>
      <point x="565" y="20"/>
      <point x="560" y="25"/>
      <point x="560" y="32" type="curve" smooth="yes"/>
      <point x="560" y="79" type="line"/>
      <point x="544" y="79" type="line"/>
      <point x="544" y="32" type="line" smooth="yes"/>
      <point x="544" y="24"/>
      <point x="540" y="20"/>
      <point x="534" y="20" type="curve" smooth="yes"/>
      <point x="527" y="20"/>
      <point x="523" y="25"/>
      <point x="523" y="32" type="curve" smooth="yes"/>
      <point x="523" y="79" type="line"/>
      <point x="507" y="79" type="line"/>
      <point x="507" y="31" type="line" smooth="yes"/>
      <point x="507" y="24"/>
      <point x="501" y="20"/>
      <point x="495" y="20" type="curve" smooth="yes"/>
      <point x="490" y="20"/>
      <point x="485" y="24"/>
      <point x="485" y="31" type="curve" smooth="yes"/>
      <point x="485" y="95" type="line"/>
      <point x="226" y="24" type="line" smooth="yes"/>
      <point x="198" y="16"/>
      <point x="176" y="13"/>
      <point x="158" y="13" type="curve" smooth="yes"/>
      <point x="134" y="13"/>
      <point x="118" y="19"/>
      <point x="108" y="28" type="curve" smooth="yes"/>
      <point x="89" y="43"/>
      <point x="81" y="74"/>
      <point x="81" y="131" type="curve" smooth="yes"/>
      <point x="81" y="677" type="line"/>
      <point x="237" y="677" type="line"/>
      <point x="310" y="652"/>
      <point x="398" y="605"/>
      <point x="398" y="515" type="curve" smooth="yes"/>
      <point x="398" y="441"/>
      <point x="364" y="408"/>
      <point x="347" y="393" type="curve"/>
      <point x="332" y="451"/>
      <point x="269" y="502"/>
      <point x="239" y="517" type="curve"/>
      <point x="230" y="499" type="line"/>
      <point x="280" y="467"/>
      <point x="336" y="424"/>
      <point x="336" y="324" type="curve" smooth="yes" name="hr04"/>
      <point x="336" y="295"/>
      <point x="330" y="265"/>
      <point x="318" y="239" type="curve" smooth="yes"/>
      <point x="300" y="198"/>
      <point x="261" y="150"/>
      <point x="181" y="150" type="curve"/>
    </contour>
    <contour>
      <point x="357" y="324" type="curve" smooth="yes"/>
      <point x="357" y="339"/>
      <point x="357" y="357"/>
      <point x="353" y="371" type="curve"/>
      <point x="377" y="386"/>
      <point x="400" y="424"/>
      <point x="407" y="446" type="curve"/>
      <point x="453" y="446" type="line" smooth="yes"/>
      <point x="475" y="446"/>
      <point x="486" y="440"/>
      <point x="486" y="410" type="curve" smooth="yes" name="hr05"/>
      <point x="486" y="233" type="line" smooth="yes"/>
      <point x="486" y="224"/>
      <point x="480" y="219"/>
      <point x="473" y="219" type="curve" smooth="yes"/>
      <point x="467" y="219"/>
      <point x="459" y="223"/>
      <point x="459" y="232" type="curve" smooth="yes"/>
      <point x="459" y="264" type="line"/>
      <point x="444" y="264" type="line"/>
      <point x="444" y="231" type="line" smooth="yes"/>
      <point x="444" y="222"/>
      <point x="436" y="219"/>
      <point x="431" y="219" type="curve"/>
      <point x="429" y="219"/>
      <point x="418" y="220"/>
      <point x="418" y="231" type="curve" smooth="yes"/>
      <point x="418" y="264" type="line"/>
      <point x="402" y="264" type="line"/>
      <point x="402" y="231" type="line" smooth="yes"/>
      <point x="402" y="222"/>
      <point x="394" y="219"/>
      <point x="388" y="219" type="curve" smooth="yes"/>
      <point x="383" y="219"/>
      <point x="376" y="222"/>
      <point x="376" y="231" type="curve" smooth="yes"/>
      <point x="376" y="264" type="line"/>
      <point x="360" y="264" type="line"/>
      <point x="360" y="231" type="line" smooth="yes"/>
      <point x="360" y="221"/>
      <point x="349" y="220"/>
      <point x="347" y="220" type="curve"/>
      <point x="345" y="220"/>
      <point x="337" y="221"/>
      <point x="337" y="230" type="curve"/>
      <point x="350" y="259"/>
      <point x="357" y="292"/>
    </contour>
  </outline>
</glyph>
<glyph name="F" format="1">
  <advance width="668"/>
  <unicode hex="0046"/>
  <outline>
    <contour>
      <point x="84" y="55" type="line" smooth="yes"/>
      <point x="76" y="55"/>
      <point x="73" y="60"/>
      <point x="73" y="64" type="curve" smooth="yes"/>
      <point x="73" y="70"/>
      <point x="77" y="74"/>
      <point x="83" y="74" type="curve" smooth="yes"/>
      <point x="133" y="74" type="line"/>
      <point x="133" y="90" type="line"/>
      <point x="85" y="90" type="line" smooth="yes"/>
      <point x="79" y="90"/>
      <point x="73" y="94"/>
      <point x="73" y="100" type="curve" smooth="yes"/>
      <point x="73" y="106"/>
      <point x="77" y="110"/>
      <point x="85" y="110" type="curve" smooth="yes"/>
      <point x="133" y="110" type="line"/>
      <point x="133" y="126" type="line"/>
      <point x="85" y="126" type="line" smooth="yes"/>
      <point x="76" y="126"/>
      <point x="73" y="132"/>
      <point x="73" y="137" type="curve" smooth="yes"/>
      <point x="73" y="142"/>
      <point x="77" y="146"/>
      <point x="85" y="146" type="curve" smooth="yes"/>
      <point x="202" y="146" type="line"/>
      <point x="56" y="543" type="line" smooth="yes"/>
      <point x="49" y="561"/>
      <point x="46" y="578"/>
      <point x="46" y="594" type="curve" smooth="yes"/>
      <point x="46" y="649"/>
      <point x="88" y="675"/>
      <point x="136" y="675" type="curve" smooth="yes"/>
      <point x="392" y="675" type="line"/>
      <point x="419" y="661"/>
      <point x="472" y="610"/>
      <point x="472" y="532" type="curve" smooth="yes"/>
      <point x="472" y="460"/>
      <point x="443" y="427"/>
      <point x="379" y="378" type="curve"/>
      <point x="391" y="362" type="line"/>
      <point x="424" y="386"/>
      <point x="451" y="408"/>
      <point x="469" y="437" type="curve"/>
      <point x="498" y="411"/>
      <point x="511" y="373"/>
      <point x="511" y="335" type="curve" smooth="yes"/>
      <point x="511" y="274"/>
      <point x="453" y="224"/>
      <point x="382" y="224" type="curve" smooth="yes"/>
      <point x="364" y="224" type="line"/>
      <point x="313" y="347"/>
      <point x="257" y="486"/>
      <point x="257" y="488" type="curve"/>
      <point x="238" y="481" type="line"/>
      <point x="390" y="107" type="line" smooth="yes"/>
      <point x="395" y="95"/>
      <point x="398" y="81"/>
      <point x="398" y="68" type="curve" smooth="yes"/>
      <point x="398" y="44"/>
      <point x="379" y="20"/>
      <point x="355" y="20" type="curve" smooth="yes"/>
      <point x="87" y="20" type="line" smooth="yes"/>
      <point x="78" y="20"/>
      <point x="74" y="24"/>
      <point x="74" y="28" type="curve" smooth="yes"/>
      <point x="74" y="32"/>
      <point x="78" y="39"/>
      <point x="85" y="39" type="curve" smooth="yes"/>
      <point x="132" y="39" type="line"/>
      <point x="132" y="55" type="line"/>
    </contour>
  </outline>
</glyph>
<glyph name="G" format="1">
  <advance width="815"/>
  <unicode hex="0047"/>
  <outline>
    <contour>
      <point x="619" y="17" type="curve" smooth="yes"/>
      <point x="614" y="17"/>
      <point x="609" y="21"/>
      <point x="609" y="33" type="curve" smooth="yes"/>
      <point x="609" y="142" type="line" name="hr03"/>
      <point x="183" y="142" type="line" smooth="yes"/>
      <point x="138" y="142"/>
      <point x="76" y="144"/>
      <point x="76" y="210" type="curve" smooth="yes"/>
      <point x="76" y="261"/>
      <point x="119" y="314"/>
      <point x="176" y="366" type="curve" smooth="yes"/>
      <point x="216" y="402" type="line"/>
      <point x="202" y="417" type="line"/>
      <point x="162" y="382" type="line" smooth="yes"/>
      <point x="126" y="350"/>
      <point x="99" y="319"/>
      <point x="76" y="285" type="curve"/>
      <point x="72" y="303"/>
      <point x="71" y="319"/>
      <point x="71" y="336" type="curve" smooth="yes"/>
      <point x="71" y="482"/>
      <point x="137" y="584"/>
      <point x="228" y="641" type="curve"/>
      <point x="235" y="642"/>
      <point x="242" y="642"/>
      <point x="248" y="642" type="curve" smooth="yes"/>
      <point x="299" y="642"/>
      <point x="339" y="615"/>
      <point x="359" y="583" type="curve"/>
      <point x="338" y="574"/>
      <point x="315" y="560"/>
      <point x="289" y="539" type="curve"/>
      <point x="303" y="523" type="line"/>
      <point x="371" y="578"/>
      <point x="418" y="583"/>
      <point x="469" y="583" type="curve" smooth="yes"/>
      <point x="536" y="583"/>
      <point x="592" y="538"/>
      <point x="613" y="519" type="curve"/>
      <point x="508" y="348" type="line"/>
      <point x="346" y="348" type="line"/>
      <point x="346" y="330" type="line"/>
      <point x="716" y="330" type="line" smooth="yes"/>
      <point x="745" y="330"/>
      <point x="747" y="310"/>
      <point x="747" y="289" type="curve" smooth="yes"/>
      <point x="747" y="33" type="line" smooth="yes"/>
      <point x="747" y="21"/>
      <point x="742" y="17"/>
      <point x="736" y="17" type="curve" smooth="yes" name="hr04"/>
      <point x="731" y="17"/>
      <point x="725" y="22"/>
      <point x="725" y="33" type="curve" smooth="yes"/>
      <point x="725" y="97" type="line"/>
      <point x="709" y="97" type="line"/>
      <point x="709" y="33" type="line" smooth="yes"/>
      <point x="709" y="21"/>
      <point x="703" y="17"/>
      <point x="698" y="17" type="curve" smooth="yes"/>
      <point x="689" y="17"/>
      <point x="686" y="24"/>
      <point x="686" y="33" type="curve" smooth="yes"/>
      <point x="686" y="97" type="line"/>
      <point x="670" y="97" type="line"/>
      <point x="670" y="33" type="line" smooth="yes"/>
      <point x="670" y="21"/>
      <point x="663" y="17"/>
      <point x="658" y="17" type="curve" smooth="yes"/>
      <point x="650" y="17"/>
      <point x="647" y="22"/>
      <point x="647" y="33" type="curve" smooth="yes"/>
      <point x="647" y="97" type="line"/>
      <point x="631" y="97" type="line"/>
      <point x="631" y="33" type="line" smooth="yes"/>
      <point x="631" y="20"/>
      <point x="623" y="17"/>
    </contour>
  </outline>
</glyph>
<glyph name="H" format="1">
  <advance width="815"/>
  <unicode hex="0048"/>
  <outline>
    <contour>
      <point x="589" y="155" type="curve"/>
      <point x="589" y="176" type="line"/>
      <point x="517" y="176"/>
      <point x="477" y="197"/>
      <point x="441" y="230" type="curve"/>
      <point x="482" y="284"/>
      <point x="504" y="349"/>
      <point x="504" y="418" type="curve"/>
      <point x="483" y="418" type="line"/>
      <point x="483" y="285"/>
      <point x="397" y="176"/>
      <point x="291" y="176" type="curve" smooth="yes"/>
      <point x="190" y="176"/>
      <point x="156" y="225"/>
      <point x="150" y="233" type="curve"/>
      <point x="132" y="223" type="line"/>
      <point x="133" y="221"/>
      <point x="168" y="155"/>
      <point x="291" y="155" type="curve" smooth="yes"/>
      <point x="313" y="155"/>
      <point x="334" y="158"/>
      <point x="354" y="166" type="curve"/>
      <point x="354" y="21" type="line"/>
      <point x="82" y="21" type="line"/>
      <point x="82" y="261" type="line" smooth="yes"/>
      <point x="82" y="430"/>
      <point x="167" y="595"/>
      <point x="262" y="677" type="curve"/>
      <point x="354" y="677" type="line"/>
      <point x="354" y="453" type="line"/>
      <point x="433" y="453" type="line"/>
      <point x="433" y="677" type="line"/>
      <point x="703" y="677" type="line"/>
      <point x="653" y="425" type="line"/>
      <point x="727" y="383"/>
      <point x="733" y="300"/>
      <point x="733" y="275" type="curve" smooth="yes"/>
      <point x="733" y="187"/>
      <point x="652" y="114"/>
      <point x="643" y="106" type="curve"/>
      <point x="685" y="21" type="line"/>
      <point x="433" y="21" type="line"/>
      <point x="433" y="210" type="line"/>
      <point x="467" y="180"/>
      <point x="511" y="155"/>
    </contour>
  </outline>
</glyph>
<glyph name="J" format="1">
  <advance width="675"/>
  <unicode hex="004A"/>
  <outline>
    <contour>
      <point x="307" y="623" type="line"/>
      <point x="296" y="623"/>
      <point x="289" y="627"/>
      <point x="289" y="633" type="curve" smooth="yes"/>
      <point x="289" y="641"/>
      <point x="297" y="644"/>
      <point x="307" y="644" type="curve"/>
      <point x="399" y="645" type="line"/>
      <point x="399" y="661" type="line"/>
      <point x="307" y="662" type="line"/>
      <point x="298" y="662"/>
      <point x="289" y="664"/>
      <point x="289" y="672" type="curve" smooth="yes"/>
      <point x="289" y="680"/>
      <point x="299" y="682"/>
      <point x="307" y="682" type="curve" smooth="yes"/>
      <point x="559" y="682" type="line" smooth="yes"/>
      <point x="580" y="682"/>
      <point x="604" y="668"/>
      <point x="604" y="637" type="curve" smooth="yes"/>
      <point x="604" y="279" type="line" smooth="yes"/>
      <point x="604" y="110"/>
      <point x="489" y="0"/>
      <point x="329" y="0" type="curve" smooth="yes"/>
      <point x="186" y="0"/>
      <point x="41" y="80"/>
      <point x="41" y="259" type="curve" smooth="yes"/>
      <point x="41" y="307" type="line"/>
      <point x="81" y="337"/>
      <point x="108" y="346"/>
      <point x="160" y="346" type="curve" smooth="yes"/>
      <point x="197" y="346"/>
      <point x="238" y="326"/>
      <point x="267" y="293" type="curve"/>
      <point x="252" y="282"/>
      <point x="237" y="269"/>
      <point x="223" y="253" type="curve" smooth="yes"/>
      <point x="191" y="218"/>
      <point x="184" y="212"/>
      <point x="184" y="212" type="curve"/>
      <point x="200" y="198" type="line"/>
      <point x="200" y="198"/>
      <point x="203" y="202"/>
      <point x="238" y="239" type="curve" smooth="yes"/>
      <point x="284" y="289"/>
      <point x="330" y="312"/>
      <point x="382" y="312" type="curve" smooth="yes"/>
      <point x="422" y="312"/>
      <point x="500" y="290"/>
      <point x="517" y="207" type="curve"/>
      <point x="538" y="212" type="line"/>
      <point x="523" y="285"/>
      <point x="467" y="317"/>
      <point x="421" y="328" type="curve"/>
      <point x="421" y="584" type="line"/>
      <point x="307" y="584" type="line" smooth="yes"/>
      <point x="297" y="584"/>
      <point x="292" y="589"/>
      <point x="292" y="594" type="curve" smooth="yes"/>
      <point x="292" y="601"/>
      <point x="299" y="605"/>
      <point x="307" y="605" type="curve"/>
      <point x="399" y="606" type="line"/>
      <point x="399" y="622" type="line"/>
    </contour>
  </outline>
</glyph>
<glyph name="K" format="1">
  <advance width="783"/>
  <unicode hex="004B"/>
  <outline>
    <contour>
      <point x="702" y="73" type="line"/>
      <point x="728" y="73" type="line" smooth="yes"/>
      <point x="736" y="73"/>
      <point x="744" y="70"/>
      <point x="744" y="63" type="curve" smooth="yes"/>
      <point x="744" y="57"/>
      <point x="737" y="55"/>
      <point x="728" y="55" type="curve" smooth="yes"/>
      <point x="702" y="55" type="line"/>
      <point x="702" y="39" type="line"/>
      <point x="729" y="39" type="line" smooth="yes"/>
      <point x="732" y="39"/>
      <point x="744" y="38"/>
      <point x="744" y="30" type="curve" smooth="yes"/>
      <point x="744" y="25"/>
      <point x="742" y="21"/>
      <point x="729" y="21" type="curve" smooth="yes"/>
      <point x="513" y="21" type="line"/>
      <point x="455" y="250" type="line"/>
      <point x="441" y="236"/>
      <point x="411" y="215"/>
      <point x="346" y="215" type="curve" smooth="yes"/>
      <point x="265" y="215"/>
      <point x="198" y="291"/>
      <point x="198" y="364" type="curve" smooth="yes"/>
      <point x="198" y="430"/>
      <point x="232" y="482"/>
      <point x="266" y="504" type="curve"/>
      <point x="254" y="522" type="line"/>
      <point x="216" y="496"/>
      <point x="177" y="438"/>
      <point x="177" y="364" type="curve" smooth="yes"/>
      <point x="177" y="323"/>
      <point x="193" y="280"/>
      <point x="228" y="242" type="curve"/>
      <point x="205" y="219"/>
      <point x="173" y="195"/>
      <point x="121" y="195" type="curve" smooth="yes"/>
      <point x="109" y="195"/>
      <point x="95" y="196"/>
      <point x="81" y="199" type="curve"/>
      <point x="81" y="675" type="line"/>
      <point x="547" y="675" type="line"/>
      <point x="414" y="466" type="line"/>
      <point x="564" y="422" type="line" smooth="yes"/>
      <point x="611" y="408"/>
      <point x="617" y="388"/>
      <point x="635" y="312" type="curve" smooth="yes"/>
      <point x="657" y="218" type="line" smooth="yes"/>
      <point x="662" y="198"/>
      <point x="668" y="144"/>
      <point x="708" y="144" type="curve" smooth="yes"/>
      <point x="728" y="144" type="line" smooth="yes"/>
      <point x="738" y="144"/>
      <point x="744" y="140"/>
      <point x="744" y="134" type="curve" smooth="yes"/>
      <point x="744" y="127"/>
      <point x="734" y="125"/>
      <point x="728" y="125" type="curve" smooth="yes"/>
      <point x="702" y="125" type="line"/>
      <point x="702" y="109" type="line"/>
      <point x="727" y="109" type="line" smooth="yes"/>
      <point x="737" y="109"/>
      <point x="744" y="107"/>
      <point x="744" y="98" type="curve" smooth="yes"/>
      <point x="744" y="90"/>
      <point x="734" y="89"/>
      <point x="728" y="89" type="curve" smooth="yes"/>
      <point x="702" y="89" type="line"/>
    </contour>
    <contour>
      <point x="81" y="178" type="line"/>
      <point x="95" y="175"/>
      <point x="109" y="174"/>
      <point x="121" y="174" type="curve" smooth="yes"/>
      <point x="149" y="174"/>
      <point x="172" y="180"/>
      <point x="191" y="189" type="curve"/>
      <point x="191" y="21" type="line"/>
      <point x="81" y="21" type="line"/>
    </contour>
  </outline>
</glyph>
<glyph name="L" format="1">
  <advance width="740"/>
  <unicode hex="004C"/>
  <outline>
    <contour>
      <point x="685" y="21" type="line"/>
      <point x="266" y="21" type="line"/>
      <point x="226" y="84"/>
      <point x="210" y="147"/>
      <point x="210" y="205" type="curve" smooth="yes"/>
      <point x="210" y="277"/>
      <point x="235" y="341"/>
      <point x="268" y="388" type="curve"/>
      <point x="251" y="400" type="line"/>
      <point x="219" y="355"/>
      <point x="199" y="299"/>
      <point x="192" y="242" type="curve"/>
      <point x="184" y="241"/>
      <point x="175" y="240"/>
      <point x="167" y="240" type="curve" smooth="yes"/>
      <point x="134" y="240"/>
      <point x="102" y="251"/>
      <point x="81" y="270" type="curve"/>
      <point x="81" y="676" type="line"/>
      <point x="361" y="676" type="line"/>
      <point x="361" y="259" type="line"/>
      <point x="685" y="259" type="line"/>
    </contour>
  </outline>
</glyph>
<glyph name="M" format="1">
  <advance width="898"/>
  <unicode hex="004D"/>
  <outline>
    <contour>
      <point x="118" y="61" type="line"/>
      <point x="72" y="61" type="line"/>
      <point x="76" y="83" type="line"/>
      <point x="118" y="83" type="line"/>
      <point x="118" y="99" type="line"/>
      <point x="78" y="99" type="line"/>
      <point x="82" y="122" type="line"/>
      <point x="118" y="122" type="line"/>
      <point x="118" y="138" type="line"/>
      <point x="86" y="138" type="line"/>
      <point x="90" y="160" type="line"/>
      <point x="164" y="160" type="line"/>
      <point x="164" y="593" type="line" smooth="yes"/>
      <point x="164" y="650"/>
      <point x="198" y="704"/>
      <point x="255" y="704" type="curve" smooth="yes"/>
      <point x="285" y="704"/>
      <point x="315" y="686"/>
      <point x="337" y="655" type="curve" smooth="yes"/>
      <point x="386" y="585"/>
      <point x="441" y="504"/>
      <point x="451" y="484" type="curve"/>
      <point x="420" y="453" type="line"/>
      <point x="433" y="438" type="line"/>
      <point x="621" y="621" type="line"/>
      <point x="653" y="604"/>
      <point x="704" y="534"/>
      <point x="704" y="438" type="curve" smooth="yes"/>
      <point x="704" y="374"/>
      <point x="671" y="312"/>
      <point x="638" y="288" type="curve"/>
      <point x="631" y="306"/>
      <point x="621" y="325"/>
      <point x="608" y="345" type="curve"/>
      <point x="591" y="333" type="line"/>
      <point x="630" y="278"/>
      <point x="635" y="223"/>
      <point x="635" y="178" type="curve" smooth="yes"/>
      <point x="635" y="104"/>
      <point x="602" y="25"/>
      <point x="509" y="21" type="curve"/>
      <point x="501" y="21" type="line" smooth="yes"/>
      <point x="395" y="21"/>
      <point x="341" y="129"/>
      <point x="315" y="238" type="curve" smooth="yes"/>
      <point x="266" y="447" type="line"/>
      <point x="248" y="442" type="line"/>
      <point x="295" y="232" type="line" smooth="yes"/>
      <point x="305" y="189"/>
      <point x="321" y="142"/>
      <point x="335" y="114" type="curve"/>
      <point x="335" y="21" type="line"/>
      <point x="65" y="21" type="line"/>
      <point x="70" y="45" type="line"/>
      <point x="118" y="45" type="line"/>
    </contour>
    <contour>
      <point x="806" y="84" type="line"/>
      <point x="839" y="84" type="line" smooth="yes"/>
      <point x="849" y="84"/>
      <point x="854" y="77"/>
      <point x="854" y="73" type="curve" smooth="yes"/>
      <point x="854" y="67"/>
      <point x="849" y="61"/>
      <point x="839" y="61" type="curve" smooth="yes"/>
      <point x="806" y="61" type="line"/>
      <point x="806" y="45" type="line"/>
      <point x="837" y="45" type="line" smooth="yes"/>
      <point x="850" y="45"/>
      <point x="852" y="38"/>
      <point x="852" y="33" type="curve" smooth="yes"/>
      <point x="852" y="24"/>
      <point x="843" y="21"/>
      <point x="838" y="21" type="curve" smooth="yes"/>
      <point x="590" y="21" type="line"/>
      <point x="638" y="54"/>
      <point x="656" y="119"/>
      <point x="656" y="178" type="curve" smooth="yes"/>
      <point x="656" y="205"/>
      <point x="654" y="235"/>
      <point x="645" y="267" type="curve"/>
      <point x="658" y="275"/>
      <point x="679" y="294"/>
      <point x="686" y="312" type="curve"/>
      <point x="748" y="160" type="line"/>
      <point x="837" y="160" type="line" smooth="yes"/>
      <point x="850" y="160"/>
      <point x="853" y="153"/>
      <point x="853" y="149" type="curve" smooth="yes"/>
      <point x="853" y="146"/>
      <point x="851" y="138"/>
      <point x="836" y="138" type="curve" smooth="yes"/>
      <point x="806" y="138" type="line"/>
      <point x="806" y="122" type="line"/>
      <point x="837" y="122" type="line" smooth="yes"/>
      <point x="848" y="122"/>
      <point x="854" y="117"/>
      <point x="854" y="111" type="curve" smooth="yes"/>
      <point x="854" y="104"/>
      <point x="848" y="100"/>
      <point x="837" y="100" type="curve" smooth="yes"/>
      <point x="806" y="100" type="line"/>
    </contour>
  </outline>
</glyph>
<glyph name="O" format="1">
  <advance width="803"/>
  <unicode hex="004F"/>
  <outline>
    <contour>
      <point x="402" y="1" type="curve" smooth="yes"/>
      <point x="289" y="1"/>
      <point x="188" y="60"/>
      <point x="127" y="151" type="curve"/>
      <point x="159" y="320"/>
      <point x="267" y="414"/>
      <point x="432" y="417" type="curve"/>
      <point x="443" y="378"/>
      <point x="462" y="340"/>
      <point x="488" y="307" type="curve"/>
      <point x="504" y="320" type="line"/>
      <point x="464" y="371"/>
      <point x="442" y="436"/>
      <point x="442" y="496" type="curve" smooth="yes"/>
      <point x="442" y="575"/>
      <point x="487" y="634"/>
      <point x="557" y="663" type="curve"/>
      <point x="664" y="605"/>
      <point x="737" y="492"/>
      <point x="737" y="355" type="curve" smooth="yes"/>
      <point x="737" y="160"/>
      <point x="586" y="1"/>
    </contour>
  </outline>
</glyph>
<glyph name="P" format="1">
  <advance width="701"/>
  <unicode hex="0050"/>
  <outline>
    <contour>
      <point x="387" y="242" type="curve" smooth="yes"/>
      <point x="323" y="242"/>
      <point x="234" y="284"/>
      <point x="227" y="350" type="curve"/>
      <point x="263" y="522" type="line"/>
      <point x="378" y="522" type="line" smooth="yes"/>
      <point x="409" y="522"/>
      <point x="416" y="522"/>
      <point x="416" y="491" type="curve" smooth="yes"/>
      <point x="416" y="361" type="line"/>
      <point x="437" y="361" type="line"/>
      <point x="437" y="491" type="line" smooth="yes"/>
      <point x="437" y="543"/>
      <point x="408" y="543"/>
      <point x="378" y="543" type="curve" smooth="yes"/>
      <point x="267" y="543" type="line"/>
      <point x="285" y="626" type="line"/>
      <point x="265" y="631" type="line"/>
      <point x="159" y="131" type="line"/>
      <point x="273" y="131" type="line" smooth="yes"/>
      <point x="281" y="131"/>
      <point x="290" y="127"/>
      <point x="290" y="118" type="curve" smooth="yes"/>
      <point x="290" y="112"/>
      <point x="287" y="105"/>
      <point x="274" y="105" type="curve" smooth="yes"/>
      <point x="180" y="105" type="line"/>
      <point x="180" y="89" type="line"/>
      <point x="273" y="89" type="line" smooth="yes"/>
      <point x="281" y="89"/>
      <point x="290" y="84"/>
      <point x="290" y="76" type="curve" smooth="yes"/>
      <point x="290" y="68"/>
      <point x="283" y="64"/>
      <point x="274" y="64" type="curve" smooth="yes"/>
      <point x="180" y="64" type="line"/>
      <point x="180" y="48" type="line"/>
      <point x="273" y="48" type="line" smooth="yes"/>
      <point x="283" y="48"/>
      <point x="290" y="42"/>
      <point x="290" y="34" type="curve" smooth="yes"/>
      <point x="290" y="24"/>
      <point x="279" y="22"/>
      <point x="274" y="22" type="curve" smooth="yes"/>
      <point x="81" y="22" type="line"/>
      <point x="81" y="608" type="line" smooth="yes"/>
      <point x="81" y="652"/>
      <point x="105" y="678"/>
      <point x="144" y="678" type="curve" smooth="yes"/>
      <point x="403" y="678" type="line" smooth="yes"/>
      <point x="596" y="678"/>
      <point x="632" y="531"/>
      <point x="632" y="466" type="curve" smooth="yes"/>
      <point x="619" y="318"/>
      <point x="525" y="242"/>
    </contour>
  </outline>
</glyph>
<glyph name="Q" format="1">
  <advance width="791"/>
  <unicode hex="0051"/>
  <outline>
    <contour>
      <point x="681" y="-50" type="curve" smooth="yes"/>
      <point x="681" y="-54"/>
      <point x="675" y="-59"/>
      <point x="667" y="-57" type="curve" smooth="yes"/>
      <point x="453" y="-1" type="line" smooth="yes"/>
      <point x="418" y="8"/>
      <point x="400" y="28"/>
      <point x="400" y="56" type="curve" smooth="yes"/>
      <point x="400" y="66"/>
      <point x="402" y="76"/>
      <point x="406" y="88" type="curve" smooth="yes"/>
      <point x="539" y="457" type="line"/>
      <point x="519" y="464" type="line"/>
      <point x="518" y="460"/>
      <point x="409" y="148"/>
      <point x="385" y="89" type="curve" smooth="yes"/>
      <point x="381" y="80"/>
      <point x="379" y="72"/>
      <point x="377" y="64" type="curve"/>
      <point x="370" y="60"/>
      <point x="349" y="52"/>
      <point x="305" y="52" type="curve" smooth="yes"/>
      <point x="153" y="52"/>
      <point x="58" y="184"/>
      <point x="58" y="312" type="curve" smooth="yes"/>
      <point x="58" y="423"/>
      <point x="131" y="504"/>
      <point x="253" y="531" type="curve" smooth="yes"/>
      <point x="574" y="602" type="line" smooth="yes"/>
      <point x="610" y="610"/>
      <point x="640" y="606"/>
      <point x="661" y="587" type="curve" smooth="yes"/>
      <point x="679" y="570"/>
      <point x="692" y="544"/>
      <point x="688" y="510" type="curve" smooth="yes"/>
      <point x="643" y="94" type="line"/>
      <point x="694" y="79" type="line" smooth="yes"/>
      <point x="705" y="76"/>
      <point x="715" y="71"/>
      <point x="715" y="65" type="curve" smooth="yes"/>
      <point x="715" y="55"/>
      <point x="701" y="55"/>
      <point x="693" y="57" type="curve" smooth="yes" name="hr01"/>
      <point x="671" y="62" type="line"/>
      <point x="667" y="46" type="line"/>
      <point x="689" y="41" type="line" smooth="yes"/>
      <point x="695" y="39"/>
      <point x="705" y="34"/>
      <point x="705" y="27" type="curve" smooth="yes"/>
      <point x="705" y="17"/>
      <point x="692" y="15"/>
      <point x="686" y="17" type="curve" smooth="yes"/>
      <point x="662" y="23" type="line"/>
      <point x="657" y="5" type="line"/>
      <point x="680" y="0" type="line" smooth="yes"/>
      <point x="686" y="-2"/>
      <point x="695" y="-6"/>
      <point x="695" y="-13" type="curve" smooth="yes"/>
      <point x="695" y="-22"/>
      <point x="682" y="-23"/>
      <point x="677" y="-22" type="curve" smooth="yes"/>
      <point x="652" y="-15" type="line"/>
      <point x="647" y="-32" type="line"/>
      <point x="672" y="-39" type="line" smooth="yes"/>
      <point x="680" y="-41"/>
      <point x="681" y="-46"/>
    </contour>
  </outline>
</glyph>
<glyph name="R" format="1">
  <advance width="809"/>
  <unicode hex="0052"/>
  <outline>
    <contour>
      <point x="491" y="227" type="line"/>
      <point x="421" y="231" type="line" smooth="yes"/>
      <point x="335" y="235"/>
      <point x="294" y="305"/>
      <point x="294" y="365" type="curve" smooth="yes"/>
      <point x="294" y="453"/>
      <point x="342" y="500"/>
      <point x="342" y="500" type="curve"/>
      <point x="327" y="514" type="line"/>
      <point x="325" y="512"/>
      <point x="273" y="457"/>
      <point x="273" y="365" type="curve" smooth="yes"/>
      <point x="273" y="343"/>
      <point x="277" y="326"/>
      <point x="282" y="312" type="curve"/>
      <point x="276" y="311"/>
      <point x="270" y="309"/>
      <point x="262" y="309" type="curve" smooth="yes"/>
      <point x="241" y="309"/>
      <point x="218" y="314"/>
      <point x="209" y="320" type="curve"/>
      <point x="199" y="301" type="line"/>
      <point x="213" y="293"/>
      <point x="238" y="290"/>
      <point x="259" y="290" type="curve" smooth="yes"/>
      <point x="272" y="290"/>
      <point x="280" y="292"/>
      <point x="288" y="292" type="curve"/>
      <point x="295" y="278"/>
      <point x="311" y="259"/>
      <point x="323" y="247" type="curve"/>
      <point x="323" y="21" type="line"/>
      <point x="91" y="21" type="line"/>
      <point x="91" y="338" type="line" smooth="yes"/>
      <point x="91" y="491"/>
      <point x="242" y="601"/>
      <point x="332" y="665" type="curve" smooth="yes"/>
      <point x="348" y="676" type="line"/>
      <point x="464" y="676" type="line" smooth="yes"/>
      <point x="574" y="676"/>
      <point x="658" y="603"/>
      <point x="658" y="506" type="curve" smooth="yes"/>
      <point x="658" y="440"/>
      <point x="634" y="402"/>
      <point x="618" y="384" type="curve"/>
      <point x="604" y="406"/>
      <point x="585" y="415"/>
      <point x="551" y="420" type="curve" smooth="yes"/>
      <point x="465" y="433" type="line"/>
      <point x="462" y="412" type="line"/>
      <point x="547" y="399" type="line" smooth="yes"/>
      <point x="604" y="390"/>
      <point x="608" y="379"/>
      <point x="637" y="248" type="curve" smooth="yes"/>
      <point x="639" y="239" type="line" smooth="yes"/>
      <point x="645" y="213"/>
      <point x="654" y="156"/>
      <point x="695" y="156" type="curve" smooth="yes"/>
      <point x="743" y="156" type="line" smooth="yes"/>
      <point x="753" y="156"/>
      <point x="759" y="153"/>
      <point x="759" y="145" type="curve" smooth="yes"/>
      <point x="759" y="137"/>
      <point x="749" y="135"/>
      <point x="743" y="135" type="curve" smooth="yes"/>
      <point x="715" y="135" type="line"/>
      <point x="715" y="119" type="line"/>
      <point x="743" y="119" type="line" smooth="yes"/>
      <point x="753" y="119"/>
      <point x="759" y="113"/>
      <point x="759" y="108" type="curve" smooth="yes"/>
      <point x="759" y="102"/>
      <point x="752" y="96"/>
      <point x="743" y="96" type="curve" smooth="yes"/>
      <point x="715" y="96" type="line"/>
      <point x="715" y="80" type="line"/>
      <point x="744" y="80" type="line" smooth="yes"/>
      <point x="752" y="80"/>
      <point x="759" y="77"/>
      <point x="759" y="69" type="curve" smooth="yes"/>
      <point x="759" y="62"/>
      <point x="753" y="58"/>
      <point x="744" y="58" type="curve" smooth="yes"/>
      <point x="715" y="58" type="line"/>
      <point x="715" y="43" type="line"/>
      <point x="743" y="43" type="line" smooth="yes"/>
      <point x="750" y="43"/>
      <point x="760" y="41"/>
      <point x="760" y="32" type="curve" smooth="yes"/>
      <point x="760" y="24"/>
      <point x="751" y="21"/>
      <point x="744" y="21" type="curve" smooth="yes"/>
      <point x="485" y="21" type="line"/>
      <point x="437" y="208" type="line"/>
      <point x="491" y="206" type="line"/>
    </contour>
  </outline>
</glyph>
<glyph name="T" format="1">
  <advance width="810"/>
  <unicode hex="0054"/>
  <outline>
    <contour>
      <point x="573" y="478" type="curve" smooth="yes"/>
      <point x="581" y="478"/>
      <point x="588" y="481"/>
      <point x="594" y="486" type="curve"/>
      <point x="600" y="480"/>
      <point x="607" y="477"/>
      <point x="616" y="477" type="curve" smooth="yes"/>
      <point x="625" y="477"/>
      <point x="634" y="480"/>
      <point x="640" y="487" type="curve"/>
      <point x="646" y="481"/>
      <point x="654" y="478"/>
      <point x="662" y="478" type="curve" smooth="yes"/>
      <point x="671" y="478"/>
      <point x="679" y="482"/>
      <point x="685" y="489" type="curve" smooth="yes"/>
      <point x="691" y="496"/>
      <point x="695" y="506"/>
      <point x="695" y="518" type="curve" smooth="yes"/>
      <point x="695" y="587" type="line" smooth="yes"/>
      <point x="695" y="611"/>
      <point x="685" y="649"/>
      <point x="662" y="675" type="curve"/>
      <point x="751" y="675" type="line"/>
      <point x="751" y="407" type="line"/>
      <point x="569" y="407" type="line"/>
      <point x="556" y="430"/>
      <point x="530" y="449"/>
      <point x="480" y="449" type="curve"/>
      <point x="480" y="428" type="line"/>
      <point x="533" y="428"/>
      <point x="558" y="406"/>
      <point x="558" y="360" type="curve" smooth="yes"/>
      <point x="558" y="21" type="line"/>
      <point x="404" y="21" type="line"/>
      <point x="401" y="41"/>
      <point x="394" y="92"/>
      <point x="394" y="146" type="curve" smooth="yes"/>
      <point x="394" y="176"/>
      <point x="397" y="208"/>
      <point x="403" y="236" type="curve"/>
      <point x="418" y="233"/>
      <point x="432" y="231"/>
      <point x="444" y="231" type="curve"/>
      <point x="444" y="252" type="line"/>
      <point x="386" y="252"/>
      <point x="277" y="287"/>
      <point x="277" y="417" type="curve" smooth="yes"/>
      <point x="277" y="514"/>
      <point x="350" y="549"/>
      <point x="358" y="553" type="curve"/>
      <point x="351" y="572" type="line"/>
      <point x="350" y="572"/>
      <point x="288" y="545"/>
      <point x="264" y="474" type="curve"/>
      <point x="135" y="528"/>
      <point x="46" y="592"/>
      <point x="46" y="631" type="curve" smooth="yes"/>
      <point x="46" y="693"/>
      <point x="124" y="694"/>
      <point x="163" y="696" type="curve" smooth="yes"/>
      <point x="205" y="698"/>
      <point x="254" y="700"/>
      <point x="528" y="700" type="curve" smooth="yes"/>
      <point x="573" y="700"/>
      <point x="609" y="694"/>
      <point x="632" y="676" type="curve" smooth="yes"/>
      <point x="661" y="652"/>
      <point x="673" y="611"/>
      <point x="673" y="587" type="curve" smooth="yes"/>
      <point x="673" y="517" type="line" smooth="yes"/>
      <point x="673" y="509"/>
      <point x="670" y="499"/>
      <point x="662" y="499" type="curve" smooth="yes"/>
      <point x="654" y="499"/>
      <point x="648" y="505"/>
      <point x="648" y="516" type="curve" smooth="yes"/>
      <point x="648" y="593" type="line"/>
      <point x="632" y="593" type="line"/>
      <point x="632" y="516" type="line" smooth="yes"/>
      <point x="632" y="505"/>
      <point x="626" y="498"/>
      <point x="618" y="498" type="curve" smooth="yes"/>
      <point x="607" y="498"/>
      <point x="603" y="509"/>
      <point x="603" y="515" type="curve" smooth="yes"/>
      <point x="603" y="593" type="line"/>
      <point x="587" y="593" type="line"/>
      <point x="587" y="515" type="line" smooth="yes"/>
      <point x="587" y="506"/>
      <point x="581" y="499"/>
      <point x="571" y="499" type="curve" smooth="yes"/>
      <point x="565" y="499"/>
      <point x="559" y="504"/>
      <point x="559" y="515" type="curve" smooth="yes" name="hr01"/>
      <point x="559" y="587" type="line"/>
      <point x="548" y="587" type="line" smooth="yes"/>
      <point x="492" y="587"/>
      <point x="464" y="609"/>
      <point x="464" y="651" type="curve"/>
      <point x="443" y="651" type="line"/>
      <point x="443" y="599"/>
      <point x="476" y="569"/>
      <point x="538" y="566" type="curve"/>
      <point x="538" y="517" type="line" smooth="yes"/>
      <point x="538" y="493"/>
      <point x="556" y="478"/>
    </contour>
  </outline>
</glyph>
<glyph name="U" format="1">
  <advance width="763"/>
  <unicode hex="0055"/>
  <outline>
    <contour>
      <point x="651" y="679" type="line"/>
      <point x="651" y="663" type="line"/>
      <point x="688" y="663" type="line" smooth="yes"/>
      <point x="697" y="663"/>
      <point x="704" y="658"/>
      <point x="704" y="652" type="curve" smooth="yes"/>
      <point x="704" y="645"/>
      <point x="700" y="640"/>
      <point x="688" y="640" type="curve" smooth="yes"/>
      <point x="651" y="640" type="line"/>
      <point x="651" y="624" type="line"/>
      <point x="687" y="624" type="line" smooth="yes"/>
      <point x="702" y="624"/>
      <point x="704" y="618"/>
      <point x="704" y="613" type="curve" smooth="yes"/>
      <point x="704" y="605"/>
      <point x="694" y="602"/>
      <point x="687" y="602" type="curve" smooth="yes"/>
      <point x="651" y="602" type="line"/>
      <point x="651" y="586" type="line"/>
      <point x="688" y="586" type="line" smooth="yes"/>
      <point x="700" y="586"/>
      <point x="704" y="581"/>
      <point x="704" y="575" type="curve" smooth="yes"/>
      <point x="704" y="568"/>
      <point x="697" y="564"/>
      <point x="688" y="564" type="curve" smooth="yes"/>
      <point x="651" y="564" type="line"/>
      <point x="651" y="548" type="line"/>
      <point x="671" y="547" type="line"/>
      <point x="671" y="352" type="line" smooth="yes"/>
      <point x="671" y="130"/>
      <point x="562" y="2"/>
      <point x="371" y="2" type="curve" smooth="yes"/>
      <point x="153" y="2"/>
      <point x="81" y="142"/>
      <point x="81" y="262" type="curve" smooth="yes"/>
      <point x="81" y="373"/>
      <point x="138" y="493"/>
      <point x="273" y="493" type="curve" smooth="yes" name="hr02"/>
      <point x="333" y="493"/>
      <point x="367" y="474"/>
      <point x="376" y="468" type="curve"/>
      <point x="363" y="459"/>
      <point x="352" y="449"/>
      <point x="342" y="437" type="curve" smooth="yes"/>
      <point x="319" y="408"/>
      <point x="306" y="368"/>
      <point x="306" y="327" type="curve" smooth="yes"/>
      <point x="306" y="245"/>
      <point x="368" y="199"/>
      <point x="371" y="197" type="curve"/>
      <point x="383" y="214" type="line"/>
      <point x="383" y="215"/>
      <point x="327" y="256"/>
      <point x="327" y="327" type="curve" smooth="yes"/>
      <point x="327" y="380"/>
      <point x="356" y="471"/>
      <point x="466" y="471" type="curve" smooth="yes"/>
      <point x="568" y="471" type="line"/>
      <point x="568" y="492" type="line"/>
      <point x="466" y="492" type="line" smooth="yes"/>
      <point x="440" y="492"/>
      <point x="417" y="488"/>
      <point x="397" y="479" type="curve"/>
      <point x="397" y="659" type="line" smooth="yes"/>
      <point x="397" y="685"/>
      <point x="404" y="701"/>
      <point x="441" y="701" type="curve" smooth="yes"/>
      <point x="687" y="701" type="line" smooth="yes"/>
      <point x="698" y="701"/>
      <point x="704" y="697"/>
      <point x="704" y="691" type="curve" smooth="yes"/>
      <point x="704" y="685"/>
      <point x="700" y="679"/>
      <point x="688" y="679" type="curve" smooth="yes"/>
    </contour>
  </outline>
</glyph>
<glyph name="V" format="1">
  <advance width="734"/>
  <unicode hex="0056"/>
  <outline>
    <contour>
      <point x="657" y="606" type="line"/>
      <point x="683" y="606" type="line" smooth="yes"/>
      <point x="689" y="606"/>
      <point x="695" y="602"/>
      <point x="695" y="596" type="curve" smooth="yes" name="hr03"/>
      <point x="695" y="589"/>
      <point x="688" y="586"/>
      <point x="683" y="586" type="curve" smooth="yes"/>
      <point x="657" y="586" type="line" name="hr04"/>
      <point x="657" y="570" type="line"/>
      <point x="683" y="570" type="line" smooth="yes"/>
      <point x="692" y="570"/>
      <point x="695" y="564"/>
      <point x="695" y="560" type="curve" smooth="yes" name="hr05"/>
      <point x="695" y="555"/>
      <point x="691" y="549"/>
      <point x="683" y="549" type="curve" smooth="yes"/>
      <point x="641" y="549" type="line"/>
      <point x="372" y="-1" type="line"/>
      <point x="148" y="457" type="line"/>
      <point x="160" y="500"/>
      <point x="210" y="569"/>
      <point x="285" y="569" type="curve" smooth="yes" name="hr06"/>
      <point x="347" y="569"/>
      <point x="371" y="550"/>
      <point x="388" y="535" type="curve"/>
      <point x="388" y="292" type="line"/>
      <point x="409" y="292" type="line"/>
      <point x="409" y="629" type="line" smooth="yes"/>
      <point x="409" y="661"/>
      <point x="425" y="677"/>
      <point x="455" y="677" type="curve" smooth="yes"/>
      <point x="683" y="677" type="line" smooth="yes"/>
      <point x="690" y="677"/>
      <point x="695" y="674"/>
      <point x="695" y="668" type="curve" smooth="yes" name="hr07"/>
      <point x="695" y="661"/>
      <point x="688" y="658"/>
      <point x="683" y="658" type="curve" smooth="yes"/>
      <point x="657" y="658" type="line" name="hr08"/>
      <point x="657" y="642" type="line"/>
      <point x="683" y="642" type="line" smooth="yes"/>
      <point x="692" y="642"/>
      <point x="695" y="637"/>
      <point x="695" y="632" type="curve" smooth="yes" name="hr09"/>
      <point x="695" y="627"/>
      <point x="691" y="622"/>
      <point x="683" y="622" type="curve" smooth="yes"/>
      <point x="657" y="622" type="line" name="hr10"/>
    </contour>
  </outline>
</glyph>
<glyph name="W" format="1">
  <advance width="919"/>
  <unicode hex="0057"/>
  <outline>
    <contour>
      <point x="276" y="541" type="curve"/>
      <point x="275" y="547"/>
      <point x="275" y="552"/>
      <point x="275" y="558" type="curve" smooth="yes"/>
      <point x="275" y="623"/>
      <point x="331" y="672"/>
      <point x="377" y="675" type="curve" name="hr04"/>
      <point x="691" y="675" type="line"/>
      <point x="691" y="490" type="line"/>
      <point x="757" y="387" type="line"/>
      <point x="622" y="8" type="line"/>
      <point x="514" y="172" type="line"/>
      <point x="589" y="180"/>
      <point x="661" y="258"/>
      <point x="665" y="263" type="curve"/>
      <point x="650" y="277" type="line"/>
      <point x="601" y="231"/>
      <point x="556" y="191"/>
      <point x="479" y="191" type="curve" smooth="yes"/>
      <point x="393" y="191"/>
      <point x="331" y="267"/>
      <point x="331" y="364" type="curve" smooth="yes"/>
      <point x="331" y="440"/>
      <point x="381" y="487"/>
      <point x="415" y="512" type="curve" smooth="yes"/>
      <point x="434" y="526" type="line"/>
      <point x="421" y="543" type="line"/>
      <point x="402" y="529" type="line" smooth="yes"/>
      <point x="376" y="509"/>
      <point x="339" y="480"/>
      <point x="322" y="437" type="curve"/>
      <point x="306" y="448" type="line"/>
      <point x="311" y="459"/>
      <point x="314" y="470"/>
      <point x="314" y="481" type="curve" smooth="yes" name="hr05"/>
      <point x="314" y="511"/>
      <point x="295" y="535"/>
    </contour>
    <contour>
      <point x="143" y="637" type="line"/>
      <point x="159" y="641" type="line"/>
      <point x="151" y="675" type="line" smooth="yes"/>
      <point x="148" y="685"/>
      <point x="150" y="697"/>
      <point x="156" y="697" type="curve" smooth="yes"/>
      <point x="162" y="697"/>
      <point x="169" y="694"/>
      <point x="176" y="675" type="curve" smooth="yes"/>
      <point x="228" y="523" type="line"/>
      <point x="236" y="526"/>
      <point x="243" y="527"/>
      <point x="247" y="527" type="curve" smooth="yes"/>
      <point x="278" y="527"/>
      <point x="292" y="504"/>
      <point x="292" y="480" type="curve" smooth="yes"/>
      <point x="292" y="470"/>
      <point x="289" y="459"/>
      <point x="279" y="441" type="curve"/>
      <point x="316" y="417" type="line"/>
      <point x="313" y="402"/>
      <point x="311" y="385"/>
      <point x="311" y="367" type="curve" smooth="yes" name="hr06"/>
      <point x="311" y="283"/>
      <point x="353" y="206"/>
      <point x="424" y="181" type="curve"/>
      <point x="364" y="53" type="line" smooth="yes"/>
      <point x="345" y="19"/>
      <point x="319" y="-1"/>
      <point x="293" y="-1" type="curve" smooth="yes"/>
      <point x="256" y="-1"/>
      <point x="226" y="30"/>
      <point x="216" y="64" type="curve" smooth="yes"/>
      <point x="35" y="645" type="line" smooth="yes"/>
      <point x="32" y="655"/>
      <point x="35" y="665"/>
      <point x="40" y="665" type="curve" smooth="yes"/>
      <point x="46" y="665"/>
      <point x="51" y="660"/>
      <point x="54" y="651" type="curve" smooth="yes"/>
      <point x="64" y="619" type="line"/>
      <point x="80" y="623" type="line"/>
      <point x="73" y="655" type="line"/>
      <point x="70" y="665"/>
      <point x="69" y="679"/>
      <point x="78" y="679" type="curve" smooth="yes" name="hr07"/>
      <point x="86" y="679"/>
      <point x="90" y="669"/>
      <point x="93" y="660" type="curve" smooth="yes"/>
      <point x="102" y="629" type="line"/>
      <point x="118" y="633" type="line"/>
      <point x="111" y="665" type="line" smooth="yes" name="hr08"/>
      <point x="109" y="673"/>
      <point x="109" y="688"/>
      <point x="116" y="688" type="curve" smooth="yes"/>
      <point x="122" y="688"/>
      <point x="129" y="685"/>
      <point x="133" y="670" type="curve" smooth="yes"/>
    </contour>
  </outline>
</glyph>
<glyph name="Y" format="1">
  <advance width="793"/>
  <unicode hex="0059"/>
  <outline>
    <contour>
      <point x="247" y="644" type="line"/>
      <point x="274" y="674" type="line" smooth="yes"/>
      <point x="280" y="680"/>
      <point x="284" y="682"/>
      <point x="288" y="682" type="curve" smooth="yes"/>
      <point x="292" y="682"/>
      <point x="297" y="679"/>
      <point x="297" y="674" type="curve" smooth="yes"/>
      <point x="297" y="671"/>
      <point x="295" y="668"/>
      <point x="292" y="664" type="curve" smooth="yes"/>
      <point x="261" y="624" type="line"/>
      <point x="396" y="486" type="line"/>
      <point x="556" y="638" type="line"/>
      <point x="589" y="614"/>
      <point x="690" y="522"/>
      <point x="690" y="422" type="curve" smooth="yes"/>
      <point x="690" y="301"/>
      <point x="604" y="253"/>
      <point x="524" y="253" type="curve" smooth="yes"/>
      <point x="492" y="253"/>
      <point x="427" y="269"/>
      <point x="364" y="306" type="curve"/>
      <point x="353" y="288" type="line"/>
      <point x="410" y="255"/>
      <point x="480" y="231"/>
      <point x="535" y="231" type="curve"/>
      <point x="524" y="186"/>
      <point x="486" y="146"/>
      <point x="439" y="146" type="curve" smooth="yes"/>
      <point x="416" y="146"/>
      <point x="391" y="155"/>
      <point x="365" y="174" type="curve"/>
      <point x="352" y="158" type="line"/>
      <point x="386" y="133"/>
      <point x="415" y="125"/>
      <point x="440" y="125" type="curve" smooth="yes"/>
      <point x="451" y="125" type="line"/>
      <point x="451" y="20" type="line"/>
      <point x="215" y="20" type="line" smooth="yes"/>
      <point x="206" y="20"/>
      <point x="203" y="24"/>
      <point x="203" y="30" type="curve" smooth="yes"/>
      <point x="203" y="35"/>
      <point x="208" y="39"/>
      <point x="215" y="39" type="curve" smooth="yes"/>
      <point x="257" y="39" type="line"/>
      <point x="257" y="55" type="line"/>
      <point x="214" y="55" type="line" smooth="yes"/>
      <point x="208" y="55"/>
      <point x="203" y="60"/>
      <point x="203" y="66" type="curve" smooth="yes"/>
      <point x="203" y="72"/>
      <point x="210" y="76"/>
      <point x="214" y="76" type="curve" smooth="yes"/>
      <point x="257" y="76" type="line"/>
      <point x="257" y="92" type="line"/>
      <point x="215" y="92" type="line" smooth="yes"/>
      <point x="207" y="92"/>
      <point x="203" y="96"/>
      <point x="203" y="102" type="curve" smooth="yes"/>
      <point x="203" y="110"/>
      <point x="211" y="111"/>
      <point x="215" y="111" type="curve" smooth="yes"/>
      <point x="261" y="111" type="line"/>
      <point x="261" y="294" type="line"/>
      <point x="40" y="517" type="line"/>
      <point x="214" y="715" type="line" smooth="yes"/>
      <point x="218" y="719"/>
      <point x="222" y="721"/>
      <point x="226" y="721" type="curve" smooth="yes"/>
      <point x="230" y="721"/>
      <point x="234" y="718"/>
      <point x="234" y="713" type="curve" smooth="yes"/>
      <point x="234" y="710"/>
      <point x="233" y="707"/>
      <point x="231" y="704" type="curve" smooth="yes"/>
      <point x="209" y="678" type="line"/>
      <point x="220" y="668" type="line"/>
      <point x="245" y="696" type="line" smooth="yes"/>
      <point x="251" y="703"/>
      <point x="254" y="703"/>
      <point x="258" y="703" type="curve" smooth="yes"/>
      <point x="263" y="703"/>
      <point x="267" y="698"/>
      <point x="267" y="694" type="curve" smooth="yes"/>
      <point x="267" y="691"/>
      <point x="266" y="688"/>
      <point x="263" y="685" type="curve" smooth="yes"/>
      <point x="236" y="654" type="line"/>
    </contour>
  </outline>
</glyph>
<glyph name="Z" format="1">
  <advance width="739"/>
  <unicode hex="005A"/>
  <outline>
    <contour>
      <point x="167" y="465" type="line" smooth="yes"/>
      <point x="167" y="458"/>
      <point x="162" y="453"/>
      <point x="156" y="453" type="curve" smooth="yes"/>
      <point x="150" y="453"/>
      <point x="145" y="457"/>
      <point x="145" y="466" type="curve" smooth="yes"/>
      <point x="145" y="590" type="line"/>
      <point x="129" y="590" type="line"/>
      <point x="129" y="466" type="line" smooth="yes"/>
      <point x="129" y="457"/>
      <point x="122" y="453"/>
      <point x="118" y="453" type="curve" smooth="yes"/>
      <point x="111" y="453"/>
      <point x="107" y="459"/>
      <point x="107" y="466" type="curve" smooth="yes"/>
      <point x="107" y="590" type="line"/>
      <point x="91" y="590" type="line"/>
      <point x="91" y="467" type="line" smooth="yes"/>
      <point x="91" y="459"/>
      <point x="88" y="453"/>
      <point x="80" y="453" type="curve" smooth="yes"/>
      <point x="74" y="453"/>
      <point x="71" y="460"/>
      <point x="71" y="467" type="curve" smooth="yes"/>
      <point x="71" y="676" type="line"/>
      <point x="592" y="676" type="line" smooth="yes"/>
      <point x="621" y="676"/>
      <point x="641" y="667"/>
      <point x="652" y="649" type="curve" smooth="yes"/>
      <point x="657" y="640"/>
      <point x="660" y="629"/>
      <point x="660" y="616" type="curve" smooth="yes"/>
      <point x="660" y="599"/>
      <point x="655" y="579"/>
      <point x="644" y="561" type="curve" smooth="yes"/>
      <point x="566" y="437" type="line"/>
      <point x="552" y="518"/>
      <point x="530" y="566"/>
      <point x="511" y="585" type="curve" smooth="yes"/>
      <point x="490" y="606"/>
      <point x="467" y="617"/>
      <point x="444" y="617" type="curve" smooth="yes"/>
      <point x="408" y="617"/>
      <point x="382" y="590"/>
      <point x="366" y="565" type="curve"/>
      <point x="167" y="565" type="line"/>
    </contour>
    <contour>
      <point x="375" y="328" type="line"/>
      <point x="301" y="22" type="line"/>
      <point x="80" y="22" type="line" smooth="yes"/>
      <point x="69" y="22"/>
      <point x="64" y="26"/>
      <point x="64" y="29" type="curve" smooth="yes"/>
      <point x="64" y="35"/>
      <point x="69" y="39"/>
      <point x="78" y="39" type="curve" smooth="yes"/>
      <point x="109" y="39" type="line"/>
      <point x="109" y="55" type="line"/>
      <point x="79" y="55" type="line" smooth="yes"/>
      <point x="68" y="55"/>
      <point x="61" y="60"/>
      <point x="61" y="64" type="curve" smooth="yes"/>
      <point x="61" y="67"/>
      <point x="65" y="74"/>
      <point x="79" y="74" type="curve" smooth="yes"/>
      <point x="109" y="74" type="line"/>
      <point x="109" y="90" type="line"/>
      <point x="78" y="90" type="line" smooth="yes"/>
      <point x="63" y="90"/>
      <point x="59" y="96"/>
      <point x="59" y="99" type="curve" smooth="yes"/>
      <point x="59" y="103"/>
      <point x="62" y="109"/>
      <point x="78" y="109" type="curve" smooth="yes"/>
      <point x="109" y="109" type="line"/>
      <point x="109" y="125" type="line"/>
      <point x="78" y="125" type="line" smooth="yes"/>
      <point x="64" y="125"/>
      <point x="61" y="132"/>
      <point x="61" y="135" type="curve" smooth="yes"/>
      <point x="61" y="138"/>
      <point x="66" y="143"/>
      <point x="80" y="143" type="curve" smooth="yes"/>
      <point x="155" y="143" type="line"/>
      <point x="380" y="546" type="line" smooth="yes"/>
      <point x="395" y="573"/>
      <point x="416" y="596"/>
      <point x="444" y="596" type="curve" smooth="yes"/>
      <point x="462" y="596"/>
      <point x="479" y="587"/>
      <point x="496" y="570" type="curve" smooth="yes"/>
      <point x="518" y="548"/>
      <point x="556" y="454"/>
      <point x="556" y="295" type="curve" smooth="yes"/>
      <point x="556" y="219"/>
      <point x="547" y="127"/>
      <point x="524" y="22" type="curve"/>
      <point x="323" y="22" type="line"/>
      <point x="395" y="323" type="line"/>
    </contour>
  </outline>
</glyph>
<glyph name="bracketleft" format="1">
  <advance width="480"/>
  <unicode hex="005B"/>
  <outline>
    <contour>
      <point x="142" y="723" type="line" name="hr00"/>
      <point x="448" y="723" type="line"/>
      <point x="448" y="680" type="line"/>
      <point x="184" y="680" type="line"/>
      <point x="184" y="-20" type="line"/>
      <point x="448" y="-20" type="line"/>
      <point x="448" y="-63" type="line"/>
      <point x="142" y="-63" type="line"/>
    </contour>
  </outline>
</glyph>
<glyph name="underscore" format="1">
  <advance width="542"/>
  <unicode hex="005F"/>
  <outline>
    <contour>
      <point x="532" y="-21" type="line"/>
      <point x="532" y="-64" type="line"/>
      <point x="10" y="-64" type="line"/>
      <point x="10" y="-21" type="line"/>
    </contour>
  </outline>
</glyph>
<glyph name="grave" format="1">
  <advance width="451"/>
  <unicode hex="0060"/>
  <outline>
    <contour>
      <point x="368" y="814" type="line" name="hr00"/>
      <point x="358" y="767" type="line"/>
      <point x="82" y="831" type="line"/>
      <point x="92" y="876" type="line"/>
    </contour>
  </outline>
</glyph>
<glyph name="a" format="1">
  <advance width="803"/>
  <unicode hex="0061"/>
  <outline>
    <contour>
      <point x="101" y="41" type="line"/>
      <point x="101" y="57" type="line"/>
      <point x="57" y="57" type="line" smooth="yes"/>
      <point x="44" y="57"/>
      <point x="41" y="62"/>
      <point x="41" y="66" type="curve" smooth="yes"/>
      <point x="41" y="74"/>
      <point x="49" y="78"/>
      <point x="57" y="78" type="curve" smooth="yes"/>
      <point x="101" y="78" type="line"/>
      <point x="101" y="94" type="line"/>
      <point x="58" y="94" type="line" smooth="yes"/>
      <point x="48" y="94"/>
      <point x="42" y="97"/>
      <point x="42" y="104" type="curve" smooth="yes"/>
      <point x="42" y="112"/>
      <point x="53" y="114"/>
      <point x="58" y="114" type="curve" smooth="yes"/>
      <point x="101" y="114" type="line"/>
      <point x="101" y="130" type="line"/>
      <point x="57" y="130" type="line" smooth="yes"/>
      <point x="47" y="130"/>
      <point x="42" y="135"/>
      <point x="42" y="140" type="curve" smooth="yes"/>
      <point x="42" y="145"/>
      <point x="46" y="148"/>
      <point x="58" y="148" type="curve" smooth="yes"/>
      <point x="119" y="148" type="line"/>
      <point x="147" y="257" type="line" smooth="yes"/>
      <point x="182" y="391"/>
      <point x="236" y="395"/>
      <point x="400" y="395" type="curve" smooth="yes"/>
      <point x="507" y="395" type="line"/>
      <point x="465" y="473" type="line"/>
      <point x="488" y="486"/>
      <point x="500" y="508"/>
      <point x="500" y="532" type="curve" smooth="yes"/>
      <point x="500" y="542"/>
      <point x="498" y="552"/>
      <point x="494" y="562" type="curve"/>
      <point x="475" y="554" type="line"/>
      <point x="478" y="548"/>
      <point x="479" y="540"/>
      <point x="479" y="533" type="curve" smooth="yes"/>
      <point x="479" y="512"/>
      <point x="467" y="494"/>
      <point x="435" y="485" type="curve"/>
      <point x="472" y="415" type="line"/>
      <point x="441" y="415" type="line"/>
      <point x="405" y="484" type="line"/>
      <point x="391" y="476" type="line"/>
      <point x="423" y="415" type="line"/>
      <point x="394" y="415" type="line"/>
      <point x="359" y="482" type="line"/>
      <point x="345" y="474" type="line"/>
      <point x="375" y="415" type="line"/>
      <point x="349" y="415" type="line"/>
      <point x="298" y="511" type="line"/>
      <point x="308" y="534"/>
      <point x="356" y="638"/>
      <point x="380" y="675" type="curve" smooth="yes"/>
      <point x="393" y="695"/>
      <point x="409" y="705"/>
      <point x="426" y="705" type="curve"/>
      <point x="446" y="704"/>
      <point x="466" y="687"/>
      <point x="484" y="654" type="curve" smooth="yes"/>
      <point x="610" y="418" type="line" smooth="yes"/>
      <point x="620" y="400"/>
      <point x="624" y="381"/>
      <point x="624" y="362" type="curve" smooth="yes"/>
      <point x="624" y="325"/>
      <point x="608" y="289"/>
      <point x="580" y="261" type="curve"/>
      <point x="595" y="246" type="line"/>
      <point x="614" y="265"/>
      <point x="628" y="289"/>
      <point x="636" y="314" type="curve"/>
      <point x="643" y="315"/>
      <point x="651" y="316"/>
      <point x="658" y="316" type="curve" smooth="yes"/>
      <point x="698" y="316"/>
      <point x="732" y="287"/>
      <point x="732" y="248" type="curve" smooth="yes"/>
      <point x="732" y="13" type="line" smooth="yes"/>
      <point x="732" y="1"/>
      <point x="727" y="-3"/>
      <point x="721" y="-3" type="curve" smooth="yes"/>
      <point x="714" y="-3"/>
      <point x="707" y="2"/>
      <point x="707" y="13" type="curve" smooth="yes"/>
      <point x="707" y="74" type="line"/>
      <point x="691" y="74" type="line"/>
      <point x="691" y="13" type="line" smooth="yes"/>
      <point x="691" y="3"/>
      <point x="688" y="-3"/>
      <point x="680" y="-3" type="curve" smooth="yes"/>
      <point x="674" y="-3"/>
      <point x="667" y="1"/>
      <point x="667" y="13" type="curve" smooth="yes"/>
      <point x="667" y="74" type="line"/>
      <point x="651" y="74" type="line"/>
      <point x="651" y="13" type="line" smooth="yes"/>
      <point x="651" y="1"/>
      <point x="645" y="-3"/>
      <point x="639" y="-3" type="curve" smooth="yes"/>
      <point x="632" y="-3"/>
      <point x="627" y="1"/>
      <point x="627" y="13" type="curve" smooth="yes"/>
      <point x="627" y="74" type="line"/>
      <point x="611" y="74" type="line"/>
      <point x="611" y="13" type="line" smooth="yes"/>
      <point x="611" y="-2"/>
      <point x="602" y="-3"/>
      <point x="599" y="-3" type="curve" smooth="yes"/>
      <point x="591" y="-3"/>
      <point x="589" y="4"/>
      <point x="589" y="13" type="curve" smooth="yes"/>
      <point x="589" y="76" type="line"/>
      <point x="641" y="149" type="line" name="hr05"/>
      <point x="624" y="161" type="line"/>
      <point x="554" y="63" type="line" smooth="yes"/>
      <point x="539" y="42"/>
      <point x="518" y="37"/>
      <point x="501" y="37" type="curve" smooth="yes" name="hr06"/>
      <point x="457" y="37"/>
      <point x="439" y="72"/>
      <point x="428" y="95" type="curve" smooth="yes"/>
      <point x="317" y="328" type="line"/>
      <point x="298" y="318" type="line"/>
      <point x="322" y="273" type="line"/>
      <point x="322" y="21" type="line"/>
      <point x="56" y="21" type="line" smooth="yes"/>
      <point x="44" y="21"/>
      <point x="41" y="26"/>
      <point x="41" y="29" type="curve" smooth="yes"/>
      <point x="41" y="33"/>
      <point x="44" y="40"/>
      <point x="56" y="40" type="curve"/>
    </contour>
  </outline>
</glyph>
<glyph name="c" format="1">
  <advance width="635"/>
  <unicode hex="0063"/>
  <outline>
    <contour>
      <point x="368" y="298" type="line" smooth="yes"/>
      <point x="413" y="298"/>
      <point x="463" y="307"/>
      <point x="497" y="326" type="curve"/>
      <point x="497" y="16" type="line"/>
      <point x="294" y="19"/>
      <point x="58" y="73"/>
      <point x="58" y="310" type="curve" smooth="yes"/>
      <point x="58" y="466"/>
      <point x="202" y="549"/>
      <point x="299" y="566" type="curve"/>
      <point x="296" y="587" type="line"/>
      <point x="213" y="571"/>
      <point x="135" y="527"/>
      <point x="87" y="462" type="curve"/>
      <point x="118" y="620"/>
      <point x="238" y="680"/>
      <point x="389" y="680" type="curve" smooth="yes"/>
      <point x="482" y="680"/>
      <point x="581" y="620"/>
      <point x="581" y="508" type="curve" smooth="yes"/>
      <point x="581" y="333"/>
      <point x="418" y="320"/>
      <point x="368" y="320" type="curve" smooth="yes"/>
      <point x="300" y="320" type="line"/>
      <point x="300" y="298" type="line"/>
    </contour>
  </outline>
</glyph>
<glyph name="d" format="1">
  <advance width="735"/>
  <unicode hex="0064"/>
  <outline>
    <contour>
      <point x="450" y="242" type="line"/>
      <point x="361" y="279" type="line" smooth="yes"/>
      <point x="300" y="304"/>
      <point x="232" y="332"/>
      <point x="232" y="432" type="curve" smooth="yes"/>
      <point x="232" y="450"/>
      <point x="234" y="469"/>
      <point x="239" y="485" type="curve"/>
      <point x="280" y="498"/>
      <point x="304" y="531"/>
      <point x="310" y="568" type="curve"/>
      <point x="331" y="577"/>
      <point x="355" y="581"/>
      <point x="383" y="581" type="curve" smooth="yes"/>
      <point x="392" y="581"/>
      <point x="402" y="581"/>
      <point x="412" y="580" type="curve"/>
      <point x="414" y="600" type="line"/>
      <point x="403" y="601"/>
      <point x="392" y="602"/>
      <point x="382" y="602" type="curve" smooth="yes"/>
      <point x="355" y="602"/>
      <point x="332" y="598"/>
      <point x="310" y="589" type="curve"/>
      <point x="307" y="612"/>
      <point x="298" y="634"/>
      <point x="288" y="644" type="curve"/>
      <point x="273" y="629" type="line"/>
      <point x="280" y="622"/>
      <point x="290" y="599"/>
      <point x="290" y="577" type="curve" smooth="yes"/>
      <point x="290" y="535"/>
      <point x="250" y="504"/>
      <point x="213" y="504" type="curve" smooth="yes"/>
      <point x="203" y="504" type="line"/>
      <point x="203" y="359" type="line" smooth="yes"/>
      <point x="203" y="348"/>
      <point x="198" y="344"/>
      <point x="192" y="344" type="curve" smooth="yes"/>
      <point x="185" y="344"/>
      <point x="179" y="349"/>
      <point x="179" y="359" type="curve"/>
      <point x="177" y="511" type="line"/>
      <point x="161" y="511" type="line"/>
      <point x="161" y="359" type="line" smooth="yes"/>
      <point x="161" y="349"/>
      <point x="156" y="343"/>
      <point x="148" y="343" type="curve" smooth="yes"/>
      <point x="141" y="343"/>
      <point x="135" y="349"/>
      <point x="135" y="359" type="curve" smooth="yes"/>
      <point x="135" y="511" type="line"/>
      <point x="119" y="511" type="line"/>
      <point x="118" y="359" type="line"/>
      <point x="118" y="348"/>
      <point x="113" y="343"/>
      <point x="106" y="343" type="curve" smooth="yes"/>
      <point x="98" y="343"/>
      <point x="96" y="352"/>
      <point x="96" y="359" type="curve" smooth="yes"/>
      <point x="96" y="616" type="line" smooth="yes"/>
      <point x="96" y="654"/>
      <point x="118" y="676"/>
      <point x="156" y="676" type="curve" smooth="yes"/>
      <point x="340" y="676" type="line" smooth="yes"/>
      <point x="569" y="676"/>
      <point x="674" y="508"/>
      <point x="674" y="350" type="curve" smooth="yes"/>
      <point x="674" y="126"/>
      <point x="502" y="4"/>
      <point x="318" y="4" type="curve" smooth="yes"/>
      <point x="192" y="4"/>
      <point x="96" y="69"/>
      <point x="96" y="184" type="curve" smooth="yes"/>
      <point x="96" y="267"/>
      <point x="151" y="327"/>
      <point x="234" y="327" type="curve" smooth="yes" name="hr01"/>
      <point x="245" y="327" type="line"/>
      <point x="274" y="292"/>
      <point x="317" y="277"/>
      <point x="353" y="261" type="curve" smooth="yes"/>
      <point x="442" y="223" type="line"/>
    </contour>
  </outline>
</glyph>
<glyph name="e" format="1">
  <advance width="677"/>
  <unicode hex="0065"/>
  <outline>
    <contour>
      <point x="179" y="397" type="line"/>
      <point x="105" y="414"/>
      <point x="71" y="479"/>
      <point x="71" y="532" type="curve" smooth="yes"/>
      <point x="71" y="606"/>
      <point x="131" y="682"/>
      <point x="232" y="682" type="curve" smooth="yes"/>
      <point x="503" y="682" type="line" smooth="yes"/>
      <point x="545" y="682"/>
      <point x="616" y="672"/>
      <point x="616" y="602" type="curve" smooth="yes"/>
      <point x="616" y="557"/>
      <point x="540" y="510"/>
      <point x="509" y="488" type="curve"/>
      <point x="477" y="500"/>
      <point x="438" y="507"/>
      <point x="390" y="512" type="curve"/>
      <point x="387" y="491" type="line"/>
      <point x="470" y="481"/>
      <point x="581" y="463"/>
      <point x="581" y="362" type="curve" smooth="yes"/>
      <point x="581" y="282"/>
      <point x="501" y="242"/>
      <point x="431" y="238" type="curve"/>
      <point x="419" y="245"/>
      <point x="405" y="249"/>
      <point x="391" y="250" type="curve" name="hr02"/>
      <point x="367" y="250"/>
      <point x="344" y="241"/>
      <point x="332" y="222" type="curve"/>
      <point x="238" y="222" type="line"/>
      <point x="238" y="201" type="line"/>
      <point x="322" y="201" type="line"/>
      <point x="314" y="177"/>
      <point x="314" y="160"/>
      <point x="314" y="159" type="curve"/>
      <point x="335" y="159" type="line"/>
      <point x="337" y="193"/>
      <point x="351" y="229"/>
      <point x="388" y="229" type="curve" smooth="yes"/>
      <point x="409" y="229"/>
      <point x="431" y="219"/>
      <point x="438" y="201" type="curve" smooth="yes"/>
      <point x="440" y="196" type="line"/>
      <point x="591" y="152" type="line" smooth="yes"/>
      <point x="603" y="149"/>
      <point x="605" y="145"/>
      <point x="605" y="141" type="curve" smooth="yes"/>
      <point x="605" y="138"/>
      <point x="602" y="134"/>
      <point x="591" y="134" type="curve"/>
      <point x="551" y="133" type="line"/>
      <point x="551" y="117" type="line"/>
      <point x="591" y="116" type="line"/>
      <point x="600" y="116"/>
      <point x="606" y="113"/>
      <point x="606" y="106" type="curve" smooth="yes"/>
      <point x="606" y="100"/>
      <point x="602" y="96"/>
      <point x="591" y="96" type="curve"/>
      <point x="551" y="95" type="line"/>
      <point x="551" y="79" type="line"/>
      <point x="591" y="77" type="line"/>
      <point x="598" y="77"/>
      <point x="606" y="74"/>
      <point x="606" y="68" type="curve" smooth="yes"/>
      <point x="606" y="63"/>
      <point x="603" y="58"/>
      <point x="591" y="58" type="curve"/>
      <point x="551" y="57" type="line"/>
      <point x="551" y="41" type="line"/>
      <point x="592" y="40" type="line"/>
      <point x="603" y="40"/>
      <point x="606" y="35"/>
      <point x="606" y="29" type="curve" smooth="yes"/>
      <point x="606" y="23"/>
      <point x="601" y="20"/>
      <point x="591" y="20" type="curve" smooth="yes"/>
      <point x="196" y="20" type="line" smooth="yes"/>
      <point x="132" y="20"/>
      <point x="101" y="63"/>
      <point x="105" y="115" type="curve" smooth="yes"/>
      <point x="125" y="397" type="line"/>
      <point x="140" y="388"/>
      <point x="156" y="381"/>
      <point x="174" y="377" type="curve"/>
    </contour>
  </outline>
</glyph>
<glyph name="f" format="1">
  <advance width="668"/>
  <unicode hex="0066"/>
  <outline>
    <contour>
      <point x="93" y="52" type="line"/>
      <point x="63" y="53" type="line"/>
      <point x="54" y="53"/>
      <point x="49" y="56"/>
      <point x="49" y="61" type="curve" smooth="yes"/>
      <point x="49" y="66"/>
      <point x="54" y="70"/>
      <point x="63" y="70" type="curve"/>
      <point x="93" y="71" type="line"/>
      <point x="93" y="87" type="line"/>
      <point x="62" y="88" type="line"/>
      <point x="55" y="88"/>
      <point x="49" y="91"/>
      <point x="49" y="97" type="curve" smooth="yes"/>
      <point x="49" y="103"/>
      <point x="54" y="106"/>
      <point x="63" y="106" type="curve"/>
      <point x="93" y="107" type="line"/>
      <point x="93" y="123" type="line"/>
      <point x="63" y="124" type="line"/>
      <point x="53" y="124"/>
      <point x="49" y="128"/>
      <point x="49" y="132" type="curve" smooth="yes"/>
      <point x="49" y="137"/>
      <point x="53" y="141"/>
      <point x="63" y="141" type="curve" smooth="yes"/>
      <point x="139" y="141" type="line"/>
      <point x="139" y="162" type="line"/>
      <point x="78" y="162" type="line"/>
      <point x="78" y="676" type="line"/>
      <point x="496" y="676" type="line" smooth="yes"/>
      <point x="553" y="676"/>
      <point x="590" y="636"/>
      <point x="599" y="596" type="curve" smooth="yes"/>
      <point x="608" y="559"/>
      <point x="596" y="504"/>
      <point x="534" y="473" type="curve" smooth="yes"/>
      <point x="511" y="462"/>
      <point x="461" y="454"/>
      <point x="449" y="447" type="curve"/>
      <point x="430" y="518"/>
      <point x="376" y="551"/>
      <point x="327" y="580" type="curve"/>
      <point x="317" y="562" type="line"/>
      <point x="372" y="529"/>
      <point x="433" y="493"/>
      <point x="433" y="398" type="curve" smooth="yes"/>
      <point x="433" y="339"/>
      <point x="368" y="272"/>
      <point x="286" y="272" type="curve" smooth="yes"/>
      <point x="204" y="272"/>
      <point x="177" y="299"/>
      <point x="177" y="299" type="curve"/>
      <point x="161" y="285" type="line"/>
      <point x="163" y="284"/>
      <point x="193" y="252"/>
      <point x="280" y="251" type="curve"/>
      <point x="301" y="251" type="line" smooth="yes"/>
      <point x="306" y="251"/>
      <point x="311" y="252"/>
      <point x="317" y="253" type="curve"/>
      <point x="317" y="63" type="line" smooth="yes"/>
      <point x="317" y="25"/>
      <point x="302" y="17"/>
      <point x="277" y="17" type="curve" smooth="yes"/>
      <point x="63" y="17" type="line" smooth="yes"/>
      <point x="54" y="17"/>
      <point x="50" y="22"/>
      <point x="50" y="26" type="curve" smooth="yes"/>
      <point x="50" y="31"/>
      <point x="57" y="35"/>
      <point x="62" y="35" type="curve"/>
      <point x="93" y="36" type="line"/>
    </contour>
  </outline>
</glyph>
<glyph name="g" format="1">
  <advance width="810"/>
  <unicode hex="0067"/>
  <outline>
    <contour>
      <point x="448" y="181" type="line"/>
      <point x="448" y="182"/>
      <point x="448" y="222"/>
      <point x="427" y="272" type="curve" smooth="yes"/>
      <point x="423" y="280"/>
      <point x="420" y="288"/>
      <point x="415" y="295" type="curve"/>
      <point x="429" y="360"/>
      <point x="484" y="450"/>
      <point x="590" y="450" type="curve" smooth="yes"/>
      <point x="710" y="450"/>
      <point x="753" y="353"/>
      <point x="753" y="263" type="curve" smooth="yes"/>
      <point x="753" y="117"/>
      <point x="629" y="0"/>
      <point x="439" y="0" type="curve" smooth="yes"/>
      <point x="241" y="0"/>
      <point x="105" y="147"/>
      <point x="105" y="348" type="curve" smooth="yes" name="hr02"/>
      <point x="105" y="523"/>
      <point x="224" y="664"/>
      <point x="394" y="691" type="curve" smooth="yes"/>
      <point x="422" y="695"/>
      <point x="448" y="698"/>
      <point x="472" y="698" type="curve" smooth="yes"/>
      <point x="546" y="698"/>
      <point x="601" y="676"/>
      <point x="622" y="637" type="curve" smooth="yes"/>
      <point x="630" y="623"/>
      <point x="637" y="607"/>
      <point x="637" y="586" type="curve" smooth="yes"/>
      <point x="637" y="559"/>
      <point x="626" y="523"/>
      <point x="589" y="471" type="curve"/>
      <point x="491" y="470"/>
      <point x="422" y="397"/>
      <point x="399" y="318" type="curve"/>
      <point x="380" y="341"/>
      <point x="356" y="359"/>
      <point x="330" y="371" type="curve"/>
      <point x="332" y="470"/>
      <point x="382" y="563"/>
      <point x="414" y="582" type="curve"/>
      <point x="404" y="600" type="line"/>
      <point x="361" y="575"/>
      <point x="314" y="478"/>
      <point x="309" y="379" type="curve"/>
      <point x="285" y="387"/>
      <point x="259" y="392"/>
      <point x="236" y="392" type="curve"/>
      <point x="236" y="371" type="line"/>
      <point x="283" y="371"/>
      <point x="373" y="349"/>
      <point x="408" y="264" type="curve" smooth="yes"/>
      <point x="427" y="218"/>
      <point x="427" y="181"/>
      <point x="427" y="181" type="curve"/>
    </contour>
    <contour>
      <point x="111" y="27" type="curve" smooth="yes"/>
      <point x="106" y="27"/>
      <point x="102" y="29"/>
      <point x="102" y="43" type="curve" smooth="yes"/>
      <point x="102" y="83" type="line"/>
      <point x="86" y="83" type="line"/>
      <point x="85" y="42" type="line"/>
      <point x="85" y="32"/>
      <point x="81" y="27"/>
      <point x="76" y="27" type="curve" smooth="yes"/>
      <point x="69" y="27"/>
      <point x="66" y="34"/>
      <point x="66" y="45" type="curve" smooth="yes"/>
      <point x="66" y="313" type="line" smooth="yes"/>
      <point x="66" y="348"/>
      <point x="77" y="351"/>
      <point x="84" y="352" type="curve"/>
      <point x="84" y="348" type="line" smooth="yes"/>
      <point x="84" y="243"/>
      <point x="120" y="148"/>
      <point x="186" y="81" type="curve" smooth="yes"/>
      <point x="195" y="71"/>
      <point x="205" y="62"/>
      <point x="215" y="54" type="curve"/>
      <point x="204" y="39" type="line" smooth="yes"/>
      <point x="198" y="31"/>
      <point x="194" y="27"/>
      <point x="187" y="27" type="curve" smooth="yes"/>
      <point x="182" y="27"/>
      <point x="177" y="33"/>
      <point x="177" y="44" type="curve"/>
      <point x="176" y="83" type="line"/>
      <point x="160" y="83" type="line"/>
      <point x="159" y="43" type="line"/>
      <point x="159" y="36"/>
      <point x="158" y="27"/>
      <point x="149" y="27" type="curve" smooth="yes"/>
      <point x="142" y="27"/>
      <point x="139" y="31"/>
      <point x="139" y="43" type="curve"/>
      <point x="138" y="83" type="line"/>
      <point x="122" y="83" type="line"/>
      <point x="121" y="43" type="line"/>
      <point x="121" y="34"/>
      <point x="118" y="27"/>
    </contour>
  </outline>
</glyph>
<glyph name="h" format="1">
  <advance width="815"/>
  <unicode hex="0068"/>
  <outline>
    <contour>
      <point x="389" y="103" type="line"/>
      <point x="389" y="119" type="line"/>
      <point x="344" y="119" type="line" smooth="yes"/>
      <point x="334" y="119"/>
      <point x="327" y="124"/>
      <point x="327" y="131" type="curve" smooth="yes"/>
      <point x="327" y="138"/>
      <point x="336" y="140"/>
      <point x="344" y="140" type="curve" smooth="yes"/>
      <point x="451" y="140" type="line"/>
      <point x="451" y="244" type="line"/>
      <point x="536" y="272"/>
      <point x="593" y="343"/>
      <point x="593" y="432" type="curve"/>
      <point x="572" y="432" type="line"/>
      <point x="572" y="326"/>
      <point x="489" y="253"/>
      <point x="369" y="253" type="curve" smooth="yes"/>
      <point x="306" y="253"/>
      <point x="234" y="290"/>
      <point x="210" y="335" type="curve"/>
      <point x="191" y="325" type="line"/>
      <point x="218" y="275"/>
      <point x="291" y="235"/>
      <point x="360" y="232" type="curve"/>
      <point x="360" y="161" type="line"/>
      <point x="344" y="161" type="line" smooth="yes"/>
      <point x="320" y="161"/>
      <point x="307" y="149"/>
      <point x="307" y="130" type="curve" smooth="yes"/>
      <point x="307" y="125"/>
      <point x="310" y="118"/>
      <point x="315" y="113" type="curve"/>
      <point x="310" y="108"/>
      <point x="307" y="101"/>
      <point x="307" y="93" type="curve" smooth="yes"/>
      <point x="307" y="86"/>
      <point x="311" y="78"/>
      <point x="315" y="74" type="curve"/>
      <point x="312" y="72"/>
      <point x="307" y="67"/>
      <point x="307" y="58" type="curve" smooth="yes"/>
      <point x="307" y="49"/>
      <point x="310" y="45"/>
      <point x="315" y="39" type="curve"/>
      <point x="309" y="36"/>
      <point x="305" y="27"/>
      <point x="305" y="21" type="curve" name="hr03"/>
      <point x="82" y="21" type="line"/>
      <point x="82" y="92"/>
      <point x="81" y="492"/>
      <point x="81" y="565" type="curve" smooth="yes"/>
      <point x="81" y="675"/>
      <point x="173" y="704"/>
      <point x="221" y="704" type="curve" smooth="yes"/>
      <point x="406" y="704" type="line" smooth="yes"/>
      <point x="422" y="704"/>
      <point x="433" y="701"/>
      <point x="433" y="692" type="curve" smooth="yes"/>
      <point x="433" y="684"/>
      <point x="423" y="681"/>
      <point x="410" y="681" type="curve"/>
      <point x="360" y="680" type="line"/>
      <point x="360" y="664" type="line"/>
      <point x="407" y="664" type="line" smooth="yes"/>
      <point x="430" y="664"/>
      <point x="435" y="658"/>
      <point x="435" y="651" type="curve" smooth="yes"/>
      <point x="435" y="644"/>
      <point x="425" y="640"/>
      <point x="414" y="640" type="curve"/>
      <point x="360" y="639" type="line"/>
      <point x="360" y="623" type="line"/>
      <point x="413" y="622" type="line"/>
      <point x="428" y="622"/>
      <point x="435" y="617"/>
      <point x="435" y="609" type="curve" smooth="yes"/>
      <point x="435" y="602"/>
      <point x="428" y="598"/>
      <point x="408" y="598" type="curve" smooth="yes"/>
      <point x="360" y="598" type="line"/>
      <point x="360" y="488" type="line"/>
      <point x="353" y="480"/>
      <point x="346" y="473"/>
      <point x="338" y="466" type="curve"/>
      <point x="353" y="451" type="line"/>
      <point x="401" y="501" type="line" smooth="yes"/>
      <point x="460" y="562"/>
      <point x="507" y="607"/>
      <point x="585" y="607" type="curve" smooth="yes" name="hr04"/>
      <point x="671" y="607"/>
      <point x="712" y="508"/>
      <point x="722" y="423" type="curve" smooth="yes"/>
      <point x="731" y="344"/>
      <point x="754" y="143"/>
      <point x="754" y="86" type="curve" smooth="yes"/>
      <point x="754" y="37"/>
      <point x="743" y="13"/>
      <point x="682" y="13" type="curve" smooth="yes"/>
      <point x="344" y="13" type="line" smooth="yes"/>
      <point x="335" y="13"/>
      <point x="327" y="15"/>
      <point x="327" y="21" type="curve" smooth="yes" name="hr05"/>
      <point x="327" y="25"/>
      <point x="330" y="32"/>
      <point x="344" y="32" type="curve" smooth="yes"/>
      <point x="389" y="32" type="line"/>
      <point x="389" y="48" type="line"/>
      <point x="343" y="48" type="line" smooth="yes"/>
      <point x="332" y="48"/>
      <point x="327" y="53"/>
      <point x="327" y="58" type="curve" smooth="yes"/>
      <point x="327" y="63"/>
      <point x="331" y="68"/>
      <point x="341" y="68" type="curve" smooth="yes"/>
      <point x="389" y="68" type="line"/>
      <point x="389" y="84" type="line"/>
      <point x="342" y="84" type="line" smooth="yes"/>
      <point x="331" y="84"/>
      <point x="327" y="88"/>
      <point x="327" y="93" type="curve" smooth="yes"/>
      <point x="327" y="98"/>
      <point x="331" y="103"/>
      <point x="341" y="103" type="curve" smooth="yes"/>
    </contour>
  </outline>
</glyph>
<glyph name="i" format="1">
  <advance width="494"/>
  <unicode hex="0069"/>
  <outline>
    <contour>
      <point x="91" y="677" type="line"/>
      <point x="371" y="677" type="line"/>
      <point x="371" y="463" type="line"/>
      <point x="374" y="460" type="line" smooth="yes"/>
      <point x="404" y="430"/>
      <point x="423" y="387"/>
      <point x="423" y="339" type="curve" smooth="yes"/>
      <point x="423" y="298"/>
      <point x="409" y="254"/>
      <point x="377" y="213" type="curve"/>
      <point x="336" y="228" type="line"/>
      <point x="329" y="209" type="line"/>
      <point x="371" y="194" type="line"/>
      <point x="371" y="21" type="line"/>
      <point x="292" y="21" type="line"/>
      <point x="292" y="221" type="line"/>
      <point x="321" y="245"/>
      <point x="342" y="282"/>
      <point x="342" y="331" type="curve" smooth="yes"/>
      <point x="342" y="410"/>
      <point x="300" y="452"/>
      <point x="269" y="482" type="curve"/>
      <point x="254" y="467" type="line"/>
      <point x="284" y="438"/>
      <point x="321" y="401"/>
      <point x="321" y="331" type="curve" smooth="yes"/>
      <point x="321" y="244"/>
      <point x="242" y="203"/>
      <point x="189" y="203" type="curve" smooth="yes"/>
      <point x="170" y="203"/>
      <point x="154" y="207"/>
      <point x="141" y="211" type="curve"/>
      <point x="133" y="191" type="line"/>
      <point x="148" y="186"/>
      <point x="167" y="182"/>
      <point x="189" y="182" type="curve" smooth="yes"/>
      <point x="214" y="182"/>
      <point x="244" y="190"/>
      <point x="271" y="206" type="curve"/>
      <point x="271" y="21" type="line"/>
      <point x="91" y="21" type="line"/>
    </contour>
  </outline>
</glyph>
<glyph name="k" format="1">
  <advance width="783"/>
  <unicode hex="006B"/>
  <outline>
    <contour>
      <point x="305" y="534" type="line"/>
      <point x="317" y="522"/>
      <point x="334" y="520"/>
      <point x="348" y="520" type="curve" smooth="yes"/>
      <point x="391" y="520"/>
      <point x="430" y="557"/>
      <point x="430" y="598" type="curve" smooth="yes"/>
      <point x="430" y="623"/>
      <point x="417" y="641"/>
      <point x="416" y="642" type="curve"/>
      <point x="399" y="629" type="line"/>
      <point x="400" y="628"/>
      <point x="409" y="616"/>
      <point x="409" y="598" type="curve" smooth="yes"/>
      <point x="409" y="562"/>
      <point x="376" y="542"/>
      <point x="345" y="542" type="curve" smooth="yes"/>
      <point x="331" y="542"/>
      <point x="311" y="549"/>
      <point x="298" y="571" type="curve"/>
      <point x="260" y="484" type="line" smooth="yes"/>
      <point x="254" y="472"/>
      <point x="249" y="468"/>
      <point x="244" y="468" type="curve" smooth="yes"/>
      <point x="239" y="468"/>
      <point x="235" y="471"/>
      <point x="235" y="477" type="curve" smooth="yes"/>
      <point x="235" y="480"/>
      <point x="236" y="484"/>
      <point x="238" y="489" type="curve" smooth="yes"/>
      <point x="273" y="566" type="line"/>
      <point x="258" y="572" type="line"/>
      <point x="223" y="494" type="line" smooth="yes"/>
      <point x="218" y="483"/>
      <point x="214" y="482"/>
      <point x="210" y="482" type="curve" smooth="yes"/>
      <point x="205" y="482"/>
      <point x="201" y="486"/>
      <point x="201" y="491" type="curve" smooth="yes"/>
      <point x="201" y="494"/>
      <point x="203" y="500"/>
      <point x="204" y="502" type="curve" smooth="yes"/>
      <point x="238" y="579" type="line"/>
      <point x="224" y="586" type="line"/>
      <point x="190" y="512" type="line" smooth="yes"/>
      <point x="185" y="501"/>
      <point x="182" y="499"/>
      <point x="176" y="499" type="curve" smooth="yes"/>
      <point x="172" y="499"/>
      <point x="169" y="504"/>
      <point x="169" y="508" type="curve" smooth="yes"/>
      <point x="169" y="513"/>
      <point x="172" y="518"/>
      <point x="173" y="520" type="curve" smooth="yes"/>
      <point x="229" y="660" type="line" smooth="yes"/>
      <point x="240" y="687"/>
      <point x="253" y="689"/>
      <point x="300" y="689" type="curve" smooth="yes"/>
      <point x="654" y="689" type="line" smooth="yes"/>
      <point x="682" y="689"/>
      <point x="704" y="677"/>
      <point x="704" y="650" type="curve" smooth="yes"/>
      <point x="704" y="635"/>
      <point x="699" y="618"/>
      <point x="690" y="605" type="curve" smooth="yes"/>
      <point x="654" y="556"/>
      <point x="569" y="475"/>
      <point x="514" y="436" type="curve"/>
      <point x="499" y="445"/>
      <point x="481" y="450"/>
      <point x="463" y="452" type="curve"/>
      <point x="498" y="557" type="line"/>
      <point x="481" y="564" type="line"/>
      <point x="434" y="431" type="line"/>
      <point x="450" y="431" type="line" smooth="yes"/>
      <point x="514" y="431"/>
      <point x="555" y="386"/>
      <point x="586" y="280" type="curve" smooth="yes"/>
      <point x="617" y="174"/>
      <point x="635" y="150"/>
      <point x="683" y="150" type="curve" smooth="yes"/>
      <point x="725" y="150" type="line" smooth="yes"/>
      <point x="735" y="150"/>
      <point x="741" y="145"/>
      <point x="741" y="140" type="curve" smooth="yes"/>
      <point x="741" y="133"/>
      <point x="729" y="130"/>
      <point x="725" y="130" type="curve" smooth="yes"/>
      <point x="696" y="130" type="line"/>
      <point x="696" y="114" type="line"/>
      <point x="725" y="114" type="line" smooth="yes"/>
      <point x="735" y="114"/>
      <point x="740" y="109"/>
      <point x="740" y="105" type="curve" smooth="yes" name="hr01"/>
      <point x="740" y="97"/>
      <point x="731" y="94"/>
      <point x="726" y="94" type="curve" smooth="yes"/>
      <point x="696" y="94" type="line"/>
      <point x="696" y="78" type="line"/>
      <point x="728" y="78" type="line" smooth="yes"/>
      <point x="736" y="78"/>
      <point x="740" y="73"/>
      <point x="740" y="68" type="curve" smooth="yes"/>
      <point x="740" y="61"/>
      <point x="730" y="58"/>
      <point x="727" y="58" type="curve" smooth="yes"/>
      <point x="696" y="58" type="line"/>
      <point x="696" y="42" type="line"/>
      <point x="728" y="40" type="line"/>
      <point x="733" y="40"/>
      <point x="743" y="38"/>
      <point x="743" y="30" type="curve" smooth="yes"/>
      <point x="743" y="24"/>
      <point x="736" y="21"/>
      <point x="729" y="21" type="curve" smooth="yes"/>
      <point x="469" y="21" type="line"/>
      <point x="399" y="225" type="line"/>
      <point x="421" y="249"/>
      <point x="433" y="282"/>
      <point x="433" y="320" type="curve" smooth="yes"/>
      <point x="436" y="425"/>
      <point x="352" y="449"/>
      <point x="348" y="449" type="curve"/>
      <point x="342" y="429" type="line"/>
      <point x="348" y="428"/>
      <point x="412" y="408"/>
      <point x="412" y="320" type="curve" smooth="yes"/>
      <point x="412" y="225"/>
      <point x="332" y="192"/>
      <point x="257" y="192" type="curve"/>
      <point x="257" y="171" type="line"/>
      <point x="277" y="171"/>
      <point x="296" y="173"/>
      <point x="314" y="177" type="curve"/>
      <point x="314" y="21" type="line"/>
      <point x="91" y="21" type="line"/>
      <point x="91" y="677" type="line"/>
      <point x="214" y="677" type="line"/>
      <point x="212" y="674"/>
      <point x="211" y="671"/>
      <point x="210" y="668" type="curve" smooth="yes"/>
      <point x="153" y="528" type="line" smooth="yes"/>
      <point x="150" y="520"/>
      <point x="148" y="513"/>
      <point x="148" y="507" type="curve" smooth="yes"/>
      <point x="148" y="494"/>
      <point x="156" y="478"/>
      <point x="171" y="478" type="curve" smooth="yes"/>
      <point x="175" y="478"/>
      <point x="178" y="479"/>
      <point x="181" y="480" type="curve"/>
      <point x="182" y="478"/>
      <point x="183" y="475"/>
      <point x="185" y="473" type="curve" smooth="yes"/>
      <point x="190" y="466"/>
      <point x="197" y="462"/>
      <point x="205" y="462" type="curve" smooth="yes" name="hr02"/>
      <point x="208" y="462"/>
      <point x="214" y="462"/>
      <point x="216" y="463" type="curve"/>
      <point x="218" y="457"/>
      <point x="223" y="453"/>
      <point x="228" y="451" type="curve" smooth="yes"/>
      <point x="232" y="449"/>
      <point x="237" y="448"/>
      <point x="241" y="448" type="curve" smooth="yes" name="hr03"/>
      <point x="257" y="448"/>
      <point x="272" y="459"/>
      <point x="278" y="473" type="curve" smooth="yes"/>
    </contour>
  </outline>
</glyph>
<glyph name="o" format="1">
  <advance width="803"/>
  <unicode hex="006F"/>
  <outline>
    <contour>
      <point x="447" y="231" type="line"/>
      <point x="420" y="246"/>
      <point x="392" y="264"/>
      <point x="364" y="284" type="curve" smooth="yes"/>
      <point x="272" y="350"/>
      <point x="268" y="414"/>
      <point x="268" y="456" type="curve"/>
      <point x="269" y="545"/>
      <point x="333" y="610"/>
      <point x="421" y="610" type="curve" smooth="yes"/>
      <point x="467" y="610"/>
      <point x="499" y="588"/>
      <point x="499" y="588" type="curve"/>
      <point x="511" y="606" type="line"/>
      <point x="510" y="607"/>
      <point x="474" y="631"/>
      <point x="421" y="631" type="curve" smooth="yes"/>
      <point x="322" y="631"/>
      <point x="247" y="557"/>
      <point x="246" y="461" type="curve"/>
      <point x="236" y="463"/>
      <point x="223" y="464"/>
      <point x="205" y="464" type="curve" smooth="yes"/>
      <point x="168" y="464"/>
      <point x="119" y="446"/>
      <point x="85" y="404" type="curve"/>
      <point x="103" y="579"/>
      <point x="239" y="704"/>
      <point x="410" y="704" type="curve" smooth="yes"/>
      <point x="590" y="704"/>
      <point x="737" y="553"/>
      <point x="737" y="358" type="curve" smooth="yes"/>
      <point x="737" y="163"/>
      <point x="590" y="4"/>
      <point x="410" y="4" type="curve" smooth="yes"/>
      <point x="317" y="4"/>
      <point x="228" y="37"/>
      <point x="161" y="97" type="curve" smooth="yes"/>
      <point x="102" y="150"/>
      <point x="66" y="219"/>
      <point x="66" y="281" type="curve" smooth="yes"/>
      <point x="66" y="399"/>
      <point x="151" y="443"/>
      <point x="205" y="443" type="curve" smooth="yes"/>
      <point x="223" y="443"/>
      <point x="237" y="442"/>
      <point x="246" y="440" type="curve"/>
      <point x="254" y="326"/>
      <point x="346" y="264"/>
      <point x="437" y="213" type="curve"/>
    </contour>
  </outline>
</glyph>
<glyph name="r" format="1">
  <advance width="809"/>
  <unicode hex="0072"/>
  <outline>
    <contour>
      <point x="146" y="378" type="curve" smooth="yes"/>
      <point x="154" y="378"/>
      <point x="161" y="381"/>
      <point x="166" y="386" type="curve"/>
      <point x="172" y="381"/>
      <point x="179" y="378"/>
      <point x="187" y="378" type="curve" smooth="yes"/>
      <point x="204" y="378"/>
      <point x="220" y="390"/>
      <point x="220" y="411" type="curve" smooth="yes"/>
      <point x="220" y="496" type="line"/>
      <point x="234" y="476"/>
      <point x="262" y="462"/>
      <point x="298" y="462" type="curve" smooth="yes"/>
      <point x="353" y="462"/>
      <point x="399" y="502"/>
      <point x="399" y="560" type="curve" smooth="yes"/>
      <point x="399" y="573"/>
      <point x="396" y="586"/>
      <point x="391" y="599" type="curve"/>
      <point x="371" y="591" type="line"/>
      <point x="376" y="580"/>
      <point x="378" y="570"/>
      <point x="378" y="559" type="curve" smooth="yes"/>
      <point x="378" y="509"/>
      <point x="338" y="483"/>
      <point x="298" y="483" type="curve" smooth="yes"/>
      <point x="252" y="483"/>
      <point x="228" y="509"/>
      <point x="220" y="536" type="curve"/>
      <point x="198" y="536" type="line"/>
      <point x="198" y="411" type="line" smooth="yes"/>
      <point x="198" y="400"/>
      <point x="189" y="399"/>
      <point x="187" y="399" type="curve"/>
      <point x="182" y="399"/>
      <point x="176" y="405"/>
      <point x="176" y="410" type="curve"/>
      <point x="174" y="536" type="line"/>
      <point x="158" y="536" type="line"/>
      <point x="157" y="409" type="line"/>
      <point x="157" y="403"/>
      <point x="151" y="399"/>
      <point x="146" y="399" type="curve"/>
      <point x="145" y="399"/>
      <point x="136" y="400"/>
      <point x="136" y="409" type="curve"/>
      <point x="135" y="536" type="line"/>
      <point x="119" y="536" type="line"/>
      <point x="117" y="407" type="line"/>
      <point x="117" y="399"/>
      <point x="108" y="397"/>
      <point x="106" y="397" type="curve"/>
      <point x="102" y="397"/>
      <point x="96" y="400"/>
      <point x="96" y="409" type="curve" smooth="yes" name="hr04"/>
      <point x="96" y="618" type="line" smooth="yes"/>
      <point x="96" y="669"/>
      <point x="106" y="682"/>
      <point x="175" y="682" type="curve" smooth="yes"/>
      <point x="271" y="682"/>
      <point x="358" y="685"/>
      <point x="445" y="685" type="curve" smooth="yes"/>
      <point x="579" y="685"/>
      <point x="659" y="598"/>
      <point x="659" y="506" type="curve" smooth="yes"/>
      <point x="659" y="436"/>
      <point x="637" y="401"/>
      <point x="622" y="383" type="curve"/>
      <point x="611" y="405"/>
      <point x="589" y="420"/>
      <point x="565" y="427" type="curve" smooth="yes"/>
      <point x="523" y="438"/>
      <point x="511" y="440"/>
      <point x="488" y="445" type="curve"/>
      <point x="483" y="424" type="line"/>
      <point x="506" y="420"/>
      <point x="518" y="420"/>
      <point x="560" y="406" type="curve" smooth="yes"/>
      <point x="613" y="388"/>
      <point x="617" y="326"/>
      <point x="625" y="273" type="curve" smooth="yes"/>
      <point x="630" y="239" type="line" smooth="yes"/>
      <point x="632" y="228"/>
      <point x="642" y="149"/>
      <point x="685" y="149" type="curve" smooth="yes"/>
      <point x="736" y="149" type="line" smooth="yes"/>
      <point x="747" y="149"/>
      <point x="753" y="142"/>
      <point x="753" y="137" type="curve" smooth="yes"/>
      <point x="753" y="132"/>
      <point x="748" y="127"/>
      <point x="740" y="127" type="curve" smooth="yes"/>
      <point x="706" y="127" type="line"/>
      <point x="706" y="111" type="line"/>
      <point x="736" y="111" type="line" smooth="yes"/>
      <point x="747" y="111"/>
      <point x="753" y="105"/>
      <point x="753" y="100" type="curve" smooth="yes"/>
      <point x="753" y="95"/>
      <point x="746" y="90"/>
      <point x="738" y="90" type="curve" smooth="yes"/>
      <point x="706" y="90" type="line"/>
      <point x="706" y="74" type="line"/>
      <point x="739" y="74" type="line" smooth="yes"/>
      <point x="748" y="74"/>
      <point x="753" y="70"/>
      <point x="753" y="65" type="curve" smooth="yes"/>
      <point x="753" y="58"/>
      <point x="744" y="56"/>
      <point x="741" y="56" type="curve" smooth="yes"/>
      <point x="706" y="56" type="line"/>
      <point x="706" y="40" type="line"/>
      <point x="742" y="40" type="line" smooth="yes"/>
      <point x="748" y="40"/>
      <point x="758" y="36"/>
      <point x="758" y="30" type="curve" smooth="yes" name="hr05"/>
      <point x="758" y="27"/>
      <point x="754" y="21"/>
      <point x="747" y="21" type="curve" smooth="yes"/>
      <point x="503" y="21" type="line"/>
      <point x="447" y="176" type="line"/>
      <point x="461" y="181"/>
      <point x="476" y="188"/>
      <point x="491" y="197" type="curve"/>
      <point x="480" y="215" type="line"/>
      <point x="450" y="198"/>
      <point x="417" y="186"/>
      <point x="383" y="186" type="curve" smooth="yes"/>
      <point x="344" y="186"/>
      <point x="314" y="198"/>
      <point x="296" y="211" type="curve" smooth="yes"/>
      <point x="258" y="239"/>
      <point x="234" y="286"/>
      <point x="234" y="324" type="curve" smooth="yes"/>
      <point x="234" y="329"/>
      <point x="234" y="335"/>
      <point x="235" y="339" type="curve"/>
      <point x="215" y="343" type="line"/>
      <point x="214" y="337"/>
      <point x="213" y="329"/>
      <point x="213" y="323" type="curve" smooth="yes"/>
      <point x="213" y="278"/>
      <point x="240" y="225"/>
      <point x="284" y="194" type="curve" smooth="yes"/>
      <point x="297" y="185"/>
      <point x="311" y="177"/>
      <point x="326" y="173" type="curve"/>
      <point x="326" y="21" type="line"/>
      <point x="100" y="21" type="line"/>
      <point x="100" y="376" type="line"/>
      <point x="106" y="376" type="line" smooth="yes"/>
      <point x="114" y="376"/>
      <point x="121" y="379"/>
      <point x="127" y="384" type="curve"/>
      <point x="133" y="380"/>
      <point x="139" y="378"/>
    </contour>
  </outline>
</glyph>
<glyph name="s" format="1">
  <advance width="628"/>
  <unicode hex="0073"/>
  <outline>
    <contour>
      <point x="342" y="126" type="line"/>
      <point x="359" y="139" type="line"/>
      <point x="301" y="215" type="line"/>
      <point x="323" y="227"/>
      <point x="344" y="244"/>
      <point x="359" y="263" type="curve"/>
      <point x="342" y="276" type="line"/>
      <point x="316" y="245"/>
      <point x="281" y="218"/>
      <point x="228" y="218" type="curve" smooth="yes"/>
      <point x="187" y="218"/>
      <point x="105" y="236"/>
      <point x="105" y="346" type="curve" smooth="yes"/>
      <point x="105" y="420"/>
      <point x="151" y="454"/>
      <point x="178" y="472" type="curve" smooth="yes"/>
      <point x="185" y="476"/>
      <point x="190" y="480"/>
      <point x="194" y="483" type="curve"/>
      <point x="182" y="500" type="line"/>
      <point x="152" y="479" type="line"/>
      <point x="142" y="505"/>
      <point x="141" y="529"/>
      <point x="141" y="552" type="curve" smooth="yes"/>
      <point x="141" y="614"/>
      <point x="183" y="704"/>
      <point x="297" y="704" type="curve" smooth="yes"/>
      <point x="399" y="704"/>
      <point x="461" y="625"/>
      <point x="461" y="563" type="curve" smooth="yes"/>
      <point x="461" y="518"/>
      <point x="449" y="489"/>
      <point x="441" y="474" type="curve"/>
      <point x="344" y="577" type="line"/>
      <point x="329" y="562" type="line"/>
      <point x="475" y="405" type="line" smooth="yes"/>
      <point x="502" y="376"/>
      <point x="555" y="312"/>
      <point x="555" y="206" type="curve" smooth="yes"/>
      <point x="555" y="70"/>
      <point x="432" y="0"/>
      <point x="331" y="0" type="curve" smooth="yes"/>
      <point x="221" y="0"/>
      <point x="126" y="55"/>
      <point x="62" y="163" type="curve"/>
      <point x="140" y="221" type="line"/>
      <point x="171" y="200"/>
      <point x="202" y="197"/>
      <point x="230" y="197" type="curve" smooth="yes"/>
      <point x="244" y="197"/>
      <point x="267" y="200"/>
      <point x="283" y="206" type="curve"/>
    </contour>
  </outline>
</glyph>
<glyph name="t" format="1">
  <advance width="810"/>
  <unicode hex="0074"/>
  <outline>
    <contour>
      <point x="246" y="417" type="line"/>
      <point x="61" y="417" type="line"/>
      <point x="61" y="678" type="line"/>
      <point x="749" y="678" type="line"/>
      <point x="749" y="417" type="line"/>
      <point x="571" y="417" type="line"/>
      <point x="571" y="21" type="line"/>
      <point x="407" y="21" type="line"/>
      <point x="404" y="43"/>
      <point x="397" y="105"/>
      <point x="397" y="171" type="curve" smooth="yes"/>
      <point x="397" y="211"/>
      <point x="399" y="253"/>
      <point x="407" y="288" type="curve"/>
      <point x="437" y="272"/>
      <point x="470" y="267"/>
      <point x="494" y="267" type="curve"/>
      <point x="494" y="288" type="line"/>
      <point x="443" y="288"/>
      <point x="346" y="319"/>
      <point x="346" y="434" type="curve" smooth="yes"/>
      <point x="346" y="522"/>
      <point x="416" y="553"/>
      <point x="419" y="554" type="curve"/>
      <point x="411" y="573" type="line"/>
      <point x="407" y="572"/>
      <point x="325" y="536"/>
      <point x="325" y="434" type="curve" smooth="yes"/>
      <point x="325" y="368"/>
      <point x="352" y="327"/>
      <point x="386" y="302" type="curve"/>
      <point x="374" y="296"/>
      <point x="357" y="292"/>
      <point x="340" y="292" type="curve" smooth="yes" name="hr02"/>
      <point x="324" y="292"/>
      <point x="309" y="295"/>
      <point x="297" y="301" type="curve"/>
      <point x="288" y="282" type="line"/>
      <point x="303" y="275"/>
      <point x="322" y="272"/>
      <point x="340" y="272" type="curve" smooth="yes"/>
      <point x="355" y="272"/>
      <point x="371" y="274"/>
      <point x="384" y="279" type="curve"/>
      <point x="378" y="244"/>
      <point x="376" y="204"/>
      <point x="376" y="167" type="curve" smooth="yes"/>
      <point x="376" y="103"/>
      <point x="382" y="44"/>
      <point x="386" y="21" type="curve"/>
      <point x="246" y="21" type="line"/>
    </contour>
  </outline>
</glyph>
<glyph name="u" format="1">
  <advance width="763"/>
  <unicode hex="0075"/>
  <outline>
    <contour>
      <point x="197" y="347" type="curve"/>
      <point x="218" y="354" type="line"/>
      <point x="214" y="364"/>
      <point x="212" y="377"/>
      <point x="212" y="390" type="curve" smooth="yes"/>
      <point x="212" y="415"/>
      <point x="220" y="445"/>
      <point x="238" y="471" type="curve" smooth="yes"/>
      <point x="257" y="497"/>
      <point x="294" y="529"/>
      <point x="364" y="529" type="curve" smooth="yes"/>
      <point x="470" y="529"/>
      <point x="497" y="445"/>
      <point x="498" y="442" type="curve"/>
      <point x="518" y="448" type="line"/>
      <point x="518" y="449"/>
      <point x="494" y="524"/>
      <point x="409" y="545" type="curve"/>
      <point x="409" y="549"/>
      <point x="410" y="560"/>
      <point x="413" y="569" type="curve" smooth="yes"/>
      <point x="432" y="627"/>
      <point x="476" y="661"/>
      <point x="545" y="661" type="curve" smooth="yes" name="hr03"/>
      <point x="682" y="661"/>
      <point x="686" y="525"/>
      <point x="686" y="510" type="curve" smooth="yes"/>
      <point x="686" y="251" type="line" smooth="yes"/>
      <point x="686" y="106"/>
      <point x="554" y="6"/>
      <point x="392" y="6" type="curve" smooth="yes"/>
      <point x="259" y="6"/>
      <point x="117" y="79"/>
      <point x="117" y="285" type="curve" smooth="yes"/>
      <point x="117" y="550" type="line"/>
      <point x="80" y="550" type="line" smooth="yes"/>
      <point x="68" y="550"/>
      <point x="62" y="553"/>
      <point x="62" y="558" type="curve" smooth="yes" name="hr04"/>
      <point x="62" y="564"/>
      <point x="68" y="569"/>
      <point x="81" y="569" type="curve" smooth="yes"/>
      <point x="117" y="569" type="line"/>
      <point x="117" y="585" type="line"/>
      <point x="80" y="585" type="line" smooth="yes"/>
      <point x="67" y="585"/>
      <point x="62" y="589"/>
      <point x="62" y="596" type="curve" smooth="yes"/>
      <point x="62" y="600"/>
      <point x="67" y="606"/>
      <point x="80" y="606" type="curve" smooth="yes"/>
      <point x="117" y="606" type="line"/>
      <point x="117" y="622" type="line"/>
      <point x="81" y="622" type="line" smooth="yes"/>
      <point x="62" y="622"/>
      <point x="62" y="628"/>
      <point x="62" y="633" type="curve" smooth="yes"/>
      <point x="62" y="641"/>
      <point x="73" y="643"/>
      <point x="79" y="643" type="curve" smooth="yes"/>
      <point x="117" y="643" type="line"/>
      <point x="117" y="659" type="line"/>
      <point x="82" y="659" type="line" smooth="yes"/>
      <point x="69" y="659"/>
      <point x="62" y="666"/>
      <point x="62" y="673" type="curve" smooth="yes"/>
      <point x="62" y="680"/>
      <point x="71" y="682"/>
      <point x="82" y="682" type="curve" smooth="yes" name="hr05"/>
      <point x="295" y="682" type="line" smooth="yes"/>
      <point x="331" y="682"/>
      <point x="351" y="666"/>
      <point x="351" y="640" type="curve" smooth="yes"/>
      <point x="351" y="549" type="line"/>
      <point x="280" y="546"/>
      <point x="241" y="512"/>
      <point x="221" y="483" type="curve" smooth="yes"/>
      <point x="201" y="456"/>
      <point x="191" y="421"/>
      <point x="191" y="388" type="curve" smooth="yes"/>
      <point x="191" y="374"/>
      <point x="193" y="360"/>
    </contour>
  </outline>
</glyph>
<glyph name="v" format="1">
  <advance width="735"/>
  <unicode hex="0076"/>
  <outline>
    <contour>
      <point x="110" y="465" type="line"/>
      <point x="51" y="465" type="line" smooth="yes"/>
      <point x="41" y="465"/>
      <point x="38" y="471"/>
      <point x="38" y="474" type="curve" smooth="yes"/>
      <point x="38" y="480"/>
      <point x="44" y="484"/>
      <point x="48" y="484" type="curve" smooth="yes"/>
      <point x="110" y="484" type="line"/>
      <point x="110" y="500" type="line"/>
      <point x="50" y="500" type="line" smooth="yes"/>
      <point x="42" y="500"/>
      <point x="38" y="506"/>
      <point x="38" y="510" type="curve" smooth="yes"/>
      <point x="38" y="516"/>
      <point x="44" y="519"/>
      <point x="51" y="519" type="curve" smooth="yes"/>
      <point x="110" y="519" type="line"/>
      <point x="110" y="535" type="line"/>
      <point x="50" y="535" type="line" smooth="yes"/>
      <point x="40" y="535"/>
      <point x="36" y="542"/>
      <point x="36" y="546" type="curve" smooth="yes"/>
      <point x="36" y="553"/>
      <point x="44" y="555"/>
      <point x="53" y="555" type="curve"/>
      <point x="314" y="550" type="line" smooth="yes"/>
      <point x="343" y="549"/>
      <point x="378" y="549"/>
      <point x="378" y="491" type="curve" smooth="yes"/>
      <point x="378" y="214" type="line"/>
      <point x="399" y="214" type="line"/>
      <point x="399" y="491" type="line" smooth="yes"/>
      <point x="399" y="553"/>
      <point x="374" y="567"/>
      <point x="343" y="569" type="curve"/>
      <point x="344" y="577"/>
      <point x="346" y="587"/>
      <point x="351" y="600" type="curve" smooth="yes"/>
      <point x="374" y="662"/>
      <point x="433" y="692"/>
      <point x="519" y="692" type="curve" smooth="yes"/>
      <point x="638" y="692"/>
      <point x="689" y="607"/>
      <point x="689" y="528" type="curve" smooth="yes"/>
      <point x="689" y="484"/>
      <point x="665" y="421"/>
      <point x="652" y="394" type="curve" smooth="yes"/>
      <point x="573" y="228"/>
      <point x="506" y="106"/>
      <point x="462" y="39" type="curve" smooth="yes"/>
      <point x="443" y="10"/>
      <point x="417" y="-4"/>
      <point x="389" y="-4" type="curve" smooth="yes"/>
      <point x="359" y="-4"/>
      <point x="332" y="23"/>
      <point x="314" y="55" type="curve" smooth="yes"/>
      <point x="107" y="423" type="line"/>
      <point x="104" y="429" type="line"/>
      <point x="53" y="429" type="line" smooth="yes"/>
      <point x="41" y="429"/>
      <point x="37" y="435"/>
      <point x="37" y="439" type="curve" smooth="yes"/>
      <point x="37" y="446"/>
      <point x="44" y="449"/>
      <point x="53" y="449" type="curve" smooth="yes"/>
      <point x="110" y="449" type="line"/>
    </contour>
    <contour>
      <point x="106" y="575" type="curve"/>
      <point x="111" y="623"/>
      <point x="156" y="692"/>
      <point x="264" y="692" type="curve" smooth="yes"/>
      <point x="299" y="692"/>
      <point x="346" y="683"/>
      <point x="374" y="669" type="curve"/>
      <point x="355" y="653"/>
      <point x="340" y="632"/>
      <point x="331" y="607" type="curve" smooth="yes"/>
      <point x="325" y="591"/>
      <point x="323" y="579"/>
      <point x="322" y="570" type="curve"/>
      <point x="231" y="571"/>
      <point x="168" y="572"/>
    </contour>
  </outline>
</glyph>
<glyph name="w" format="1">
  <advance width="919"/>
  <unicode hex="0077"/>
  <outline>
    <contour>
      <point x="683" y="316" type="line"/>
      <point x="545" y="567" type="line"/>
      <point x="574" y="665"/>
      <point x="650" y="691"/>
      <point x="695" y="691" type="curve" smooth="yes"/>
      <point x="784" y="691"/>
      <point x="848" y="620"/>
      <point x="848" y="516" type="curve" smooth="yes"/>
      <point x="848" y="400"/>
      <point x="740" y="111"/>
      <point x="699" y="50" type="curve" smooth="yes"/>
      <point x="680" y="21"/>
      <point x="653" y="5"/>
      <point x="625" y="5" type="curve" smooth="yes"/>
      <point x="596" y="5"/>
      <point x="566" y="21"/>
      <point x="548" y="50" type="curve" smooth="yes"/>
      <point x="508" y="112"/>
      <point x="473" y="171"/>
      <point x="467" y="182" type="curve"/>
      <point x="516" y="318" type="line"/>
      <point x="497" y="326" type="line"/>
      <point x="441" y="173" type="line"/>
      <point x="342" y="180" type="line"/>
      <point x="415" y="435" type="line" smooth="yes"/>
      <point x="423" y="463"/>
      <point x="427" y="490"/>
      <point x="427" y="516" type="curve" smooth="yes"/>
      <point x="427" y="539"/>
      <point x="424" y="561"/>
      <point x="418" y="581" type="curve"/>
      <point x="468" y="664" type="line"/>
      <point x="665" y="306" type="line"/>
    </contour>
    <contour>
      <point x="448" y="77" type="line" smooth="yes"/>
      <point x="459" y="76"/>
      <point x="460" y="70"/>
      <point x="460" y="66" type="curve" smooth="yes"/>
      <point x="460" y="60"/>
      <point x="453" y="57"/>
      <point x="444" y="57" type="curve"/>
      <point x="414" y="58" type="line"/>
      <point x="414" y="42" type="line"/>
      <point x="440" y="41" type="line"/>
      <point x="451" y="41"/>
      <point x="457" y="35"/>
      <point x="457" y="30" type="curve" smooth="yes"/>
      <point x="457" y="23"/>
      <point x="447" y="21"/>
      <point x="443" y="21" type="curve" smooth="yes"/>
      <point x="191" y="21" type="line" smooth="yes"/>
      <point x="154" y="21"/>
      <point x="126" y="32"/>
      <point x="126" y="68" type="curve" smooth="yes"/>
      <point x="126" y="116"/>
      <point x="204" y="350"/>
      <point x="268" y="555" type="curve"/>
      <point x="248" y="562" type="line"/>
      <point x="239" y="538"/>
      <point x="191" y="368"/>
      <point x="153" y="252" type="curve"/>
      <point x="90" y="369"/>
      <point x="71" y="453"/>
      <point x="71" y="522" type="curve" smooth="yes"/>
      <point x="71" y="605"/>
      <point x="120" y="698"/>
      <point x="228" y="698" type="curve" smooth="yes"/>
      <point x="289" y="698"/>
      <point x="341" y="670"/>
      <point x="373" y="627" type="curve" smooth="yes"/>
      <point x="396" y="597"/>
      <point x="407" y="559"/>
      <point x="407" y="518" type="curve" smooth="yes"/>
      <point x="407" y="494"/>
      <point x="403" y="468"/>
      <point x="395" y="441" type="curve" smooth="yes"/>
      <point x="311" y="161" type="line"/>
      <point x="450" y="151" type="line" smooth="yes"/>
      <point x="462" y="150"/>
      <point x="466" y="145"/>
      <point x="466" y="140" type="curve" smooth="yes"/>
      <point x="466" y="134"/>
      <point x="458" y="130"/>
      <point x="449" y="131" type="curve" smooth="yes"/>
      <point x="414" y="134" type="line"/>
      <point x="414" y="117" type="line"/>
      <point x="452" y="114" type="line"/>
      <point x="458" y="114"/>
      <point x="463" y="109"/>
      <point x="463" y="104" type="curve" smooth="yes"/>
      <point x="463" y="98"/>
      <point x="457" y="93"/>
      <point x="451" y="93" type="curve"/>
      <point x="414" y="95" type="line"/>
      <point x="414" y="79" type="line"/>
    </contour>
  </outline>
</glyph>
<glyph name="x" format="1">
  <advance width="861"/>
  <unicode hex="0078"/>
  <outline>
    <contour>
      <point x="114" y="78" type="line"/>
      <point x="114" y="94" type="line"/>
      <point x="73" y="94" type="line" smooth="yes"/>
      <point x="63" y="94"/>
      <point x="56" y="99"/>
      <point x="56" y="104" type="curve" smooth="yes"/>
      <point x="56" y="108"/>
      <point x="62" y="115"/>
      <point x="74" y="115" type="curve" smooth="yes"/>
      <point x="114" y="115" type="line"/>
      <point x="114" y="131" type="line"/>
      <point x="74" y="131" type="line" smooth="yes"/>
      <point x="61" y="131"/>
      <point x="56" y="138"/>
      <point x="56" y="141" type="curve" smooth="yes"/>
      <point x="56" y="144"/>
      <point x="61" y="149"/>
      <point x="73" y="149" type="curve" smooth="yes"/>
      <point x="130" y="149" type="line"/>
      <point x="132" y="157"/>
      <point x="153" y="218"/>
      <point x="165" y="265" type="curve" smooth="yes"/>
      <point x="191" y="368"/>
      <point x="226" y="388"/>
      <point x="295" y="400" type="curve" smooth="yes"/>
      <point x="312" y="403"/>
      <point x="337" y="403"/>
      <point x="356" y="403" type="curve"/>
      <point x="356" y="423" type="line"/>
      <point x="319" y="423"/>
      <point x="306" y="423"/>
      <point x="292" y="421" type="curve" smooth="yes"/>
      <point x="257" y="416"/>
      <point x="231" y="407"/>
      <point x="210" y="391" type="curve"/>
      <point x="132" y="487"/>
      <point x="97" y="561"/>
      <point x="97" y="616" type="curve" smooth="yes"/>
      <point x="97" y="646"/>
      <point x="120" y="677"/>
      <point x="165" y="677" type="curve" smooth="yes"/>
      <point x="373" y="677" type="line" smooth="yes"/>
      <point x="389" y="677"/>
      <point x="392" y="672"/>
      <point x="392" y="667" type="curve" smooth="yes"/>
      <point x="392" y="663"/>
      <point x="388" y="659"/>
      <point x="373" y="659" type="curve" smooth="yes"/>
      <point x="274" y="659" type="line"/>
      <point x="274" y="643" type="line"/>
      <point x="373" y="643" type="line" smooth="yes"/>
      <point x="390" y="643"/>
      <point x="393" y="637"/>
      <point x="393" y="633" type="curve" smooth="yes"/>
      <point x="393" y="629"/>
      <point x="392" y="622"/>
      <point x="373" y="622" type="curve" smooth="yes"/>
      <point x="274" y="622" type="line"/>
      <point x="274" y="606" type="line"/>
      <point x="374" y="606" type="line" smooth="yes"/>
      <point x="391" y="606"/>
      <point x="393" y="600"/>
      <point x="393" y="596" type="curve" smooth="yes"/>
      <point x="393" y="592"/>
      <point x="392" y="585"/>
      <point x="374" y="585" type="curve" smooth="yes"/>
      <point x="274" y="585" type="line"/>
      <point x="484" y="477" type="line"/>
      <point x="484" y="633" type="line" smooth="yes"/>
      <point x="484" y="643"/>
      <point x="487" y="677"/>
      <point x="530" y="677" type="curve" smooth="yes"/>
      <point x="759" y="677" type="line" smooth="yes"/>
      <point x="778" y="677"/>
      <point x="779" y="671"/>
      <point x="779" y="667" type="curve" smooth="yes"/>
      <point x="779" y="663"/>
      <point x="778" y="655"/>
      <point x="759" y="655" type="curve" smooth="yes"/>
      <point x="671" y="655" type="line"/>
      <point x="671" y="639" type="line"/>
      <point x="760" y="639" type="line" smooth="yes"/>
      <point x="775" y="639"/>
      <point x="780" y="635"/>
      <point x="780" y="629" type="curve" smooth="yes"/>
      <point x="780" y="623"/>
      <point x="774" y="620"/>
      <point x="761" y="620" type="curve" smooth="yes"/>
      <point x="671" y="620" type="line"/>
      <point x="671" y="604" type="line"/>
      <point x="760" y="604" type="line" smooth="yes"/>
      <point x="776" y="604"/>
      <point x="780" y="598"/>
      <point x="780" y="594" type="curve" smooth="yes"/>
      <point x="780" y="590"/>
      <point x="777" y="584"/>
      <point x="761" y="584" type="curve" smooth="yes"/>
      <point x="696" y="584" type="line" name="hr07"/>
      <point x="696" y="393" type="line" smooth="yes"/>
      <point x="696" y="325"/>
      <point x="648" y="304"/>
      <point x="602" y="300" type="curve"/>
      <point x="606" y="315"/>
      <point x="608" y="329"/>
      <point x="608" y="342" type="curve" smooth="yes"/>
      <point x="608" y="413"/>
      <point x="551" y="455"/>
      <point x="540" y="463" type="curve"/>
      <point x="527" y="447" type="line"/>
      <point x="530" y="445"/>
      <point x="588" y="409"/>
      <point x="588" y="342" type="curve" smooth="yes"/>
      <point x="588" y="331"/>
      <point x="586" y="318"/>
      <point x="582" y="305" type="curve" smooth="yes"/>
      <point x="556" y="217"/>
      <point x="496" y="205"/>
      <point x="436" y="205" type="curve" smooth="yes"/>
      <point x="379" y="205"/>
      <point x="326" y="263"/>
      <point x="316" y="275" type="curve"/>
      <point x="300" y="262" type="line"/>
      <point x="306" y="254"/>
      <point x="330" y="227"/>
      <point x="363" y="207" type="curve"/>
      <point x="337" y="21" type="line"/>
      <point x="73" y="21" type="line" smooth="yes"/>
      <point x="61" y="21"/>
      <point x="56" y="26"/>
      <point x="56" y="31" type="curve" smooth="yes"/>
      <point x="56" y="35"/>
      <point x="61" y="41"/>
      <point x="73" y="41" type="curve" smooth="yes"/>
      <point x="114" y="41" type="line"/>
      <point x="114" y="57" type="line"/>
      <point x="73" y="57" type="line" smooth="yes"/>
      <point x="60" y="57"/>
      <point x="56" y="63"/>
      <point x="56" y="67" type="curve" smooth="yes"/>
      <point x="56" y="74"/>
      <point x="65" y="78"/>
      <point x="74" y="78" type="curve" smooth="yes"/>
    </contour>
    <contour>
      <point x="726" y="30" type="line" smooth="yes"/>
      <point x="726" y="21"/>
      <point x="722" y="13"/>
      <point x="714" y="13" type="curve" smooth="yes"/>
      <point x="710" y="13"/>
      <point x="704" y="15"/>
      <point x="704" y="29" type="curve" smooth="yes"/>
      <point x="704" y="74" type="line"/>
      <point x="688" y="74" type="line"/>
      <point x="688" y="30" type="line" smooth="yes"/>
      <point x="688" y="18"/>
      <point x="684" y="12"/>
      <point x="677" y="12" type="curve" smooth="yes" name="hr08"/>
      <point x="671" y="12"/>
      <point x="668" y="18"/>
      <point x="668" y="29" type="curve" smooth="yes"/>
      <point x="668" y="74" type="line"/>
      <point x="652" y="74" type="line"/>
      <point x="652" y="30" type="line" smooth="yes"/>
      <point x="652" y="15"/>
      <point x="646" y="12"/>
      <point x="641" y="12" type="curve" smooth="yes"/>
      <point x="636" y="12"/>
      <point x="632" y="16"/>
      <point x="632" y="30" type="curve" smooth="yes"/>
      <point x="632" y="99" type="line"/>
      <point x="545" y="212" type="line"/>
      <point x="565" y="226"/>
      <point x="582" y="247"/>
      <point x="594" y="278" type="curve"/>
      <point x="648" y="280"/>
      <point x="686" y="301"/>
      <point x="704" y="336" type="curve"/>
      <point x="743" y="324"/>
      <point x="764" y="305"/>
      <point x="764" y="250" type="curve" smooth="yes"/>
      <point x="764" y="29" type="line" smooth="yes"/>
      <point x="764" y="16"/>
      <point x="759" y="13"/>
      <point x="754" y="13" type="curve" smooth="yes"/>
      <point x="748" y="13"/>
      <point x="742" y="19"/>
      <point x="742" y="29" type="curve" smooth="yes"/>
      <point x="742" y="74" type="line"/>
      <point x="726" y="74" type="line"/>
    </contour>
  </outline>
</glyph>
<glyph name="y" format="1">
  <advance width="793"/>
  <unicode hex="0079"/>
  <outline>
    <contour>
      <point x="277" y="86" type="line"/>
      <point x="243" y="86" type="line" smooth="yes"/>
      <point x="235" y="86"/>
      <point x="229" y="91"/>
      <point x="229" y="95" type="curve" smooth="yes"/>
      <point x="229" y="99"/>
      <point x="232" y="106"/>
      <point x="243" y="106" type="curve" smooth="yes"/>
      <point x="277" y="106" type="line"/>
      <point x="277" y="122" type="line"/>
      <point x="243" y="122" type="line" smooth="yes"/>
      <point x="232" y="122"/>
      <point x="229" y="125"/>
      <point x="229" y="130" type="curve" smooth="yes"/>
      <point x="229" y="136"/>
      <point x="240" y="137"/>
      <point x="243" y="137" type="curve" smooth="yes"/>
      <point x="269" y="137" type="line"/>
      <point x="266" y="245" type="line" smooth="yes"/>
      <point x="266" y="331"/>
      <point x="267" y="359"/>
      <point x="314" y="382" type="curve"/>
      <point x="305" y="401" type="line"/>
      <point x="275" y="386"/>
      <point x="259" y="365"/>
      <point x="251" y="337" type="curve"/>
      <point x="189" y="387" type="line" smooth="yes"/>
      <point x="83" y="462"/>
      <point x="35" y="531"/>
      <point x="35" y="575" type="curve" smooth="yes"/>
      <point x="35" y="654"/>
      <point x="88" y="677"/>
      <point x="138" y="677" type="curve" smooth="yes"/>
      <point x="199" y="677"/>
      <point x="247" y="670"/>
      <point x="287" y="666" type="curve" smooth="yes"/>
      <point x="568" y="638" type="line"/>
      <point x="626" y="719" type="line" smooth="yes"/>
      <point x="629" y="724"/>
      <point x="634" y="726"/>
      <point x="638" y="726" type="curve" smooth="yes"/>
      <point x="643" y="726"/>
      <point x="646" y="722"/>
      <point x="646" y="718" type="curve"/>
      <point x="646" y="716"/>
      <point x="646" y="715"/>
      <point x="645" y="713" type="curve" smooth="yes"/>
      <point x="631" y="685" type="line"/>
      <point x="646" y="678" type="line"/>
      <point x="660" y="705" type="line" smooth="yes"/>
      <point x="663" y="711"/>
      <point x="665" y="713"/>
      <point x="670" y="713" type="curve" smooth="yes"/>
      <point x="674" y="713"/>
      <point x="679" y="709"/>
      <point x="679" y="705" type="curve" smooth="yes"/>
      <point x="679" y="702"/>
      <point x="678" y="699"/>
      <point x="677" y="697" type="curve" smooth="yes"/>
      <point x="665" y="669" type="line"/>
      <point x="680" y="662" type="line"/>
      <point x="691" y="687" type="line" smooth="yes"/>
      <point x="694" y="694"/>
      <point x="698" y="697"/>
      <point x="702" y="697" type="curve" smooth="yes"/>
      <point x="707" y="697"/>
      <point x="711" y="693"/>
      <point x="711" y="689" type="curve" smooth="yes"/>
      <point x="711" y="686"/>
      <point x="710" y="684"/>
      <point x="709" y="681" type="curve" smooth="yes"/>
      <point x="699" y="654" type="line"/>
      <point x="714" y="648" type="line"/>
      <point x="723" y="673" type="line" smooth="yes"/>
      <point x="726" y="681"/>
      <point x="731" y="683"/>
      <point x="735" y="683" type="curve" smooth="yes"/>
      <point x="743" y="683"/>
      <point x="744" y="673"/>
      <point x="743" y="668" type="curve" smooth="yes"/>
      <point x="710" y="523" type="line" smooth="yes"/>
      <point x="694" y="458"/>
      <point x="653" y="449"/>
      <point x="620" y="449" type="curve" smooth="yes"/>
      <point x="603" y="449"/>
      <point x="584" y="452"/>
      <point x="565" y="458" type="curve" smooth="yes"/>
      <point x="501" y="478"/>
      <point x="208" y="550"/>
      <point x="205" y="551" type="curve"/>
      <point x="200" y="531" type="line"/>
      <point x="560" y="437" type="line" smooth="yes"/>
      <point x="580" y="432"/>
      <point x="595" y="403"/>
      <point x="595" y="379" type="curve" smooth="yes"/>
      <point x="595" y="357"/>
      <point x="585" y="339"/>
      <point x="569" y="325" type="curve"/>
      <point x="561" y="355"/>
      <point x="538" y="392"/>
      <point x="481" y="421" type="curve"/>
      <point x="472" y="402" type="line"/>
      <point x="542" y="368"/>
      <point x="552" y="317"/>
      <point x="552" y="291" type="curve" smooth="yes"/>
      <point x="552" y="261"/>
      <point x="534" y="175"/>
      <point x="456" y="175" type="curve"/>
      <point x="456" y="154" type="line"/>
      <point x="480" y="154"/>
      <point x="500" y="161"/>
      <point x="516" y="171" type="curve"/>
      <point x="516" y="21" type="line"/>
      <point x="242" y="21" type="line" smooth="yes"/>
      <point x="230" y="21"/>
      <point x="227" y="25"/>
      <point x="227" y="28" type="curve" smooth="yes"/>
      <point x="227" y="31"/>
      <point x="230" y="37"/>
      <point x="242" y="37" type="curve" smooth="yes"/>
      <point x="277" y="37" type="line"/>
      <point x="277" y="53" type="line"/>
      <point x="243" y="53" type="line" smooth="yes"/>
      <point x="234" y="53"/>
      <point x="229" y="57"/>
      <point x="229" y="61" type="curve" smooth="yes"/>
      <point x="229" y="64"/>
      <point x="233" y="70"/>
      <point x="243" y="70" type="curve" smooth="yes"/>
      <point x="277" y="70" type="line"/>
    </contour>
  </outline>
</glyph>
<glyph name="bar" format="1">
  <advance width="290"/>
  <unicode hex="007C"/>
  <outline>
    <contour>
      <point x="124" y="705" type="line"/>
      <point x="166" y="705" type="line"/>
      <point x="166" y="-8" type="line"/>
      <point x="124" y="-8" type="line"/>
    </contour>
  </outline>
</glyph>
<glyph name="asciitilde" format="1">
  <advance width="833"/>
  <unicode hex="007E"/>
  <outline>
    <contour>
      <point x="658" y="348" type="line"/>
      <point x="635" y="307"/>
      <point x="589" y="256"/>
      <point x="524" y="256" type="curve" smooth="yes"/>
      <point x="452" y="256"/>
      <point x="397" y="345"/>
      <point x="334" y="345" type="curve" smooth="yes"/>
      <point x="295" y="345"/>
      <point x="261" y="320"/>
      <point x="229" y="277" type="curve"/>
      <point x="198" y="311" type="line"/>
      <point x="232" y="356"/>
      <point x="279" y="403"/>
      <point x="338" y="403" type="curve" smooth="yes"/>
      <point x="409" y="403"/>
      <point x="464" y="312"/>
      <point x="527" y="312" type="curve" smooth="yes"/>
      <point x="564" y="312"/>
      <point x="587" y="331"/>
      <point x="627" y="380" type="curve"/>
    </contour>
  </outline>
</glyph>
<glyph name="brokenbar" format="1">
  <advance width="290"/>
  <unicode hex="00A6"/>
  <outline>
    <contour>
      <point x="123" y="276" type="line"/>
      <point x="166" y="276" type="line"/>
      <point x="166" y="-9" type="line"/>
      <point x="123" y="-9" type="line"/>
    </contour>
    <contour>
      <point x="124" y="706" type="line"/>
      <point x="166" y="706" type="line"/>
      <point x="166" y="420" type="line"/>
      <point x="124" y="420" type="line"/>
    </contour>
  </outline>
</glyph>
<glyph name="dieresis" format="1">
  <advance width="833"/>
  <unicode hex="00A8"/>
  <outline>
    <contour>
      <point x="328" y="815" type="curve" smooth="yes"/>
      <point x="328" y="795"/>
      <point x="313" y="779"/>
      <point x="293" y="779" type="curve" smooth="yes"/>
      <point x="273" y="779"/>
      <point x="257" y="795"/>
      <point x="257" y="815" type="curve" smooth="yes"/>
      <point x="257" y="835"/>
      <point x="273" y="850"/>
      <point x="293" y="850" type="curve" smooth="yes"/>
      <point x="313" y="850"/>
      <point x="328" y="835"/>
    </contour>
    <contour>
      <point x="573" y="815" type="curve" smooth="yes"/>
      <point x="573" y="795"/>
      <point x="558" y="779"/>
      <point x="538" y="779" type="curve" smooth="yes"/>
      <point x="518" y="779"/>
      <point x="502" y="795"/>
      <point x="502" y="815" type="curve" smooth="yes"/>
      <point x="502" y="835"/>
      <point x="518" y="850"/>
      <point x="538" y="850" type="curve" smooth="yes"/>
      <point x="558" y="850"/>
      <point x="573" y="835"/>
    </contour>
  </outline>
</glyph>
<glyph name="guillemotleft" format="1">
  <advance width="573"/>
  <unicode hex="00AB"/>
  <outline>
    <contour>
      <point x="450" y="571" type="line"/>
      <point x="482" y="538" type="line"/>
      <point x="301" y="356"/>
      <point x="301" y="357"/>
      <point x="301" y="357" type="curve"/>
      <point x="483" y="177" type="line"/>
      <point x="450" y="143" type="line"/>
      <point x="233" y="358" type="line"/>
    </contour>
    <contour>
      <point x="255" y="571" type="line"/>
      <point x="287" y="538" type="line"/>
      <point x="106" y="356"/>
      <point x="106" y="357"/>
      <point x="106" y="357" type="curve"/>
      <point x="288" y="177" type="line"/>
      <point x="255" y="143" type="line"/>
      <point x="38" y="358" type="line"/>
    </contour>
  </outline>
</glyph>
<glyph name="acute" format="1">
  <advance width="833"/>
  <unicode hex="00B4"/>
  <outline>
    <contour>
      <point x="529" y="876" type="line" name="hr00"/>
      <point x="539" y="831" type="line"/>
      <point x="263" y="767" type="line"/>
      <point x="253" y="814" type="line"/>
    </contour>
  </outline>
</glyph>
<glyph name="periodcentered" format="1">
  <advance width="277"/>
  <unicode hex="00B7"/>
  <outline>
    <contour>
      <point x="182" y="329" type="curve" smooth="yes"/>
      <point x="182" y="304"/>
      <point x="164" y="284"/>
      <point x="138" y="284" type="curve" smooth="yes"/>
      <point x="113" y="284"/>
      <point x="93" y="304"/>
      <point x="93" y="329" type="curve" smooth="yes"/>
      <point x="93" y="355"/>
      <point x="113" y="373"/>
      <point x="138" y="373" type="curve" smooth="yes"/>
      <point x="164" y="373"/>
      <point x="182" y="355"/>
    </contour>
  </outline>
</glyph>
<glyph name="cedilla" format="1">
  <advance width="833"/>
  <unicode hex="00B8"/>
  <outline>
    <contour>
      <point x="360" y="-179" type="curve"/>
      <point x="372" y="-205" type="line" name="hr03"/>
      <point x="410" y="-191"/>
      <point x="438" y="-155"/>
      <point x="438" y="-114" type="curve" smooth="yes"/>
      <point x="438" y="-69"/>
      <point x="405" y="-43"/>
      <point x="384" y="-39" type="curve"/>
      <point x="367" y="-68" type="line"/>
      <point x="382" y="-75"/>
      <point x="400" y="-92"/>
      <point x="400" y="-121" type="curve" smooth="yes"/>
      <point x="400" y="-147"/>
      <point x="382" y="-168"/>
    </contour>
  </outline>
</glyph>
<glyph name="guillemotright" format="1">
  <advance width="609"/>
  <unicode hex="00BB"/>
  <outline>
    <contour>
      <point x="376" y="358" type="line"/>
      <point x="159" y="143" type="line"/>
      <point x="126" y="177" type="line"/>
      <point x="308" y="357" type="line"/>
      <point x="308" y="357"/>
      <point x="308" y="356"/>
      <point x="127" y="538" type="curve"/>
      <point x="159" y="571" type="line"/>
    </contour>
    <contour>
      <point x="571" y="358" type="line"/>
      <point x="354" y="143" type="line"/>
      <point x="321" y="177" type="line"/>
      <point x="503" y="357" type="line"/>
      <point x="503" y="357"/>
      <point x="503" y="356"/>
      <point x="322" y="538" type="curve"/>
      <point x="354" y="571" type="line"/>
    </contour>
  </outline>
</glyph>
<glyph name="Agrave" format="1">
  <advance width="804"/>
  <unicode hex="00C0"/>
  <outline>
    <contour>
      <point x="540" y="808" type="line" name="hr00"/>
      <point x="530" y="761" type="line"/>
      <point x="254" y="825" type="line"/>
      <point x="264" y="870" type="line"/>
    </contour>
    <component base="A"/>
  </outline>
</glyph>
